<?xml version="1.0" encoding="utf-8" standalone="no"?>
<!DOCTYPE svg PUBLIC "-//W3C//DTD SVG 1.1//EN"
  "http://www.w3.org/Graphics/SVG/1.1/DTD/svg11.dtd">
<svg xmlns:xlink="http://www.w3.org/1999/xlink" width="552.96pt" height="311.04pt" viewBox="0 0 552.96 311.04" xmlns="http://www.w3.org/2000/svg" version="1.1">
 <metadata>
  <rdf:RDF xmlns:dc="http://purl.org/dc/elements/1.1/" xmlns:cc="http://creativecommons.org/ns#" xmlns:rdf="http://www.w3.org/1999/02/22-rdf-syntax-ns#">
   <cc:Work>
    <dc:type rdf:resource="http://purl.org/dc/dcmitype/StillImage"/>
    <dc:date>2025-01-18T19:37:44.875224</dc:date>
    <dc:format>image/svg+xml</dc:format>
    <dc:creator>
     <cc:Agent>
      <dc:title>Matplotlib v3.6.3, https://matplotlib.org/</dc:title>
     </cc:Agent>
    </dc:creator>
   </cc:Work>
  </rdf:RDF>
 </metadata>
 <defs>
  <style type="text/css">*{stroke-linejoin: round; stroke-linecap: butt}</style>
 </defs>
 <g id="figure_1">
  <g id="patch_1">
   <path d="M 0 311.04 
L 552.96 311.04 
L 552.96 0 
L 0 0 
z
" style="fill: #ffffff"/>
  </g>
  <g id="axes_1">
   <g id="patch_2">
    <path d="M 69.12 276.8256 
L 497.664 276.8256 
L 497.664 37.3248 
L 69.12 37.3248 
z
" style="fill: #ffffff"/>
   </g>
   <g id="patch_3">
    <path d="M 88.599273 276.8256 
L 94.413981 276.8256 
L 94.413981 264.059895 
L 88.599273 264.059895 
z
" clip-path="url(#p8303bf8e73)" style="fill: #cccc00"/>
   </g>
   <g id="patch_4">
    <path d="M 111.858106 276.8256 
L 117.672814 276.8256 
L 117.672814 268.833277 
L 111.858106 268.833277 
z
" clip-path="url(#p8303bf8e73)" style="fill: #cccc00"/>
   </g>
   <g id="patch_5">
    <path d="M 135.116939 276.8256 
L 140.931647 276.8256 
L 140.931647 273.795939 
L 135.116939 273.795939 
z
" clip-path="url(#p8303bf8e73)" style="fill: #cccc00"/>
   </g>
   <g id="patch_6">
    <path d="M 158.375772 276.8256 
L 164.19048 276.8256 
L 164.19048 270.319962 
L 158.375772 270.319962 
z
" clip-path="url(#p8303bf8e73)" style="fill: #cccc00"/>
   </g>
   <g id="patch_7">
    <path d="M 181.634605 276.8256 
L 187.449313 276.8256 
L 187.449313 265.518612 
L 181.634605 265.518612 
z
" clip-path="url(#p8303bf8e73)" style="fill: #cccc00"/>
   </g>
   <g id="patch_8">
    <path d="M 204.893438 276.8256 
L 210.708147 276.8256 
L 210.708147 266.384537 
L 204.893438 266.384537 
z
" clip-path="url(#p8303bf8e73)" style="fill: #cccc00"/>
   </g>
   <g id="patch_9">
    <path d="M 228.152271 276.8256 
L 233.96698 276.8256 
L 233.96698 267.013152 
L 228.152271 267.013152 
z
" clip-path="url(#p8303bf8e73)" style="fill: #cccc00"/>
   </g>
   <g id="patch_10">
    <path d="M 251.411104 276.8256 
L 257.225813 276.8256 
L 257.225813 265.764929 
L 251.411104 265.764929 
z
" clip-path="url(#p8303bf8e73)" style="fill: #cccc00"/>
   </g>
   <g id="patch_11">
    <path d="M 274.669938 276.8256 
L 280.484646 276.8256 
L 280.484646 263.741307 
L 274.669938 263.741307 
z
" clip-path="url(#p8303bf8e73)" style="fill: #cccc00"/>
   </g>
   <g id="patch_12">
    <path d="M 297.928771 276.8256 
L 303.743479 276.8256 
L 303.743479 269.291596 
L 297.928771 269.291596 
z
" clip-path="url(#p8303bf8e73)" style="fill: #cccc00"/>
   </g>
   <g id="patch_13">
    <path d="M 321.187604 276.8256 
L 327.002312 276.8256 
L 327.002312 268.495619 
L 321.187604 268.495619 
z
" clip-path="url(#p8303bf8e73)" style="fill: #cccc00"/>
   </g>
   <g id="patch_14">
    <path d="M 344.446437 276.8256 
L 350.261145 276.8256 
L 350.261145 268.533586 
L 344.446437 268.533586 
z
" clip-path="url(#p8303bf8e73)" style="fill: #cccc00"/>
   </g>
   <g id="patch_15">
    <path d="M 367.70527 276.8256 
L 373.519978 276.8256 
L 373.519978 263.575229 
L 367.70527 263.575229 
z
" clip-path="url(#p8303bf8e73)" style="fill: #cccc00"/>
   </g>
   <g id="patch_16">
    <path d="M 390.964103 276.8256 
L 396.778811 276.8256 
L 396.778811 270.236068 
L 390.964103 270.236068 
z
" clip-path="url(#p8303bf8e73)" style="fill: #cccc00"/>
   </g>
   <g id="patch_17">
    <path d="M 414.222936 276.8256 
L 420.037645 276.8256 
L 420.037645 260.126562 
L 414.222936 260.126562 
z
" clip-path="url(#p8303bf8e73)" style="fill: #cccc00"/>
   </g>
   <g id="patch_18">
    <path d="M 437.481769 276.8256 
L 443.296478 276.8256 
L 443.296478 268.75612 
L 437.481769 268.75612 
z
" clip-path="url(#p8303bf8e73)" style="fill: #cccc00"/>
   </g>
   <g id="patch_19">
    <path d="M 460.740602 276.8256 
L 466.555311 276.8256 
L 466.555311 263.745222 
L 460.740602 263.745222 
z
" clip-path="url(#p8303bf8e73)" style="fill: #cccc00"/>
   </g>
   <g id="patch_20">
    <path d="M 88.599273 264.059895 
L 94.413981 264.059895 
L 94.413981 224.621241 
L 88.599273 224.621241 
z
" clip-path="url(#p8303bf8e73)" style="fill: #ffff00"/>
   </g>
   <g id="patch_21">
    <path d="M 111.858106 268.833277 
L 117.672814 268.833277 
L 117.672814 252.494511 
L 111.858106 252.494511 
z
" clip-path="url(#p8303bf8e73)" style="fill: #ffff00"/>
   </g>
   <g id="patch_22">
    <path d="M 135.116939 273.795939 
L 140.931647 273.795939 
L 140.931647 257.658932 
L 135.116939 257.658932 
z
" clip-path="url(#p8303bf8e73)" style="fill: #ffff00"/>
   </g>
   <g id="patch_23">
    <path d="M 158.375772 270.319962 
L 164.19048 270.319962 
L 164.19048 249.003008 
L 158.375772 249.003008 
z
" clip-path="url(#p8303bf8e73)" style="fill: #ffff00"/>
   </g>
   <g id="patch_24">
    <path d="M 181.634605 265.518612 
L 187.449313 265.518612 
L 187.449313 264.96421 
L 181.634605 264.96421 
z
" clip-path="url(#p8303bf8e73)" style="fill: #ffff00"/>
   </g>
   <g id="patch_25">
    <path d="M 204.893438 266.384537 
L 210.708147 266.384537 
L 210.708147 249.665033 
L 204.893438 249.665033 
z
" clip-path="url(#p8303bf8e73)" style="fill: #ffff00"/>
   </g>
   <g id="patch_26">
    <path d="M 228.152271 267.013152 
L 233.96698 267.013152 
L 233.96698 243.748633 
L 228.152271 243.748633 
z
" clip-path="url(#p8303bf8e73)" style="fill: #ffff00"/>
   </g>
   <g id="patch_27">
    <path d="M 251.411104 265.764929 
L 257.225813 265.764929 
L 257.225813 182.560895 
L 251.411104 182.560895 
z
" clip-path="url(#p8303bf8e73)" style="fill: #ffff00"/>
   </g>
   <g id="patch_28">
    <path d="M 274.669938 263.741307 
L 280.484646 263.741307 
L 280.484646 233.260233 
L 274.669938 233.260233 
z
" clip-path="url(#p8303bf8e73)" style="fill: #ffff00"/>
   </g>
   <g id="patch_29">
    <path d="M 297.928771 269.291596 
L 303.743479 269.291596 
L 303.743479 259.125781 
L 297.928771 259.125781 
z
" clip-path="url(#p8303bf8e73)" style="fill: #ffff00"/>
   </g>
   <g id="patch_30">
    <path d="M 321.187604 268.495619 
L 327.002312 268.495619 
L 327.002312 260.793861 
L 321.187604 260.793861 
z
" clip-path="url(#p8303bf8e73)" style="fill: #ffff00"/>
   </g>
   <g id="patch_31">
    <path d="M 344.446437 268.533586 
L 350.261145 268.533586 
L 350.261145 265.911444 
L 344.446437 265.911444 
z
" clip-path="url(#p8303bf8e73)" style="fill: #ffff00"/>
   </g>
   <g id="patch_32">
    <path d="M 367.70527 263.575229 
L 373.519978 263.575229 
L 373.519978 232.106374 
L 367.70527 232.106374 
z
" clip-path="url(#p8303bf8e73)" style="fill: #ffff00"/>
   </g>
   <g id="patch_33">
    <path d="M 390.964103 270.236068 
L 396.778811 270.236068 
L 396.778811 187.146831 
L 390.964103 187.146831 
z
" clip-path="url(#p8303bf8e73)" style="fill: #ffff00"/>
   </g>
   <g id="patch_34">
    <path d="M 414.222936 260.126562 
L 420.037645 260.126562 
L 420.037645 243.071191 
L 414.222936 243.071191 
z
" clip-path="url(#p8303bf8e73)" style="fill: #ffff00"/>
   </g>
   <g id="patch_35">
    <path d="M 437.481769 268.75612 
L 443.296478 268.75612 
L 443.296478 259.552238 
L 437.481769 259.552238 
z
" clip-path="url(#p8303bf8e73)" style="fill: #ffff00"/>
   </g>
   <g id="patch_36">
    <path d="M 460.740602 263.745222 
L 466.555311 263.745222 
L 466.555311 201.184832 
L 460.740602 201.184832 
z
" clip-path="url(#p8303bf8e73)" style="fill: #ffff00"/>
   </g>
   <g id="patch_37">
    <path d="M 94.413981 276.8256 
L 100.228689 276.8256 
L 100.228689 236.013615 
L 94.413981 236.013615 
z
" clip-path="url(#p8303bf8e73)" style="fill: #cc1100"/>
   </g>
   <g id="patch_38">
    <path d="M 117.672814 276.8256 
L 123.487522 276.8256 
L 123.487522 264.494326 
L 117.672814 264.494326 
z
" clip-path="url(#p8303bf8e73)" style="fill: #cc1100"/>
   </g>
   <g id="patch_39">
    <path d="M 140.931647 276.8256 
L 146.746355 276.8256 
L 146.746355 268.98108 
L 140.931647 268.98108 
z
" clip-path="url(#p8303bf8e73)" style="fill: #cc1100"/>
   </g>
   <g id="patch_40">
    <path d="M 164.19048 276.8256 
L 170.005189 276.8256 
L 170.005189 264.199299 
L 164.19048 264.199299 
z
" clip-path="url(#p8303bf8e73)" style="fill: #cc1100"/>
   </g>
   <g id="patch_41">
    <path d="M 187.449313 276.8256 
L 193.264022 276.8256 
L 193.264022 264.010456 
L 187.449313 264.010456 
z
" clip-path="url(#p8303bf8e73)" style="fill: #cc1100"/>
   </g>
   <g id="patch_42">
    <path d="M 210.708147 276.8256 
L 216.522855 276.8256 
L 216.522855 262.529911 
L 210.708147 262.529911 
z
" clip-path="url(#p8303bf8e73)" style="fill: #cc1100"/>
   </g>
   <g id="patch_43">
    <path d="M 233.96698 276.8256 
L 239.781688 276.8256 
L 239.781688 262.517948 
L 233.96698 262.517948 
z
" clip-path="url(#p8303bf8e73)" style="fill: #cc1100"/>
   </g>
   <g id="patch_44">
    <path d="M 257.225813 276.8256 
L 263.040521 276.8256 
L 263.040521 259.156224 
L 257.225813 259.156224 
z
" clip-path="url(#p8303bf8e73)" style="fill: #cc1100"/>
   </g>
   <g id="patch_45">
    <path d="M 280.484646 276.8256 
L 286.299354 276.8256 
L 286.299354 253.413158 
L 280.484646 253.413158 
z
" clip-path="url(#p8303bf8e73)" style="fill: #cc1100"/>
   </g>
   <g id="patch_46">
    <path d="M 303.743479 276.8256 
L 309.558187 276.8256 
L 309.558187 253.216724 
L 303.743479 253.216724 
z
" clip-path="url(#p8303bf8e73)" style="fill: #cc1100"/>
   </g>
   <g id="patch_47">
    <path d="M 327.002312 276.8256 
L 332.81702 276.8256 
L 332.81702 264.61816 
L 327.002312 264.61816 
z
" clip-path="url(#p8303bf8e73)" style="fill: #cc1100"/>
   </g>
   <g id="patch_48">
    <path d="M 350.261145 276.8256 
L 356.075853 276.8256 
L 356.075853 264.764713 
L 350.261145 264.764713 
z
" clip-path="url(#p8303bf8e73)" style="fill: #cc1100"/>
   </g>
   <g id="patch_49">
    <path d="M 373.519978 276.8256 
L 379.334687 276.8256 
L 379.334687 260.51169 
L 373.519978 260.51169 
z
" clip-path="url(#p8303bf8e73)" style="fill: #cc1100"/>
   </g>
   <g id="patch_50">
    <path d="M 396.778811 276.8256 
L 402.59352 276.8256 
L 402.59352 263.138159 
L 396.778811 263.138159 
z
" clip-path="url(#p8303bf8e73)" style="fill: #cc1100"/>
   </g>
   <g id="patch_51">
    <path d="M 420.037645 276.8256 
L 425.852353 276.8256 
L 425.852353 234.210999 
L 420.037645 234.210999 
z
" clip-path="url(#p8303bf8e73)" style="fill: #cc1100"/>
   </g>
   <g id="patch_52">
    <path d="M 443.296478 276.8256 
L 449.111186 276.8256 
L 449.111186 265.991767 
L 443.296478 265.991767 
z
" clip-path="url(#p8303bf8e73)" style="fill: #cc1100"/>
   </g>
   <g id="patch_53">
    <path d="M 466.555311 276.8256 
L 472.370019 276.8256 
L 472.370019 251.363706 
L 466.555311 251.363706 
z
" clip-path="url(#p8303bf8e73)" style="fill: #cc1100"/>
   </g>
   <g id="patch_54">
    <path d="M 94.413981 236.013615 
L 100.228689 236.013615 
L 100.228689 178.473806 
L 94.413981 178.473806 
z
" clip-path="url(#p8303bf8e73)" style="fill: #ff4400"/>
   </g>
   <g id="patch_55">
    <path d="M 117.672814 264.494326 
L 123.487522 264.494326 
L 123.487522 246.162167 
L 117.672814 246.162167 
z
" clip-path="url(#p8303bf8e73)" style="fill: #ff4400"/>
   </g>
   <g id="patch_56">
    <path d="M 140.931647 268.98108 
L 146.746355 268.98108 
L 146.746355 252.569715 
L 140.931647 252.569715 
z
" clip-path="url(#p8303bf8e73)" style="fill: #ff4400"/>
   </g>
   <g id="patch_57">
    <path d="M 164.19048 264.199299 
L 170.005189 264.199299 
L 170.005189 242.503779 
L 164.19048 242.503779 
z
" clip-path="url(#p8303bf8e73)" style="fill: #ff4400"/>
   </g>
   <g id="patch_58">
    <path d="M 187.449313 264.010456 
L 193.264022 264.010456 
L 193.264022 253.111009 
L 187.449313 253.111009 
z
" clip-path="url(#p8303bf8e73)" style="fill: #ff4400"/>
   </g>
   <g id="patch_59">
    <path d="M 210.708147 262.529911 
L 216.522855 262.529911 
L 216.522855 235.70325 
L 210.708147 235.70325 
z
" clip-path="url(#p8303bf8e73)" style="fill: #ff4400"/>
   </g>
   <g id="patch_60">
    <path d="M 233.96698 262.517948 
L 239.781688 262.517948 
L 239.781688 239.112358 
L 233.96698 239.112358 
z
" clip-path="url(#p8303bf8e73)" style="fill: #ff4400"/>
   </g>
   <g id="patch_61">
    <path d="M 257.225813 259.156224 
L 263.040521 259.156224 
L 263.040521 176.081532 
L 257.225813 176.081532 
z
" clip-path="url(#p8303bf8e73)" style="fill: #ff4400"/>
   </g>
   <g id="patch_62">
    <path d="M 280.484646 253.413158 
L 286.299354 253.413158 
L 286.299354 221.861441 
L 280.484646 221.861441 
z
" clip-path="url(#p8303bf8e73)" style="fill: #ff4400"/>
   </g>
   <g id="patch_63">
    <path d="M 303.743479 253.216724 
L 309.558187 253.216724 
L 309.558187 239.356201 
L 303.743479 239.356201 
z
" clip-path="url(#p8303bf8e73)" style="fill: #ff4400"/>
   </g>
   <g id="patch_64">
    <path d="M 327.002312 264.61816 
L 332.81702 264.61816 
L 332.81702 254.251935 
L 327.002312 254.251935 
z
" clip-path="url(#p8303bf8e73)" style="fill: #ff4400"/>
   </g>
   <g id="patch_65">
    <path d="M 350.261145 264.764713 
L 356.075853 264.764713 
L 356.075853 257.438096 
L 350.261145 257.438096 
z
" clip-path="url(#p8303bf8e73)" style="fill: #ff4400"/>
   </g>
   <g id="patch_66">
    <path d="M 373.519978 260.51169 
L 379.334687 260.51169 
L 379.334687 228.991907 
L 373.519978 228.991907 
z
" clip-path="url(#p8303bf8e73)" style="fill: #ff4400"/>
   </g>
   <g id="patch_67">
    <path d="M 396.778811 263.138159 
L 402.59352 263.138159 
L 402.59352 178.657491 
L 396.778811 178.657491 
z
" clip-path="url(#p8303bf8e73)" style="fill: #ff4400"/>
   </g>
   <g id="patch_68">
    <path d="M 420.037645 234.210999 
L 425.852353 234.210999 
L 425.852353 211.934597 
L 420.037645 211.934597 
z
" clip-path="url(#p8303bf8e73)" style="fill: #ff4400"/>
   </g>
   <g id="patch_69">
    <path d="M 443.296478 265.991767 
L 449.111186 265.991767 
L 449.111186 251.987501 
L 443.296478 251.987501 
z
" clip-path="url(#p8303bf8e73)" style="fill: #ff4400"/>
   </g>
   <g id="patch_70">
    <path d="M 466.555311 251.363706 
L 472.370019 251.363706 
L 472.370019 139.055901 
L 466.555311 139.055901 
z
" clip-path="url(#p8303bf8e73)" style="fill: #ff4400"/>
   </g>
   <g id="patch_71">
    <path d="M 100.228689 276.8256 
L 106.043398 276.8256 
L 106.043398 181.815895 
L 100.228689 181.815895 
z
" clip-path="url(#p8303bf8e73)" style="fill: #0067c0"/>
   </g>
   <g id="patch_72">
    <path d="M 123.487522 276.8256 
L 129.302231 276.8256 
L 129.302231 204.09731 
L 123.487522 204.09731 
z
" clip-path="url(#p8303bf8e73)" style="fill: #0067c0"/>
   </g>
   <g id="patch_73">
    <path d="M 146.746355 276.8256 
L 152.561064 276.8256 
L 152.561064 229.012776 
L 146.746355 229.012776 
z
" clip-path="url(#p8303bf8e73)" style="fill: #0067c0"/>
   </g>
   <g id="patch_74">
    <path d="M 170.005189 276.8256 
L 175.819897 276.8256 
L 175.819897 225.450061 
L 170.005189 225.450061 
z
" clip-path="url(#p8303bf8e73)" style="fill: #0067c0"/>
   </g>
   <g id="patch_75">
    <path d="M 193.264022 276.8256 
L 199.07873 276.8256 
L 199.07873 179.591272 
L 193.264022 179.591272 
z
" clip-path="url(#p8303bf8e73)" style="fill: #0067c0"/>
   </g>
   <g id="patch_76">
    <path d="M 216.522855 276.8256 
L 222.337563 276.8256 
L 222.337563 192.955512 
L 216.522855 192.955512 
z
" clip-path="url(#p8303bf8e73)" style="fill: #0067c0"/>
   </g>
   <g id="patch_77">
    <path d="M 239.781688 276.8256 
L 245.596396 276.8256 
L 245.596396 221.238639 
L 239.781688 221.238639 
z
" clip-path="url(#p8303bf8e73)" style="fill: #0067c0"/>
   </g>
   <g id="patch_78">
    <path d="M 263.040521 276.8256 
L 268.855229 276.8256 
L 268.855229 201.180798 
L 263.040521 201.180798 
z
" clip-path="url(#p8303bf8e73)" style="fill: #0067c0"/>
   </g>
   <g id="patch_79">
    <path d="M 286.299354 276.8256 
L 292.114062 276.8256 
L 292.114062 197.944019 
L 286.299354 197.944019 
z
" clip-path="url(#p8303bf8e73)" style="fill: #0067c0"/>
   </g>
   <g id="patch_80">
    <path d="M 309.558187 276.8256 
L 315.372896 276.8256 
L 315.372896 183.990589 
L 309.558187 183.990589 
z
" clip-path="url(#p8303bf8e73)" style="fill: #0067c0"/>
   </g>
   <g id="patch_81">
    <path d="M 332.81702 276.8256 
L 338.631729 276.8256 
L 338.631729 210.292526 
L 332.81702 210.292526 
z
" clip-path="url(#p8303bf8e73)" style="fill: #0067c0"/>
   </g>
   <g id="patch_82">
    <path d="M 356.075853 276.8256 
L 361.890562 276.8256 
L 361.890562 217.842328 
L 356.075853 217.842328 
z
" clip-path="url(#p8303bf8e73)" style="fill: #0067c0"/>
   </g>
   <g id="patch_83">
    <path d="M 379.334687 276.8256 
L 385.149395 276.8256 
L 385.149395 209.038173 
L 379.334687 209.038173 
z
" clip-path="url(#p8303bf8e73)" style="fill: #0067c0"/>
   </g>
   <g id="patch_84">
    <path d="M 402.59352 276.8256 
L 408.408228 276.8256 
L 408.408228 225.784182 
L 402.59352 225.784182 
z
" clip-path="url(#p8303bf8e73)" style="fill: #0067c0"/>
   </g>
   <g id="patch_85">
    <path d="M 425.852353 276.8256 
L 431.667061 276.8256 
L 431.667061 169.472278 
L 425.852353 169.472278 
z
" clip-path="url(#p8303bf8e73)" style="fill: #0067c0"/>
   </g>
   <g id="patch_86">
    <path d="M 449.111186 276.8256 
L 454.925894 276.8256 
L 454.925894 210.659593 
L 449.111186 210.659593 
z
" clip-path="url(#p8303bf8e73)" style="fill: #0067c0"/>
   </g>
   <g id="patch_87">
    <path d="M 472.370019 276.8256 
L 478.184727 276.8256 
L 478.184727 158.621532 
L 472.370019 158.621532 
z
" clip-path="url(#p8303bf8e73)" style="fill: #0067c0"/>
   </g>
   <g id="patch_88">
    <path d="M 100.228689 181.815895 
L 106.043398 181.815895 
L 106.043398 126.301768 
L 100.228689 126.301768 
z
" clip-path="url(#p8303bf8e73)" style="fill: #069af3"/>
   </g>
   <g id="patch_89">
    <path d="M 123.487522 204.09731 
L 129.302231 204.09731 
L 129.302231 187.135381 
L 123.487522 187.135381 
z
" clip-path="url(#p8303bf8e73)" style="fill: #069af3"/>
   </g>
   <g id="patch_90">
    <path d="M 146.746355 229.012776 
L 152.561064 229.012776 
L 152.561064 204.996219 
L 146.746355 204.996219 
z
" clip-path="url(#p8303bf8e73)" style="fill: #069af3"/>
   </g>
   <g id="patch_91">
    <path d="M 170.005189 225.450061 
L 175.819897 225.450061 
L 175.819897 203.710239 
L 170.005189 203.710239 
z
" clip-path="url(#p8303bf8e73)" style="fill: #069af3"/>
   </g>
   <g id="patch_92">
    <path d="M 193.264022 179.591272 
L 199.07873 179.591272 
L 199.07873 178.986813 
L 193.264022 178.986813 
z
" clip-path="url(#p8303bf8e73)" style="fill: #069af3"/>
   </g>
   <g id="patch_93">
    <path d="M 216.522855 192.955512 
L 222.337563 192.955512 
L 222.337563 175.594431 
L 216.522855 175.594431 
z
" clip-path="url(#p8303bf8e73)" style="fill: #069af3"/>
   </g>
   <g id="patch_94">
    <path d="M 239.781688 221.238639 
L 245.596396 221.238639 
L 245.596396 197.345552 
L 239.781688 197.345552 
z
" clip-path="url(#p8303bf8e73)" style="fill: #069af3"/>
   </g>
   <g id="patch_95">
    <path d="M 263.040521 201.180798 
L 268.855229 201.180798 
L 268.855229 116.967988 
L 263.040521 116.967988 
z
" clip-path="url(#p8303bf8e73)" style="fill: #069af3"/>
   </g>
   <g id="patch_96">
    <path d="M 286.299354 197.944019 
L 292.114062 197.944019 
L 292.114062 171.959727 
L 286.299354 171.959727 
z
" clip-path="url(#p8303bf8e73)" style="fill: #069af3"/>
   </g>
   <g id="patch_97">
    <path d="M 309.558187 183.990589 
L 315.372896 183.990589 
L 315.372896 173.633086 
L 309.558187 173.633086 
z
" clip-path="url(#p8303bf8e73)" style="fill: #069af3"/>
   </g>
   <g id="patch_98">
    <path d="M 332.81702 210.292526 
L 338.631729 210.292526 
L 338.631729 202.34135 
L 332.81702 202.34135 
z
" clip-path="url(#p8303bf8e73)" style="fill: #069af3"/>
   </g>
   <g id="patch_99">
    <path d="M 356.075853 217.842328 
L 361.890562 217.842328 
L 361.890562 215.11078 
L 356.075853 215.11078 
z
" clip-path="url(#p8303bf8e73)" style="fill: #069af3"/>
   </g>
   <g id="patch_100">
    <path d="M 379.334687 209.038173 
L 385.149395 209.038173 
L 385.149395 176.917506 
L 379.334687 176.917506 
z
" clip-path="url(#p8303bf8e73)" style="fill: #069af3"/>
   </g>
   <g id="patch_101">
    <path d="M 402.59352 225.784182 
L 408.408228 225.784182 
L 408.408228 141.222625 
L 402.59352 141.222625 
z
" clip-path="url(#p8303bf8e73)" style="fill: #069af3"/>
   </g>
   <g id="patch_102">
    <path d="M 425.852353 169.472278 
L 431.667061 169.472278 
L 431.667061 155.00074 
L 425.852353 155.00074 
z
" clip-path="url(#p8303bf8e73)" style="fill: #069af3"/>
   </g>
   <g id="patch_103">
    <path d="M 449.111186 210.659593 
L 454.925894 210.659593 
L 454.925894 201.147854 
L 449.111186 201.147854 
z
" clip-path="url(#p8303bf8e73)" style="fill: #069af3"/>
   </g>
   <g id="patch_104">
    <path d="M 472.370019 158.621532 
L 478.184727 158.621532 
L 478.184727 48.7296 
L 472.370019 48.7296 
z
" clip-path="url(#p8303bf8e73)" style="fill: #069af3"/>
   </g>
   <g id="matplotlib.axis_1">
    <g id="xtick_1">
     <g id="line2d_1">
      <defs>
       <path id="m15bcb18cbc" d="M 0 0 
L 0 3.5 
" style="stroke: #000000; stroke-width: 0.8"/>
      </defs>
      <g>
       <use xlink:href="#m15bcb18cbc" x="94.413981" y="276.8256" style="stroke: #000000; stroke-width: 0.8"/>
      </g>
     </g>
     <g id="text_1">
      <!-- q1 -->
      <g transform="translate(88.058512 291.424038) scale(0.1 -0.1)">
       <defs>
        <path id="DejaVuSans-71" d="M 947 1747 
Q 947 1113 1208 752 
Q 1469 391 1925 391 
Q 2381 391 2643 752 
Q 2906 1113 2906 1747 
Q 2906 2381 2643 2742 
Q 2381 3103 1925 3103 
Q 1469 3103 1208 2742 
Q 947 2381 947 1747 
z
M 2906 525 
Q 2725 213 2448 61 
Q 2172 -91 1784 -91 
Q 1150 -91 751 415 
Q 353 922 353 1747 
Q 353 2572 751 3078 
Q 1150 3584 1784 3584 
Q 2172 3584 2448 3432 
Q 2725 3281 2906 2969 
L 2906 3500 
L 3481 3500 
L 3481 -1331 
L 2906 -1331 
L 2906 525 
z
" transform="scale(0.015625)"/>
        <path id="DejaVuSans-31" d="M 794 531 
L 1825 531 
L 1825 4091 
L 703 3866 
L 703 4441 
L 1819 4666 
L 2450 4666 
L 2450 531 
L 3481 531 
L 3481 0 
L 794 0 
L 794 531 
z
" transform="scale(0.015625)"/>
       </defs>
       <use xlink:href="#DejaVuSans-71"/>
       <use xlink:href="#DejaVuSans-31" x="63.476562"/>
      </g>
     </g>
    </g>
    <g id="xtick_2">
     <g id="line2d_2">
      <g>
       <use xlink:href="#m15bcb18cbc" x="117.672814" y="276.8256" style="stroke: #000000; stroke-width: 0.8"/>
      </g>
     </g>
     <g id="text_2">
      <!-- q3 -->
      <g transform="translate(111.317345 291.424038) scale(0.1 -0.1)">
       <defs>
        <path id="DejaVuSans-33" d="M 2597 2516 
Q 3050 2419 3304 2112 
Q 3559 1806 3559 1356 
Q 3559 666 3084 287 
Q 2609 -91 1734 -91 
Q 1441 -91 1130 -33 
Q 819 25 488 141 
L 488 750 
Q 750 597 1062 519 
Q 1375 441 1716 441 
Q 2309 441 2620 675 
Q 2931 909 2931 1356 
Q 2931 1769 2642 2001 
Q 2353 2234 1838 2234 
L 1294 2234 
L 1294 2753 
L 1863 2753 
Q 2328 2753 2575 2939 
Q 2822 3125 2822 3475 
Q 2822 3834 2567 4026 
Q 2313 4219 1838 4219 
Q 1578 4219 1281 4162 
Q 984 4106 628 3988 
L 628 4550 
Q 988 4650 1302 4700 
Q 1616 4750 1894 4750 
Q 2613 4750 3031 4423 
Q 3450 4097 3450 3541 
Q 3450 3153 3228 2886 
Q 3006 2619 2597 2516 
z
" transform="scale(0.015625)"/>
       </defs>
       <use xlink:href="#DejaVuSans-71"/>
       <use xlink:href="#DejaVuSans-33" x="63.476562"/>
      </g>
     </g>
    </g>
    <g id="xtick_3">
     <g id="line2d_3">
      <g>
       <use xlink:href="#m15bcb18cbc" x="140.931647" y="276.8256" style="stroke: #000000; stroke-width: 0.8"/>
      </g>
     </g>
     <g id="text_3">
      <!-- q4 -->
      <g transform="translate(134.576178 291.424038) scale(0.1 -0.1)">
       <defs>
        <path id="DejaVuSans-34" d="M 2419 4116 
L 825 1625 
L 2419 1625 
L 2419 4116 
z
M 2253 4666 
L 3047 4666 
L 3047 1625 
L 3713 1625 
L 3713 1100 
L 3047 1100 
L 3047 0 
L 2419 0 
L 2419 1100 
L 313 1100 
L 313 1709 
L 2253 4666 
z
" transform="scale(0.015625)"/>
       </defs>
       <use xlink:href="#DejaVuSans-71"/>
       <use xlink:href="#DejaVuSans-34" x="63.476562"/>
      </g>
     </g>
    </g>
    <g id="xtick_4">
     <g id="line2d_4">
      <g>
       <use xlink:href="#m15bcb18cbc" x="164.19048" y="276.8256" style="stroke: #000000; stroke-width: 0.8"/>
      </g>
     </g>
     <g id="text_4">
      <!-- q5 -->
      <g transform="translate(157.835012 291.424038) scale(0.1 -0.1)">
       <defs>
        <path id="DejaVuSans-35" d="M 691 4666 
L 3169 4666 
L 3169 4134 
L 1269 4134 
L 1269 2991 
Q 1406 3038 1543 3061 
Q 1681 3084 1819 3084 
Q 2600 3084 3056 2656 
Q 3513 2228 3513 1497 
Q 3513 744 3044 326 
Q 2575 -91 1722 -91 
Q 1428 -91 1123 -41 
Q 819 9 494 109 
L 494 744 
Q 775 591 1075 516 
Q 1375 441 1709 441 
Q 2250 441 2565 725 
Q 2881 1009 2881 1497 
Q 2881 1984 2565 2268 
Q 2250 2553 1709 2553 
Q 1456 2553 1204 2497 
Q 953 2441 691 2322 
L 691 4666 
z
" transform="scale(0.015625)"/>
       </defs>
       <use xlink:href="#DejaVuSans-71"/>
       <use xlink:href="#DejaVuSans-35" x="63.476562"/>
      </g>
     </g>
    </g>
    <g id="xtick_5">
     <g id="line2d_5">
      <g>
       <use xlink:href="#m15bcb18cbc" x="187.449313" y="276.8256" style="stroke: #000000; stroke-width: 0.8"/>
      </g>
     </g>
     <g id="text_5">
      <!-- q6 -->
      <g transform="translate(181.093845 291.424038) scale(0.1 -0.1)">
       <defs>
        <path id="DejaVuSans-36" d="M 2113 2584 
Q 1688 2584 1439 2293 
Q 1191 2003 1191 1497 
Q 1191 994 1439 701 
Q 1688 409 2113 409 
Q 2538 409 2786 701 
Q 3034 994 3034 1497 
Q 3034 2003 2786 2293 
Q 2538 2584 2113 2584 
z
M 3366 4563 
L 3366 3988 
Q 3128 4100 2886 4159 
Q 2644 4219 2406 4219 
Q 1781 4219 1451 3797 
Q 1122 3375 1075 2522 
Q 1259 2794 1537 2939 
Q 1816 3084 2150 3084 
Q 2853 3084 3261 2657 
Q 3669 2231 3669 1497 
Q 3669 778 3244 343 
Q 2819 -91 2113 -91 
Q 1303 -91 875 529 
Q 447 1150 447 2328 
Q 447 3434 972 4092 
Q 1497 4750 2381 4750 
Q 2619 4750 2861 4703 
Q 3103 4656 3366 4563 
z
" transform="scale(0.015625)"/>
       </defs>
       <use xlink:href="#DejaVuSans-71"/>
       <use xlink:href="#DejaVuSans-36" x="63.476562"/>
      </g>
     </g>
    </g>
    <g id="xtick_6">
     <g id="line2d_6">
      <g>
       <use xlink:href="#m15bcb18cbc" x="210.708147" y="276.8256" style="stroke: #000000; stroke-width: 0.8"/>
      </g>
     </g>
     <g id="text_6">
      <!-- q7 -->
      <g transform="translate(204.352678 291.424038) scale(0.1 -0.1)">
       <defs>
        <path id="DejaVuSans-37" d="M 525 4666 
L 3525 4666 
L 3525 4397 
L 1831 0 
L 1172 0 
L 2766 4134 
L 525 4134 
L 525 4666 
z
" transform="scale(0.015625)"/>
       </defs>
       <use xlink:href="#DejaVuSans-71"/>
       <use xlink:href="#DejaVuSans-37" x="63.476562"/>
      </g>
     </g>
    </g>
    <g id="xtick_7">
     <g id="line2d_7">
      <g>
       <use xlink:href="#m15bcb18cbc" x="233.96698" y="276.8256" style="stroke: #000000; stroke-width: 0.8"/>
      </g>
     </g>
     <g id="text_7">
      <!-- q8 -->
      <g transform="translate(227.611511 291.424038) scale(0.1 -0.1)">
       <defs>
        <path id="DejaVuSans-38" d="M 2034 2216 
Q 1584 2216 1326 1975 
Q 1069 1734 1069 1313 
Q 1069 891 1326 650 
Q 1584 409 2034 409 
Q 2484 409 2743 651 
Q 3003 894 3003 1313 
Q 3003 1734 2745 1975 
Q 2488 2216 2034 2216 
z
M 1403 2484 
Q 997 2584 770 2862 
Q 544 3141 544 3541 
Q 544 4100 942 4425 
Q 1341 4750 2034 4750 
Q 2731 4750 3128 4425 
Q 3525 4100 3525 3541 
Q 3525 3141 3298 2862 
Q 3072 2584 2669 2484 
Q 3125 2378 3379 2068 
Q 3634 1759 3634 1313 
Q 3634 634 3220 271 
Q 2806 -91 2034 -91 
Q 1263 -91 848 271 
Q 434 634 434 1313 
Q 434 1759 690 2068 
Q 947 2378 1403 2484 
z
M 1172 3481 
Q 1172 3119 1398 2916 
Q 1625 2713 2034 2713 
Q 2441 2713 2670 2916 
Q 2900 3119 2900 3481 
Q 2900 3844 2670 4047 
Q 2441 4250 2034 4250 
Q 1625 4250 1398 4047 
Q 1172 3844 1172 3481 
z
" transform="scale(0.015625)"/>
       </defs>
       <use xlink:href="#DejaVuSans-71"/>
       <use xlink:href="#DejaVuSans-38" x="63.476562"/>
      </g>
     </g>
    </g>
    <g id="xtick_8">
     <g id="line2d_8">
      <g>
       <use xlink:href="#m15bcb18cbc" x="257.225813" y="276.8256" style="stroke: #000000; stroke-width: 0.8"/>
      </g>
     </g>
     <g id="text_8">
      <!-- q9 -->
      <g transform="translate(250.870344 291.424038) scale(0.1 -0.1)">
       <defs>
        <path id="DejaVuSans-39" d="M 703 97 
L 703 672 
Q 941 559 1184 500 
Q 1428 441 1663 441 
Q 2288 441 2617 861 
Q 2947 1281 2994 2138 
Q 2813 1869 2534 1725 
Q 2256 1581 1919 1581 
Q 1219 1581 811 2004 
Q 403 2428 403 3163 
Q 403 3881 828 4315 
Q 1253 4750 1959 4750 
Q 2769 4750 3195 4129 
Q 3622 3509 3622 2328 
Q 3622 1225 3098 567 
Q 2575 -91 1691 -91 
Q 1453 -91 1209 -44 
Q 966 3 703 97 
z
M 1959 2075 
Q 2384 2075 2632 2365 
Q 2881 2656 2881 3163 
Q 2881 3666 2632 3958 
Q 2384 4250 1959 4250 
Q 1534 4250 1286 3958 
Q 1038 3666 1038 3163 
Q 1038 2656 1286 2365 
Q 1534 2075 1959 2075 
z
" transform="scale(0.015625)"/>
       </defs>
       <use xlink:href="#DejaVuSans-71"/>
       <use xlink:href="#DejaVuSans-39" x="63.476562"/>
      </g>
     </g>
    </g>
    <g id="xtick_9">
     <g id="line2d_9">
      <g>
       <use xlink:href="#m15bcb18cbc" x="280.484646" y="276.8256" style="stroke: #000000; stroke-width: 0.8"/>
      </g>
     </g>
     <g id="text_9">
      <!-- q10 -->
      <g transform="translate(270.947927 291.424038) scale(0.1 -0.1)">
       <defs>
        <path id="DejaVuSans-30" d="M 2034 4250 
Q 1547 4250 1301 3770 
Q 1056 3291 1056 2328 
Q 1056 1369 1301 889 
Q 1547 409 2034 409 
Q 2525 409 2770 889 
Q 3016 1369 3016 2328 
Q 3016 3291 2770 3770 
Q 2525 4250 2034 4250 
z
M 2034 4750 
Q 2819 4750 3233 4129 
Q 3647 3509 3647 2328 
Q 3647 1150 3233 529 
Q 2819 -91 2034 -91 
Q 1250 -91 836 529 
Q 422 1150 422 2328 
Q 422 3509 836 4129 
Q 1250 4750 2034 4750 
z
" transform="scale(0.015625)"/>
       </defs>
       <use xlink:href="#DejaVuSans-71"/>
       <use xlink:href="#DejaVuSans-31" x="63.476562"/>
       <use xlink:href="#DejaVuSans-30" x="127.099609"/>
      </g>
     </g>
    </g>
    <g id="xtick_10">
     <g id="line2d_10">
      <g>
       <use xlink:href="#m15bcb18cbc" x="303.743479" y="276.8256" style="stroke: #000000; stroke-width: 0.8"/>
      </g>
     </g>
     <g id="text_10">
      <!-- q12 -->
      <g transform="translate(294.20676 291.424038) scale(0.1 -0.1)">
       <defs>
        <path id="DejaVuSans-32" d="M 1228 531 
L 3431 531 
L 3431 0 
L 469 0 
L 469 531 
Q 828 903 1448 1529 
Q 2069 2156 2228 2338 
Q 2531 2678 2651 2914 
Q 2772 3150 2772 3378 
Q 2772 3750 2511 3984 
Q 2250 4219 1831 4219 
Q 1534 4219 1204 4116 
Q 875 4013 500 3803 
L 500 4441 
Q 881 4594 1212 4672 
Q 1544 4750 1819 4750 
Q 2544 4750 2975 4387 
Q 3406 4025 3406 3419 
Q 3406 3131 3298 2873 
Q 3191 2616 2906 2266 
Q 2828 2175 2409 1742 
Q 1991 1309 1228 531 
z
" transform="scale(0.015625)"/>
       </defs>
       <use xlink:href="#DejaVuSans-71"/>
       <use xlink:href="#DejaVuSans-31" x="63.476562"/>
       <use xlink:href="#DejaVuSans-32" x="127.099609"/>
      </g>
     </g>
    </g>
    <g id="xtick_11">
     <g id="line2d_11">
      <g>
       <use xlink:href="#m15bcb18cbc" x="327.002312" y="276.8256" style="stroke: #000000; stroke-width: 0.8"/>
      </g>
     </g>
     <g id="text_11">
      <!-- q14 -->
      <g transform="translate(317.465593 291.424038) scale(0.1 -0.1)">
       <use xlink:href="#DejaVuSans-71"/>
       <use xlink:href="#DejaVuSans-31" x="63.476562"/>
       <use xlink:href="#DejaVuSans-34" x="127.099609"/>
      </g>
     </g>
    </g>
    <g id="xtick_12">
     <g id="line2d_12">
      <g>
       <use xlink:href="#m15bcb18cbc" x="350.261145" y="276.8256" style="stroke: #000000; stroke-width: 0.8"/>
      </g>
     </g>
     <g id="text_12">
      <!-- q15 -->
      <g transform="translate(340.724426 291.424038) scale(0.1 -0.1)">
       <use xlink:href="#DejaVuSans-71"/>
       <use xlink:href="#DejaVuSans-31" x="63.476562"/>
       <use xlink:href="#DejaVuSans-35" x="127.099609"/>
      </g>
     </g>
    </g>
    <g id="xtick_13">
     <g id="line2d_13">
      <g>
       <use xlink:href="#m15bcb18cbc" x="373.519978" y="276.8256" style="stroke: #000000; stroke-width: 0.8"/>
      </g>
     </g>
     <g id="text_13">
      <!-- q17 -->
      <g transform="translate(363.98326 291.424038) scale(0.1 -0.1)">
       <use xlink:href="#DejaVuSans-71"/>
       <use xlink:href="#DejaVuSans-31" x="63.476562"/>
       <use xlink:href="#DejaVuSans-37" x="127.099609"/>
      </g>
     </g>
    </g>
    <g id="xtick_14">
     <g id="line2d_14">
      <g>
       <use xlink:href="#m15bcb18cbc" x="396.778811" y="276.8256" style="stroke: #000000; stroke-width: 0.8"/>
      </g>
     </g>
     <g id="text_14">
      <!-- q18 -->
      <g transform="translate(387.242093 291.424038) scale(0.1 -0.1)">
       <use xlink:href="#DejaVuSans-71"/>
       <use xlink:href="#DejaVuSans-31" x="63.476562"/>
       <use xlink:href="#DejaVuSans-38" x="127.099609"/>
      </g>
     </g>
    </g>
    <g id="xtick_15">
     <g id="line2d_15">
      <g>
       <use xlink:href="#m15bcb18cbc" x="420.037645" y="276.8256" style="stroke: #000000; stroke-width: 0.8"/>
      </g>
     </g>
     <g id="text_15">
      <!-- q19 -->
      <g transform="translate(410.500926 291.424038) scale(0.1 -0.1)">
       <use xlink:href="#DejaVuSans-71"/>
       <use xlink:href="#DejaVuSans-31" x="63.476562"/>
       <use xlink:href="#DejaVuSans-39" x="127.099609"/>
      </g>
     </g>
    </g>
    <g id="xtick_16">
     <g id="line2d_16">
      <g>
       <use xlink:href="#m15bcb18cbc" x="443.296478" y="276.8256" style="stroke: #000000; stroke-width: 0.8"/>
      </g>
     </g>
     <g id="text_16">
      <!-- q20 -->
      <g transform="translate(433.759759 291.424038) scale(0.1 -0.1)">
       <use xlink:href="#DejaVuSans-71"/>
       <use xlink:href="#DejaVuSans-32" x="63.476562"/>
       <use xlink:href="#DejaVuSans-30" x="127.099609"/>
      </g>
     </g>
    </g>
    <g id="xtick_17">
     <g id="line2d_17">
      <g>
       <use xlink:href="#m15bcb18cbc" x="466.555311" y="276.8256" style="stroke: #000000; stroke-width: 0.8"/>
      </g>
     </g>
     <g id="text_17">
      <!-- q21 -->
      <g transform="translate(457.018592 291.424038) scale(0.1 -0.1)">
       <use xlink:href="#DejaVuSans-71"/>
       <use xlink:href="#DejaVuSans-32" x="63.476562"/>
       <use xlink:href="#DejaVuSans-31" x="127.099609"/>
      </g>
     </g>
    </g>
   </g>
   <g id="matplotlib.axis_2">
    <g id="ytick_1">
     <g id="line2d_18">
      <path d="M 69.12 276.8256 
L 497.664 276.8256 
" clip-path="url(#p8303bf8e73)" style="fill: none; stroke-dasharray: 2.96,1.28; stroke-dashoffset: 0; stroke: #b0b0b0; stroke-width: 0.8"/>
     </g>
     <g id="line2d_19">
      <defs>
       <path id="m6665f59205" d="M 0 0 
L -3.5 0 
" style="stroke: #000000; stroke-width: 0.8"/>
      </defs>
      <g>
       <use xlink:href="#m6665f59205" x="69.12" y="276.8256" style="stroke: #000000; stroke-width: 0.8"/>
      </g>
     </g>
     <g id="text_18">
      <!-- 0.0 -->
      <g transform="translate(46.216875 280.624819) scale(0.1 -0.1)">
       <defs>
        <path id="DejaVuSans-2e" d="M 684 794 
L 1344 794 
L 1344 0 
L 684 0 
L 684 794 
z
" transform="scale(0.015625)"/>
       </defs>
       <use xlink:href="#DejaVuSans-30"/>
       <use xlink:href="#DejaVuSans-2e" x="63.623047"/>
       <use xlink:href="#DejaVuSans-30" x="95.410156"/>
      </g>
     </g>
    </g>
    <g id="ytick_2">
     <g id="line2d_20">
      <path d="M 69.12 249.649209 
L 497.664 249.649209 
" clip-path="url(#p8303bf8e73)" style="fill: none; stroke-dasharray: 2.96,1.28; stroke-dashoffset: 0; stroke: #b0b0b0; stroke-width: 0.8"/>
     </g>
     <g id="line2d_21">
      <g>
       <use xlink:href="#m6665f59205" x="69.12" y="249.649209" style="stroke: #000000; stroke-width: 0.8"/>
      </g>
     </g>
     <g id="text_19">
      <!-- 2.5 -->
      <g transform="translate(46.216875 253.448428) scale(0.1 -0.1)">
       <use xlink:href="#DejaVuSans-32"/>
       <use xlink:href="#DejaVuSans-2e" x="63.623047"/>
       <use xlink:href="#DejaVuSans-35" x="95.410156"/>
      </g>
     </g>
    </g>
    <g id="ytick_3">
     <g id="line2d_22">
      <path d="M 69.12 222.472819 
L 497.664 222.472819 
" clip-path="url(#p8303bf8e73)" style="fill: none; stroke-dasharray: 2.96,1.28; stroke-dashoffset: 0; stroke: #b0b0b0; stroke-width: 0.8"/>
     </g>
     <g id="line2d_23">
      <g>
       <use xlink:href="#m6665f59205" x="69.12" y="222.472819" style="stroke: #000000; stroke-width: 0.8"/>
      </g>
     </g>
     <g id="text_20">
      <!-- 5.0 -->
      <g transform="translate(46.216875 226.272038) scale(0.1 -0.1)">
       <use xlink:href="#DejaVuSans-35"/>
       <use xlink:href="#DejaVuSans-2e" x="63.623047"/>
       <use xlink:href="#DejaVuSans-30" x="95.410156"/>
      </g>
     </g>
    </g>
    <g id="ytick_4">
     <g id="line2d_24">
      <path d="M 69.12 195.296428 
L 497.664 195.296428 
" clip-path="url(#p8303bf8e73)" style="fill: none; stroke-dasharray: 2.96,1.28; stroke-dashoffset: 0; stroke: #b0b0b0; stroke-width: 0.8"/>
     </g>
     <g id="line2d_25">
      <g>
       <use xlink:href="#m6665f59205" x="69.12" y="195.296428" style="stroke: #000000; stroke-width: 0.8"/>
      </g>
     </g>
     <g id="text_21">
      <!-- 7.5 -->
      <g transform="translate(46.216875 199.095647) scale(0.1 -0.1)">
       <use xlink:href="#DejaVuSans-37"/>
       <use xlink:href="#DejaVuSans-2e" x="63.623047"/>
       <use xlink:href="#DejaVuSans-35" x="95.410156"/>
      </g>
     </g>
    </g>
    <g id="ytick_5">
     <g id="line2d_26">
      <path d="M 69.12 168.120038 
L 497.664 168.120038 
" clip-path="url(#p8303bf8e73)" style="fill: none; stroke-dasharray: 2.96,1.28; stroke-dashoffset: 0; stroke: #b0b0b0; stroke-width: 0.8"/>
     </g>
     <g id="line2d_27">
      <g>
       <use xlink:href="#m6665f59205" x="69.12" y="168.120038" style="stroke: #000000; stroke-width: 0.8"/>
      </g>
     </g>
     <g id="text_22">
      <!-- 10.0 -->
      <g transform="translate(39.854375 171.919257) scale(0.1 -0.1)">
       <use xlink:href="#DejaVuSans-31"/>
       <use xlink:href="#DejaVuSans-30" x="63.623047"/>
       <use xlink:href="#DejaVuSans-2e" x="127.246094"/>
       <use xlink:href="#DejaVuSans-30" x="159.033203"/>
      </g>
     </g>
    </g>
    <g id="ytick_6">
     <g id="line2d_28">
      <path d="M 69.12 140.943647 
L 497.664 140.943647 
" clip-path="url(#p8303bf8e73)" style="fill: none; stroke-dasharray: 2.96,1.28; stroke-dashoffset: 0; stroke: #b0b0b0; stroke-width: 0.8"/>
     </g>
     <g id="line2d_29">
      <g>
       <use xlink:href="#m6665f59205" x="69.12" y="140.943647" style="stroke: #000000; stroke-width: 0.8"/>
      </g>
     </g>
     <g id="text_23">
      <!-- 12.5 -->
      <g transform="translate(39.854375 144.742866) scale(0.1 -0.1)">
       <use xlink:href="#DejaVuSans-31"/>
       <use xlink:href="#DejaVuSans-32" x="63.623047"/>
       <use xlink:href="#DejaVuSans-2e" x="127.246094"/>
       <use xlink:href="#DejaVuSans-35" x="159.033203"/>
      </g>
     </g>
    </g>
    <g id="ytick_7">
     <g id="line2d_30">
      <path d="M 69.12 113.767257 
L 497.664 113.767257 
" clip-path="url(#p8303bf8e73)" style="fill: none; stroke-dasharray: 2.96,1.28; stroke-dashoffset: 0; stroke: #b0b0b0; stroke-width: 0.8"/>
     </g>
     <g id="line2d_31">
      <g>
       <use xlink:href="#m6665f59205" x="69.12" y="113.767257" style="stroke: #000000; stroke-width: 0.8"/>
      </g>
     </g>
     <g id="text_24">
      <!-- 15.0 -->
      <g transform="translate(39.854375 117.566475) scale(0.1 -0.1)">
       <use xlink:href="#DejaVuSans-31"/>
       <use xlink:href="#DejaVuSans-35" x="63.623047"/>
       <use xlink:href="#DejaVuSans-2e" x="127.246094"/>
       <use xlink:href="#DejaVuSans-30" x="159.033203"/>
      </g>
     </g>
    </g>
    <g id="ytick_8">
     <g id="line2d_32">
      <path d="M 69.12 86.590866 
L 497.664 86.590866 
" clip-path="url(#p8303bf8e73)" style="fill: none; stroke-dasharray: 2.96,1.28; stroke-dashoffset: 0; stroke: #b0b0b0; stroke-width: 0.8"/>
     </g>
     <g id="line2d_33">
      <g>
       <use xlink:href="#m6665f59205" x="69.12" y="86.590866" style="stroke: #000000; stroke-width: 0.8"/>
      </g>
     </g>
     <g id="text_25">
      <!-- 17.5 -->
      <g transform="translate(39.854375 90.390085) scale(0.1 -0.1)">
       <use xlink:href="#DejaVuSans-31"/>
       <use xlink:href="#DejaVuSans-37" x="63.623047"/>
       <use xlink:href="#DejaVuSans-2e" x="127.246094"/>
       <use xlink:href="#DejaVuSans-35" x="159.033203"/>
      </g>
     </g>
    </g>
    <g id="ytick_9">
     <g id="line2d_34">
      <path d="M 69.12 59.414476 
L 497.664 59.414476 
" clip-path="url(#p8303bf8e73)" style="fill: none; stroke-dasharray: 2.96,1.28; stroke-dashoffset: 0; stroke: #b0b0b0; stroke-width: 0.8"/>
     </g>
     <g id="line2d_35">
      <g>
       <use xlink:href="#m6665f59205" x="69.12" y="59.414476" style="stroke: #000000; stroke-width: 0.8"/>
      </g>
     </g>
     <g id="text_26">
      <!-- 20.0 -->
      <g transform="translate(39.854375 63.213694) scale(0.1 -0.1)">
       <use xlink:href="#DejaVuSans-32"/>
       <use xlink:href="#DejaVuSans-30" x="63.623047"/>
       <use xlink:href="#DejaVuSans-2e" x="127.246094"/>
       <use xlink:href="#DejaVuSans-30" x="159.033203"/>
      </g>
     </g>
    </g>
    <g id="text_27">
     <!-- latency (s) -->
     <g transform="translate(33.774687 183.5377) rotate(-90) scale(0.1 -0.1)">
      <defs>
       <path id="DejaVuSans-6c" d="M 603 4863 
L 1178 4863 
L 1178 0 
L 603 0 
L 603 4863 
z
" transform="scale(0.015625)"/>
       <path id="DejaVuSans-61" d="M 2194 1759 
Q 1497 1759 1228 1600 
Q 959 1441 959 1056 
Q 959 750 1161 570 
Q 1363 391 1709 391 
Q 2188 391 2477 730 
Q 2766 1069 2766 1631 
L 2766 1759 
L 2194 1759 
z
M 3341 1997 
L 3341 0 
L 2766 0 
L 2766 531 
Q 2569 213 2275 61 
Q 1981 -91 1556 -91 
Q 1019 -91 701 211 
Q 384 513 384 1019 
Q 384 1609 779 1909 
Q 1175 2209 1959 2209 
L 2766 2209 
L 2766 2266 
Q 2766 2663 2505 2880 
Q 2244 3097 1772 3097 
Q 1472 3097 1187 3025 
Q 903 2953 641 2809 
L 641 3341 
Q 956 3463 1253 3523 
Q 1550 3584 1831 3584 
Q 2591 3584 2966 3190 
Q 3341 2797 3341 1997 
z
" transform="scale(0.015625)"/>
       <path id="DejaVuSans-74" d="M 1172 4494 
L 1172 3500 
L 2356 3500 
L 2356 3053 
L 1172 3053 
L 1172 1153 
Q 1172 725 1289 603 
Q 1406 481 1766 481 
L 2356 481 
L 2356 0 
L 1766 0 
Q 1100 0 847 248 
Q 594 497 594 1153 
L 594 3053 
L 172 3053 
L 172 3500 
L 594 3500 
L 594 4494 
L 1172 4494 
z
" transform="scale(0.015625)"/>
       <path id="DejaVuSans-65" d="M 3597 1894 
L 3597 1613 
L 953 1613 
Q 991 1019 1311 708 
Q 1631 397 2203 397 
Q 2534 397 2845 478 
Q 3156 559 3463 722 
L 3463 178 
Q 3153 47 2828 -22 
Q 2503 -91 2169 -91 
Q 1331 -91 842 396 
Q 353 884 353 1716 
Q 353 2575 817 3079 
Q 1281 3584 2069 3584 
Q 2775 3584 3186 3129 
Q 3597 2675 3597 1894 
z
M 3022 2063 
Q 3016 2534 2758 2815 
Q 2500 3097 2075 3097 
Q 1594 3097 1305 2825 
Q 1016 2553 972 2059 
L 3022 2063 
z
" transform="scale(0.015625)"/>
       <path id="DejaVuSans-6e" d="M 3513 2113 
L 3513 0 
L 2938 0 
L 2938 2094 
Q 2938 2591 2744 2837 
Q 2550 3084 2163 3084 
Q 1697 3084 1428 2787 
Q 1159 2491 1159 1978 
L 1159 0 
L 581 0 
L 581 3500 
L 1159 3500 
L 1159 2956 
Q 1366 3272 1645 3428 
Q 1925 3584 2291 3584 
Q 2894 3584 3203 3211 
Q 3513 2838 3513 2113 
z
" transform="scale(0.015625)"/>
       <path id="DejaVuSans-63" d="M 3122 3366 
L 3122 2828 
Q 2878 2963 2633 3030 
Q 2388 3097 2138 3097 
Q 1578 3097 1268 2742 
Q 959 2388 959 1747 
Q 959 1106 1268 751 
Q 1578 397 2138 397 
Q 2388 397 2633 464 
Q 2878 531 3122 666 
L 3122 134 
Q 2881 22 2623 -34 
Q 2366 -91 2075 -91 
Q 1284 -91 818 406 
Q 353 903 353 1747 
Q 353 2603 823 3093 
Q 1294 3584 2113 3584 
Q 2378 3584 2631 3529 
Q 2884 3475 3122 3366 
z
" transform="scale(0.015625)"/>
       <path id="DejaVuSans-79" d="M 2059 -325 
Q 1816 -950 1584 -1140 
Q 1353 -1331 966 -1331 
L 506 -1331 
L 506 -850 
L 844 -850 
Q 1081 -850 1212 -737 
Q 1344 -625 1503 -206 
L 1606 56 
L 191 3500 
L 800 3500 
L 1894 763 
L 2988 3500 
L 3597 3500 
L 2059 -325 
z
" transform="scale(0.015625)"/>
       <path id="DejaVuSans-20" transform="scale(0.015625)"/>
       <path id="DejaVuSans-28" d="M 1984 4856 
Q 1566 4138 1362 3434 
Q 1159 2731 1159 2009 
Q 1159 1288 1364 580 
Q 1569 -128 1984 -844 
L 1484 -844 
Q 1016 -109 783 600 
Q 550 1309 550 2009 
Q 550 2706 781 3412 
Q 1013 4119 1484 4856 
L 1984 4856 
z
" transform="scale(0.015625)"/>
       <path id="DejaVuSans-73" d="M 2834 3397 
L 2834 2853 
Q 2591 2978 2328 3040 
Q 2066 3103 1784 3103 
Q 1356 3103 1142 2972 
Q 928 2841 928 2578 
Q 928 2378 1081 2264 
Q 1234 2150 1697 2047 
L 1894 2003 
Q 2506 1872 2764 1633 
Q 3022 1394 3022 966 
Q 3022 478 2636 193 
Q 2250 -91 1575 -91 
Q 1294 -91 989 -36 
Q 684 19 347 128 
L 347 722 
Q 666 556 975 473 
Q 1284 391 1588 391 
Q 1994 391 2212 530 
Q 2431 669 2431 922 
Q 2431 1156 2273 1281 
Q 2116 1406 1581 1522 
L 1381 1569 
Q 847 1681 609 1914 
Q 372 2147 372 2553 
Q 372 3047 722 3315 
Q 1072 3584 1716 3584 
Q 2034 3584 2315 3537 
Q 2597 3491 2834 3397 
z
" transform="scale(0.015625)"/>
       <path id="DejaVuSans-29" d="M 513 4856 
L 1013 4856 
Q 1481 4119 1714 3412 
Q 1947 2706 1947 2009 
Q 1947 1309 1714 600 
Q 1481 -109 1013 -844 
L 513 -844 
Q 928 -128 1133 580 
Q 1338 1288 1338 2009 
Q 1338 2731 1133 3434 
Q 928 4138 513 4856 
z
" transform="scale(0.015625)"/>
      </defs>
      <use xlink:href="#DejaVuSans-6c"/>
      <use xlink:href="#DejaVuSans-61" x="27.783203"/>
      <use xlink:href="#DejaVuSans-74" x="89.0625"/>
      <use xlink:href="#DejaVuSans-65" x="128.271484"/>
      <use xlink:href="#DejaVuSans-6e" x="189.794922"/>
      <use xlink:href="#DejaVuSans-63" x="253.173828"/>
      <use xlink:href="#DejaVuSans-79" x="308.154297"/>
      <use xlink:href="#DejaVuSans-20" x="367.333984"/>
      <use xlink:href="#DejaVuSans-28" x="399.121094"/>
      <use xlink:href="#DejaVuSans-73" x="438.134766"/>
      <use xlink:href="#DejaVuSans-29" x="490.234375"/>
     </g>
    </g>
   </g>
   <g id="patch_105">
    <path d="M 69.12 276.8256 
L 69.12 37.3248 
" style="fill: none; stroke: #000000; stroke-width: 0.8; stroke-linejoin: miter; stroke-linecap: square"/>
   </g>
   <g id="patch_106">
    <path d="M 497.664 276.8256 
L 497.664 37.3248 
" style="fill: none; stroke: #000000; stroke-width: 0.8; stroke-linejoin: miter; stroke-linecap: square"/>
   </g>
   <g id="patch_107">
    <path d="M 69.12 276.8256 
L 497.664 276.8256 
" style="fill: none; stroke: #000000; stroke-width: 0.8; stroke-linejoin: miter; stroke-linecap: square"/>
   </g>
   <g id="patch_108">
    <path d="M 69.12 37.3248 
L 497.664 37.3248 
" style="fill: none; stroke: #000000; stroke-width: 0.8; stroke-linejoin: miter; stroke-linecap: square"/>
   </g>
   <g id="text_28">
    <!-- TPC-H (sf=20, t=1) DuckDB -->
    <g transform="translate(199.902938 31.3248) scale(0.12 -0.12)">
     <defs>
      <path id="DejaVuSans-54" d="M -19 4666 
L 3928 4666 
L 3928 4134 
L 2272 4134 
L 2272 0 
L 1638 0 
L 1638 4134 
L -19 4134 
L -19 4666 
z
" transform="scale(0.015625)"/>
      <path id="DejaVuSans-50" d="M 1259 4147 
L 1259 2394 
L 2053 2394 
Q 2494 2394 2734 2622 
Q 2975 2850 2975 3272 
Q 2975 3691 2734 3919 
Q 2494 4147 2053 4147 
L 1259 4147 
z
M 628 4666 
L 2053 4666 
Q 2838 4666 3239 4311 
Q 3641 3956 3641 3272 
Q 3641 2581 3239 2228 
Q 2838 1875 2053 1875 
L 1259 1875 
L 1259 0 
L 628 0 
L 628 4666 
z
" transform="scale(0.015625)"/>
      <path id="DejaVuSans-43" d="M 4122 4306 
L 4122 3641 
Q 3803 3938 3442 4084 
Q 3081 4231 2675 4231 
Q 1875 4231 1450 3742 
Q 1025 3253 1025 2328 
Q 1025 1406 1450 917 
Q 1875 428 2675 428 
Q 3081 428 3442 575 
Q 3803 722 4122 1019 
L 4122 359 
Q 3791 134 3420 21 
Q 3050 -91 2638 -91 
Q 1578 -91 968 557 
Q 359 1206 359 2328 
Q 359 3453 968 4101 
Q 1578 4750 2638 4750 
Q 3056 4750 3426 4639 
Q 3797 4528 4122 4306 
z
" transform="scale(0.015625)"/>
      <path id="DejaVuSans-2d" d="M 313 2009 
L 1997 2009 
L 1997 1497 
L 313 1497 
L 313 2009 
z
" transform="scale(0.015625)"/>
      <path id="DejaVuSans-48" d="M 628 4666 
L 1259 4666 
L 1259 2753 
L 3553 2753 
L 3553 4666 
L 4184 4666 
L 4184 0 
L 3553 0 
L 3553 2222 
L 1259 2222 
L 1259 0 
L 628 0 
L 628 4666 
z
" transform="scale(0.015625)"/>
      <path id="DejaVuSans-66" d="M 2375 4863 
L 2375 4384 
L 1825 4384 
Q 1516 4384 1395 4259 
Q 1275 4134 1275 3809 
L 1275 3500 
L 2222 3500 
L 2222 3053 
L 1275 3053 
L 1275 0 
L 697 0 
L 697 3053 
L 147 3053 
L 147 3500 
L 697 3500 
L 697 3744 
Q 697 4328 969 4595 
Q 1241 4863 1831 4863 
L 2375 4863 
z
" transform="scale(0.015625)"/>
      <path id="DejaVuSans-3d" d="M 678 2906 
L 4684 2906 
L 4684 2381 
L 678 2381 
L 678 2906 
z
M 678 1631 
L 4684 1631 
L 4684 1100 
L 678 1100 
L 678 1631 
z
" transform="scale(0.015625)"/>
      <path id="DejaVuSans-2c" d="M 750 794 
L 1409 794 
L 1409 256 
L 897 -744 
L 494 -744 
L 750 256 
L 750 794 
z
" transform="scale(0.015625)"/>
      <path id="DejaVuSans-44" d="M 1259 4147 
L 1259 519 
L 2022 519 
Q 2988 519 3436 956 
Q 3884 1394 3884 2338 
Q 3884 3275 3436 3711 
Q 2988 4147 2022 4147 
L 1259 4147 
z
M 628 4666 
L 1925 4666 
Q 3281 4666 3915 4102 
Q 4550 3538 4550 2338 
Q 4550 1131 3912 565 
Q 3275 0 1925 0 
L 628 0 
L 628 4666 
z
" transform="scale(0.015625)"/>
      <path id="DejaVuSans-75" d="M 544 1381 
L 544 3500 
L 1119 3500 
L 1119 1403 
Q 1119 906 1312 657 
Q 1506 409 1894 409 
Q 2359 409 2629 706 
Q 2900 1003 2900 1516 
L 2900 3500 
L 3475 3500 
L 3475 0 
L 2900 0 
L 2900 538 
Q 2691 219 2414 64 
Q 2138 -91 1772 -91 
Q 1169 -91 856 284 
Q 544 659 544 1381 
z
M 1991 3584 
L 1991 3584 
z
" transform="scale(0.015625)"/>
      <path id="DejaVuSans-6b" d="M 581 4863 
L 1159 4863 
L 1159 1991 
L 2875 3500 
L 3609 3500 
L 1753 1863 
L 3688 0 
L 2938 0 
L 1159 1709 
L 1159 0 
L 581 0 
L 581 4863 
z
" transform="scale(0.015625)"/>
      <path id="DejaVuSans-42" d="M 1259 2228 
L 1259 519 
L 2272 519 
Q 2781 519 3026 730 
Q 3272 941 3272 1375 
Q 3272 1813 3026 2020 
Q 2781 2228 2272 2228 
L 1259 2228 
z
M 1259 4147 
L 1259 2741 
L 2194 2741 
Q 2656 2741 2882 2914 
Q 3109 3088 3109 3444 
Q 3109 3797 2882 3972 
Q 2656 4147 2194 4147 
L 1259 4147 
z
M 628 4666 
L 2241 4666 
Q 2963 4666 3353 4366 
Q 3744 4066 3744 3513 
Q 3744 3084 3544 2831 
Q 3344 2578 2956 2516 
Q 3422 2416 3680 2098 
Q 3938 1781 3938 1306 
Q 3938 681 3513 340 
Q 3088 0 2303 0 
L 628 0 
L 628 4666 
z
" transform="scale(0.015625)"/>
     </defs>
     <use xlink:href="#DejaVuSans-54"/>
     <use xlink:href="#DejaVuSans-50" x="61.083984"/>
     <use xlink:href="#DejaVuSans-43" x="121.386719"/>
     <use xlink:href="#DejaVuSans-2d" x="191.210938"/>
     <use xlink:href="#DejaVuSans-48" x="227.294922"/>
     <use xlink:href="#DejaVuSans-20" x="302.490234"/>
     <use xlink:href="#DejaVuSans-28" x="334.277344"/>
     <use xlink:href="#DejaVuSans-73" x="373.291016"/>
     <use xlink:href="#DejaVuSans-66" x="425.390625"/>
     <use xlink:href="#DejaVuSans-3d" x="460.595703"/>
     <use xlink:href="#DejaVuSans-32" x="544.384766"/>
     <use xlink:href="#DejaVuSans-30" x="608.007812"/>
     <use xlink:href="#DejaVuSans-2c" x="671.630859"/>
     <use xlink:href="#DejaVuSans-20" x="703.417969"/>
     <use xlink:href="#DejaVuSans-74" x="735.205078"/>
     <use xlink:href="#DejaVuSans-3d" x="774.414062"/>
     <use xlink:href="#DejaVuSans-31" x="858.203125"/>
     <use xlink:href="#DejaVuSans-29" x="921.826172"/>
     <use xlink:href="#DejaVuSans-20" x="960.839844"/>
     <use xlink:href="#DejaVuSans-44" x="992.626953"/>
     <use xlink:href="#DejaVuSans-75" x="1069.628906"/>
     <use xlink:href="#DejaVuSans-63" x="1133.007812"/>
     <use xlink:href="#DejaVuSans-6b" x="1187.988281"/>
     <use xlink:href="#DejaVuSans-44" x="1245.898438"/>
     <use xlink:href="#DejaVuSans-42" x="1322.900391"/>
    </g>
   </g>
   <g id="legend_1">
    <g id="patch_109">
     <path d="M 73.32 107.644175 
L 135.25125 107.644175 
Q 136.45125 107.644175 136.45125 106.444175 
L 136.45125 41.5248 
Q 136.45125 40.3248 135.25125 40.3248 
L 73.32 40.3248 
Q 72.12 40.3248 72.12 41.5248 
L 72.12 106.444175 
Q 72.12 107.644175 73.32 107.644175 
z
" style="fill: #ffffff; opacity: 0.8; stroke: #cccccc; stroke-linejoin: miter"/>
    </g>
    <g id="text_29">
     <!-- lineitem -->
     <g transform="translate(83.966094 50.323237) scale(0.1 -0.1)">
      <defs>
       <path id="DejaVuSans-69" d="M 603 3500 
L 1178 3500 
L 1178 0 
L 603 0 
L 603 3500 
z
M 603 4863 
L 1178 4863 
L 1178 4134 
L 603 4134 
L 603 4863 
z
" transform="scale(0.015625)"/>
       <path id="DejaVuSans-6d" d="M 3328 2828 
Q 3544 3216 3844 3400 
Q 4144 3584 4550 3584 
Q 5097 3584 5394 3201 
Q 5691 2819 5691 2113 
L 5691 0 
L 5113 0 
L 5113 2094 
Q 5113 2597 4934 2840 
Q 4756 3084 4391 3084 
Q 3944 3084 3684 2787 
Q 3425 2491 3425 1978 
L 3425 0 
L 2847 0 
L 2847 2094 
Q 2847 2600 2669 2842 
Q 2491 3084 2119 3084 
Q 1678 3084 1418 2786 
Q 1159 2488 1159 1978 
L 1159 0 
L 581 0 
L 581 3500 
L 1159 3500 
L 1159 2956 
Q 1356 3278 1631 3431 
Q 1906 3584 2284 3584 
Q 2666 3584 2933 3390 
Q 3200 3197 3328 2828 
z
" transform="scale(0.015625)"/>
      </defs>
      <use xlink:href="#DejaVuSans-6c"/>
      <use xlink:href="#DejaVuSans-69" x="27.783203"/>
      <use xlink:href="#DejaVuSans-6e" x="55.566406"/>
      <use xlink:href="#DejaVuSans-65" x="118.945312"/>
      <use xlink:href="#DejaVuSans-69" x="180.46875"/>
      <use xlink:href="#DejaVuSans-74" x="208.251953"/>
      <use xlink:href="#DejaVuSans-65" x="247.460938"/>
      <use xlink:href="#DejaVuSans-6d" x="308.984375"/>
     </g>
    </g>
    <g id="patch_110">
     <path d="M 74.52 59.961987 
L 86.52 59.961987 
L 86.52 55.761987 
L 74.52 55.761987 
z
" style="fill: #cc1100"/>
    </g>
    <g id="text_30">
     <!-- ignition scan -->
     <g transform="translate(91.32 59.961987) scale(0.06 -0.06)">
      <defs>
       <path id="DejaVuSans-67" d="M 2906 1791 
Q 2906 2416 2648 2759 
Q 2391 3103 1925 3103 
Q 1463 3103 1205 2759 
Q 947 2416 947 1791 
Q 947 1169 1205 825 
Q 1463 481 1925 481 
Q 2391 481 2648 825 
Q 2906 1169 2906 1791 
z
M 3481 434 
Q 3481 -459 3084 -895 
Q 2688 -1331 1869 -1331 
Q 1566 -1331 1297 -1286 
Q 1028 -1241 775 -1147 
L 775 -588 
Q 1028 -725 1275 -790 
Q 1522 -856 1778 -856 
Q 2344 -856 2625 -561 
Q 2906 -266 2906 331 
L 2906 616 
Q 2728 306 2450 153 
Q 2172 0 1784 0 
Q 1141 0 747 490 
Q 353 981 353 1791 
Q 353 2603 747 3093 
Q 1141 3584 1784 3584 
Q 2172 3584 2450 3431 
Q 2728 3278 2906 2969 
L 2906 3500 
L 3481 3500 
L 3481 434 
z
" transform="scale(0.015625)"/>
       <path id="DejaVuSans-6f" d="M 1959 3097 
Q 1497 3097 1228 2736 
Q 959 2375 959 1747 
Q 959 1119 1226 758 
Q 1494 397 1959 397 
Q 2419 397 2687 759 
Q 2956 1122 2956 1747 
Q 2956 2369 2687 2733 
Q 2419 3097 1959 3097 
z
M 1959 3584 
Q 2709 3584 3137 3096 
Q 3566 2609 3566 1747 
Q 3566 888 3137 398 
Q 2709 -91 1959 -91 
Q 1206 -91 779 398 
Q 353 888 353 1747 
Q 353 2609 779 3096 
Q 1206 3584 1959 3584 
z
" transform="scale(0.015625)"/>
      </defs>
      <use xlink:href="#DejaVuSans-69"/>
      <use xlink:href="#DejaVuSans-67" x="27.783203"/>
      <use xlink:href="#DejaVuSans-6e" x="91.259766"/>
      <use xlink:href="#DejaVuSans-69" x="154.638672"/>
      <use xlink:href="#DejaVuSans-74" x="182.421875"/>
      <use xlink:href="#DejaVuSans-69" x="221.630859"/>
      <use xlink:href="#DejaVuSans-6f" x="249.414062"/>
      <use xlink:href="#DejaVuSans-6e" x="310.595703"/>
      <use xlink:href="#DejaVuSans-20" x="373.974609"/>
      <use xlink:href="#DejaVuSans-73" x="405.761719"/>
      <use xlink:href="#DejaVuSans-63" x="457.861328"/>
      <use xlink:href="#DejaVuSans-61" x="512.841797"/>
      <use xlink:href="#DejaVuSans-6e" x="574.121094"/>
     </g>
    </g>
    <g id="patch_111">
     <path d="M 74.52 68.768862 
L 86.52 68.768862 
L 86.52 64.568862 
L 74.52 64.568862 
z
" style="fill: #ff4400"/>
    </g>
    <g id="text_31">
     <!-- ignition query -->
     <g transform="translate(91.32 68.768862) scale(0.06 -0.06)">
      <defs>
       <path id="DejaVuSans-72" d="M 2631 2963 
Q 2534 3019 2420 3045 
Q 2306 3072 2169 3072 
Q 1681 3072 1420 2755 
Q 1159 2438 1159 1844 
L 1159 0 
L 581 0 
L 581 3500 
L 1159 3500 
L 1159 2956 
Q 1341 3275 1631 3429 
Q 1922 3584 2338 3584 
Q 2397 3584 2469 3576 
Q 2541 3569 2628 3553 
L 2631 2963 
z
" transform="scale(0.015625)"/>
      </defs>
      <use xlink:href="#DejaVuSans-69"/>
      <use xlink:href="#DejaVuSans-67" x="27.783203"/>
      <use xlink:href="#DejaVuSans-6e" x="91.259766"/>
      <use xlink:href="#DejaVuSans-69" x="154.638672"/>
      <use xlink:href="#DejaVuSans-74" x="182.421875"/>
      <use xlink:href="#DejaVuSans-69" x="221.630859"/>
      <use xlink:href="#DejaVuSans-6f" x="249.414062"/>
      <use xlink:href="#DejaVuSans-6e" x="310.595703"/>
      <use xlink:href="#DejaVuSans-20" x="373.974609"/>
      <use xlink:href="#DejaVuSans-71" x="405.761719"/>
      <use xlink:href="#DejaVuSans-75" x="469.238281"/>
      <use xlink:href="#DejaVuSans-65" x="532.617188"/>
      <use xlink:href="#DejaVuSans-72" x="594.140625"/>
      <use xlink:href="#DejaVuSans-79" x="635.253906"/>
     </g>
    </g>
    <g id="patch_112">
     <path d="M 74.52 77.575737 
L 86.52 77.575737 
L 86.52 73.375737 
L 74.52 73.375737 
z
" style="fill: #0067c0"/>
    </g>
    <g id="text_32">
     <!-- parquet scan -->
     <g transform="translate(91.32 77.575737) scale(0.06 -0.06)">
      <defs>
       <path id="DejaVuSans-70" d="M 1159 525 
L 1159 -1331 
L 581 -1331 
L 581 3500 
L 1159 3500 
L 1159 2969 
Q 1341 3281 1617 3432 
Q 1894 3584 2278 3584 
Q 2916 3584 3314 3078 
Q 3713 2572 3713 1747 
Q 3713 922 3314 415 
Q 2916 -91 2278 -91 
Q 1894 -91 1617 61 
Q 1341 213 1159 525 
z
M 3116 1747 
Q 3116 2381 2855 2742 
Q 2594 3103 2138 3103 
Q 1681 3103 1420 2742 
Q 1159 2381 1159 1747 
Q 1159 1113 1420 752 
Q 1681 391 2138 391 
Q 2594 391 2855 752 
Q 3116 1113 3116 1747 
z
" transform="scale(0.015625)"/>
      </defs>
      <use xlink:href="#DejaVuSans-70"/>
      <use xlink:href="#DejaVuSans-61" x="63.476562"/>
      <use xlink:href="#DejaVuSans-72" x="124.755859"/>
      <use xlink:href="#DejaVuSans-71" x="164.119141"/>
      <use xlink:href="#DejaVuSans-75" x="227.595703"/>
      <use xlink:href="#DejaVuSans-65" x="290.974609"/>
      <use xlink:href="#DejaVuSans-74" x="352.498047"/>
      <use xlink:href="#DejaVuSans-20" x="391.707031"/>
      <use xlink:href="#DejaVuSans-73" x="423.494141"/>
      <use xlink:href="#DejaVuSans-63" x="475.59375"/>
      <use xlink:href="#DejaVuSans-61" x="530.574219"/>
      <use xlink:href="#DejaVuSans-6e" x="591.853516"/>
     </g>
    </g>
    <g id="patch_113">
     <path d="M 74.52 86.382612 
L 86.52 86.382612 
L 86.52 82.182612 
L 74.52 82.182612 
z
" style="fill: #069af3"/>
    </g>
    <g id="text_33">
     <!-- parquet query -->
     <g transform="translate(91.32 86.382612) scale(0.06 -0.06)">
      <use xlink:href="#DejaVuSans-70"/>
      <use xlink:href="#DejaVuSans-61" x="63.476562"/>
      <use xlink:href="#DejaVuSans-72" x="124.755859"/>
      <use xlink:href="#DejaVuSans-71" x="164.119141"/>
      <use xlink:href="#DejaVuSans-75" x="227.595703"/>
      <use xlink:href="#DejaVuSans-65" x="290.974609"/>
      <use xlink:href="#DejaVuSans-74" x="352.498047"/>
      <use xlink:href="#DejaVuSans-20" x="391.707031"/>
      <use xlink:href="#DejaVuSans-71" x="423.494141"/>
      <use xlink:href="#DejaVuSans-75" x="486.970703"/>
      <use xlink:href="#DejaVuSans-65" x="550.349609"/>
      <use xlink:href="#DejaVuSans-72" x="611.873047"/>
      <use xlink:href="#DejaVuSans-79" x="652.986328"/>
     </g>
    </g>
    <g id="patch_114">
     <path d="M 74.52 95.189487 
L 86.52 95.189487 
L 86.52 90.989487 
L 74.52 90.989487 
z
" style="fill: #cccc00"/>
    </g>
    <g id="text_34">
     <!-- table scan -->
     <g transform="translate(91.32 95.189487) scale(0.06 -0.06)">
      <defs>
       <path id="DejaVuSans-62" d="M 3116 1747 
Q 3116 2381 2855 2742 
Q 2594 3103 2138 3103 
Q 1681 3103 1420 2742 
Q 1159 2381 1159 1747 
Q 1159 1113 1420 752 
Q 1681 391 2138 391 
Q 2594 391 2855 752 
Q 3116 1113 3116 1747 
z
M 1159 2969 
Q 1341 3281 1617 3432 
Q 1894 3584 2278 3584 
Q 2916 3584 3314 3078 
Q 3713 2572 3713 1747 
Q 3713 922 3314 415 
Q 2916 -91 2278 -91 
Q 1894 -91 1617 61 
Q 1341 213 1159 525 
L 1159 0 
L 581 0 
L 581 4863 
L 1159 4863 
L 1159 2969 
z
" transform="scale(0.015625)"/>
      </defs>
      <use xlink:href="#DejaVuSans-74"/>
      <use xlink:href="#DejaVuSans-61" x="39.208984"/>
      <use xlink:href="#DejaVuSans-62" x="100.488281"/>
      <use xlink:href="#DejaVuSans-6c" x="163.964844"/>
      <use xlink:href="#DejaVuSans-65" x="191.748047"/>
      <use xlink:href="#DejaVuSans-20" x="253.271484"/>
      <use xlink:href="#DejaVuSans-73" x="285.058594"/>
      <use xlink:href="#DejaVuSans-63" x="337.158203"/>
      <use xlink:href="#DejaVuSans-61" x="392.138672"/>
      <use xlink:href="#DejaVuSans-6e" x="453.417969"/>
     </g>
    </g>
    <g id="patch_115">
     <path d="M 74.52 103.996362 
L 86.52 103.996362 
L 86.52 99.796362 
L 74.52 99.796362 
z
" style="fill: #ffff00"/>
    </g>
    <g id="text_35">
     <!-- table query -->
     <g transform="translate(91.32 103.996362) scale(0.06 -0.06)">
      <use xlink:href="#DejaVuSans-74"/>
      <use xlink:href="#DejaVuSans-61" x="39.208984"/>
      <use xlink:href="#DejaVuSans-62" x="100.488281"/>
      <use xlink:href="#DejaVuSans-6c" x="163.964844"/>
      <use xlink:href="#DejaVuSans-65" x="191.748047"/>
      <use xlink:href="#DejaVuSans-20" x="253.271484"/>
      <use xlink:href="#DejaVuSans-71" x="285.058594"/>
      <use xlink:href="#DejaVuSans-75" x="348.535156"/>
      <use xlink:href="#DejaVuSans-65" x="411.914062"/>
      <use xlink:href="#DejaVuSans-72" x="473.4375"/>
      <use xlink:href="#DejaVuSans-79" x="514.550781"/>
     </g>
    </g>
   </g>
  </g>
 </g>
 <defs>
  <clipPath id="p8303bf8e73">
   <rect x="69.12" y="37.3248" width="428.544" height="239.5008"/>
  </clipPath>
 </defs>
</svg>
