<?xml version="1.0" encoding="utf-8" standalone="no"?>
<!DOCTYPE svg PUBLIC "-//W3C//DTD SVG 1.1//EN"
  "http://www.w3.org/Graphics/SVG/1.1/DTD/svg11.dtd">
<svg xmlns:xlink="http://www.w3.org/1999/xlink" width="624.96pt" height="383.04pt" viewBox="0 0 624.96 383.04" xmlns="http://www.w3.org/2000/svg" version="1.1">
 <metadata>
  <rdf:RDF xmlns:dc="http://purl.org/dc/elements/1.1/" xmlns:cc="http://creativecommons.org/ns#" xmlns:rdf="http://www.w3.org/1999/02/22-rdf-syntax-ns#">
   <cc:Work>
    <dc:type rdf:resource="http://purl.org/dc/dcmitype/StillImage"/>
    <dc:date>2024-11-20T10:46:54.127250</dc:date>
    <dc:format>image/svg+xml</dc:format>
    <dc:creator>
     <cc:Agent>
      <dc:title>Matplotlib v3.6.3, https://matplotlib.org/</dc:title>
     </cc:Agent>
    </dc:creator>
   </cc:Work>
  </rdf:RDF>
 </metadata>
 <defs>
  <style type="text/css">*{stroke-linejoin: round; stroke-linecap: butt}</style>
 </defs>
 <g id="figure_1">
  <g id="patch_1">
   <path d="M 0 383.04 
L 624.96 383.04 
L 624.96 0 
L 0 0 
z
" style="fill: #ffffff"/>
  </g>
  <g id="axes_1">
   <g id="patch_2">
    <path d="M 78.12 340.9056 
L 562.464 340.9056 
L 562.464 45.9648 
L 78.12 45.9648 
z
" style="fill: #ffffff"/>
   </g>
   <g id="patch_3">
    <path d="M 100.135636 340.9056 
L 109.414257 340.9056 
L 109.414257 78.807513 
L 100.135636 78.807513 
z
" clip-path="url(#pbb7931a352)" style="fill: #ff0000"/>
   </g>
   <g id="patch_4">
    <path d="M 128.252669 340.9056 
L 137.531289 340.9056 
L 137.531289 85.095377 
L 128.252669 85.095377 
z
" clip-path="url(#pbb7931a352)" style="fill: #ff0000"/>
   </g>
   <g id="patch_5">
    <path d="M 156.369701 340.9056 
L 165.648322 340.9056 
L 165.648322 84.365855 
L 156.369701 84.365855 
z
" clip-path="url(#pbb7931a352)" style="fill: #ff0000"/>
   </g>
   <g id="patch_6">
    <path d="M 184.486734 340.9056 
L 193.765354 340.9056 
L 193.765354 61.530318 
L 184.486734 61.530318 
z
" clip-path="url(#pbb7931a352)" style="fill: #ff0000"/>
   </g>
   <g id="patch_7">
    <path d="M 212.603766 340.9056 
L 221.882387 340.9056 
L 221.882387 86.324312 
L 212.603766 86.324312 
z
" clip-path="url(#pbb7931a352)" style="fill: #ff0000"/>
   </g>
   <g id="patch_8">
    <path d="M 240.720798 340.9056 
L 249.999419 340.9056 
L 249.999419 83.886539 
L 240.720798 83.886539 
z
" clip-path="url(#pbb7931a352)" style="fill: #ff0000"/>
   </g>
   <g id="patch_9">
    <path d="M 268.837831 340.9056 
L 278.116451 340.9056 
L 278.116451 84.922518 
L 268.837831 84.922518 
z
" clip-path="url(#pbb7931a352)" style="fill: #ff0000"/>
   </g>
   <g id="patch_10">
    <path d="M 296.954863 340.9056 
L 306.233484 340.9056 
L 306.233484 85.658524 
L 296.954863 85.658524 
z
" clip-path="url(#pbb7931a352)" style="fill: #ff0000"/>
   </g>
   <g id="patch_11">
    <path d="M 325.071896 340.9056 
L 334.350516 340.9056 
L 334.350516 85.274224 
L 325.071896 85.274224 
z
" clip-path="url(#pbb7931a352)" style="fill: #ff0000"/>
   </g>
   <g id="patch_12">
    <path d="M 353.188928 340.9056 
L 362.467549 340.9056 
L 362.467549 84.66956 
L 353.188928 84.66956 
z
" clip-path="url(#pbb7931a352)" style="fill: #ff0000"/>
   </g>
   <g id="patch_13">
    <path d="M 381.30596 340.9056 
L 390.584581 340.9056 
L 390.584581 83.471263 
L 381.30596 83.471263 
z
" clip-path="url(#pbb7931a352)" style="fill: #ff0000"/>
   </g>
   <g id="patch_14">
    <path d="M 409.422993 340.9056 
L 418.701613 340.9056 
L 418.701613 84.833404 
L 409.422993 84.833404 
z
" clip-path="url(#pbb7931a352)" style="fill: #ff0000"/>
   </g>
   <g id="patch_15">
    <path d="M 437.540025 340.9056 
L 446.818646 340.9056 
L 446.818646 84.529972 
L 437.540025 84.529972 
z
" clip-path="url(#pbb7931a352)" style="fill: #ff0000"/>
   </g>
   <g id="patch_16">
    <path d="M 465.657057 340.9056 
L 474.935678 340.9056 
L 474.935678 84.990535 
L 465.657057 84.990535 
z
" clip-path="url(#pbb7931a352)" style="fill: #ff0000"/>
   </g>
   <g id="patch_17">
    <path d="M 493.77409 340.9056 
L 503.052711 340.9056 
L 503.052711 84.966598 
L 493.77409 84.966598 
z
" clip-path="url(#pbb7931a352)" style="fill: #ff0000"/>
   </g>
   <g id="patch_18">
    <path d="M 521.891122 340.9056 
L 531.169743 340.9056 
L 531.169743 60.0096 
L 521.891122 60.0096 
z
" clip-path="url(#pbb7931a352)" style="fill: #ff0000"/>
   </g>
   <g id="patch_19">
    <path d="M 109.414257 340.9056 
L 118.692878 340.9056 
L 118.692878 330.612032 
L 109.414257 330.612032 
z
" clip-path="url(#pbb7931a352)" style="fill: #ffa500"/>
   </g>
   <g id="patch_20">
    <path d="M 137.531289 340.9056 
L 146.80991 340.9056 
L 146.80991 335.781149 
L 137.531289 335.781149 
z
" clip-path="url(#pbb7931a352)" style="fill: #ffa500"/>
   </g>
   <g id="patch_21">
    <path d="M 165.648322 340.9056 
L 174.926943 340.9056 
L 174.926943 337.498545 
L 165.648322 337.498545 
z
" clip-path="url(#pbb7931a352)" style="fill: #ffa500"/>
   </g>
   <g id="patch_22">
    <path d="M 193.765354 340.9056 
L 203.043975 340.9056 
L 203.043975 338.305226 
L 193.765354 338.305226 
z
" clip-path="url(#pbb7931a352)" style="fill: #ffa500"/>
   </g>
   <g id="patch_23">
    <path d="M 221.882387 340.9056 
L 231.161007 340.9056 
L 231.161007 338.772568 
L 221.882387 338.772568 
z
" clip-path="url(#pbb7931a352)" style="fill: #ffa500"/>
   </g>
   <g id="patch_24">
    <path d="M 249.999419 340.9056 
L 259.27804 340.9056 
L 259.27804 339.160763 
L 249.999419 339.160763 
z
" clip-path="url(#pbb7931a352)" style="fill: #ffa500"/>
   </g>
   <g id="patch_25">
    <path d="M 278.116451 340.9056 
L 287.395072 340.9056 
L 287.395072 339.349811 
L 278.116451 339.349811 
z
" clip-path="url(#pbb7931a352)" style="fill: #ffa500"/>
   </g>
   <g id="patch_26">
    <path d="M 306.233484 340.9056 
L 315.512104 340.9056 
L 315.512104 339.552023 
L 306.233484 339.552023 
z
" clip-path="url(#pbb7931a352)" style="fill: #ffa500"/>
   </g>
   <g id="patch_27">
    <path d="M 334.350516 340.9056 
L 343.629137 340.9056 
L 343.629137 339.724185 
L 334.350516 339.724185 
z
" clip-path="url(#pbb7931a352)" style="fill: #ffa500"/>
   </g>
   <g id="patch_28">
    <path d="M 362.467549 340.9056 
L 371.746169 340.9056 
L 371.746169 339.844209 
L 362.467549 339.844209 
z
" clip-path="url(#pbb7931a352)" style="fill: #ffa500"/>
   </g>
   <g id="patch_29">
    <path d="M 390.584581 340.9056 
L 399.863202 340.9056 
L 399.863202 339.92403 
L 390.584581 339.92403 
z
" clip-path="url(#pbb7931a352)" style="fill: #ffa500"/>
   </g>
   <g id="patch_30">
    <path d="M 418.701613 340.9056 
L 427.980234 340.9056 
L 427.980234 339.995716 
L 418.701613 339.995716 
z
" clip-path="url(#pbb7931a352)" style="fill: #ffa500"/>
   </g>
   <g id="patch_31">
    <path d="M 446.818646 340.9056 
L 456.097266 340.9056 
L 456.097266 340.062796 
L 446.818646 340.062796 
z
" clip-path="url(#pbb7931a352)" style="fill: #ffa500"/>
   </g>
   <g id="patch_32">
    <path d="M 474.935678 340.9056 
L 484.214299 340.9056 
L 484.214299 340.127521 
L 474.935678 340.127521 
z
" clip-path="url(#pbb7931a352)" style="fill: #ffa500"/>
   </g>
   <g id="patch_33">
    <path d="M 503.052711 340.9056 
L 512.331331 340.9056 
L 512.331331 340.135849 
L 503.052711 340.135849 
z
" clip-path="url(#pbb7931a352)" style="fill: #ffa500"/>
   </g>
   <g id="patch_34">
    <path d="M 531.169743 340.9056 
L 540.448364 340.9056 
L 540.448364 340.157184 
L 531.169743 340.157184 
z
" clip-path="url(#pbb7931a352)" style="fill: #ffa500"/>
   </g>
   <g id="patch_35">
    <path d="M 109.414257 330.612032 
L 118.692878 330.612032 
L 118.692878 178.140013 
L 109.414257 178.140013 
z
" clip-path="url(#pbb7931a352)" style="fill: #1e90ff"/>
   </g>
   <g id="patch_36">
    <path d="M 137.531289 335.781149 
L 146.80991 335.781149 
L 146.80991 250.157056 
L 137.531289 250.157056 
z
" clip-path="url(#pbb7931a352)" style="fill: #1e90ff"/>
   </g>
   <g id="patch_37">
    <path d="M 165.648322 337.498545 
L 174.926943 337.498545 
L 174.926943 276.000252 
L 165.648322 276.000252 
z
" clip-path="url(#pbb7931a352)" style="fill: #1e90ff"/>
   </g>
   <g id="patch_38">
    <path d="M 193.765354 338.305226 
L 203.043975 338.305226 
L 203.043975 288.303559 
L 193.765354 288.303559 
z
" clip-path="url(#pbb7931a352)" style="fill: #1e90ff"/>
   </g>
   <g id="patch_39">
    <path d="M 221.882387 338.772568 
L 231.161007 338.772568 
L 231.161007 295.349325 
L 221.882387 295.349325 
z
" clip-path="url(#pbb7931a352)" style="fill: #1e90ff"/>
   </g>
   <g id="patch_40">
    <path d="M 249.999419 339.160763 
L 259.27804 339.160763 
L 259.27804 300.23447 
L 249.999419 300.23447 
z
" clip-path="url(#pbb7931a352)" style="fill: #1e90ff"/>
   </g>
   <g id="patch_41">
    <path d="M 278.116451 339.349811 
L 287.395072 339.349811 
L 287.395072 301.391722 
L 278.116451 301.391722 
z
" clip-path="url(#pbb7931a352)" style="fill: #1e90ff"/>
   </g>
   <g id="patch_42">
    <path d="M 306.233484 339.552023 
L 315.512104 339.552023 
L 315.512104 304.040827 
L 306.233484 304.040827 
z
" clip-path="url(#pbb7931a352)" style="fill: #1e90ff"/>
   </g>
   <g id="patch_43">
    <path d="M 334.350516 339.724185 
L 343.629137 339.724185 
L 343.629137 305.684044 
L 334.350516 305.684044 
z
" clip-path="url(#pbb7931a352)" style="fill: #1e90ff"/>
   </g>
   <g id="patch_44">
    <path d="M 362.467549 339.844209 
L 371.746169 339.844209 
L 371.746169 306.829971 
L 362.467549 306.829971 
z
" clip-path="url(#pbb7931a352)" style="fill: #1e90ff"/>
   </g>
   <g id="patch_45">
    <path d="M 390.584581 339.92403 
L 399.863202 339.92403 
L 399.863202 306.753734 
L 390.584581 306.753734 
z
" clip-path="url(#pbb7931a352)" style="fill: #1e90ff"/>
   </g>
   <g id="patch_46">
    <path d="M 418.701613 339.995716 
L 427.980234 339.995716 
L 427.980234 304.33129 
L 418.701613 304.33129 
z
" clip-path="url(#pbb7931a352)" style="fill: #1e90ff"/>
   </g>
   <g id="patch_47">
    <path d="M 446.818646 340.062796 
L 456.097266 340.062796 
L 456.097266 302.250842 
L 446.818646 302.250842 
z
" clip-path="url(#pbb7931a352)" style="fill: #1e90ff"/>
   </g>
   <g id="patch_48">
    <path d="M 474.935678 340.127521 
L 484.214299 340.127521 
L 484.214299 304.42926 
L 474.935678 304.42926 
z
" clip-path="url(#pbb7931a352)" style="fill: #1e90ff"/>
   </g>
   <g id="patch_49">
    <path d="M 503.052711 340.135849 
L 512.331331 340.135849 
L 512.331331 305.449618 
L 503.052711 305.449618 
z
" clip-path="url(#pbb7931a352)" style="fill: #1e90ff"/>
   </g>
   <g id="patch_50">
    <path d="M 531.169743 340.157184 
L 540.448364 340.157184 
L 540.448364 304.958719 
L 531.169743 304.958719 
z
" clip-path="url(#pbb7931a352)" style="fill: #1e90ff"/>
   </g>
   <g id="matplotlib.axis_1">
    <g id="xtick_1">
     <g id="line2d_1">
      <defs>
       <path id="m98edd54a3c" d="M 0 0 
L 0 3.5 
" style="stroke: #000000; stroke-width: 0.8"/>
      </defs>
      <g>
       <use xlink:href="#m98edd54a3c" x="109.414257" y="340.9056" style="stroke: #000000; stroke-width: 0.8"/>
      </g>
     </g>
     <g id="text_1">
      <!-- 1 -->
      <g transform="translate(106.233007 355.504038) scale(0.1 -0.1)">
       <defs>
        <path id="DejaVuSans-31" d="M 794 531 
L 1825 531 
L 1825 4091 
L 703 3866 
L 703 4441 
L 1819 4666 
L 2450 4666 
L 2450 531 
L 3481 531 
L 3481 0 
L 794 0 
L 794 531 
z
" transform="scale(0.015625)"/>
       </defs>
       <use xlink:href="#DejaVuSans-31"/>
      </g>
     </g>
    </g>
    <g id="xtick_2">
     <g id="line2d_2">
      <g>
       <use xlink:href="#m98edd54a3c" x="137.531289" y="340.9056" style="stroke: #000000; stroke-width: 0.8"/>
      </g>
     </g>
     <g id="text_2">
      <!-- 2 -->
      <g transform="translate(134.350039 355.504038) scale(0.1 -0.1)">
       <defs>
        <path id="DejaVuSans-32" d="M 1228 531 
L 3431 531 
L 3431 0 
L 469 0 
L 469 531 
Q 828 903 1448 1529 
Q 2069 2156 2228 2338 
Q 2531 2678 2651 2914 
Q 2772 3150 2772 3378 
Q 2772 3750 2511 3984 
Q 2250 4219 1831 4219 
Q 1534 4219 1204 4116 
Q 875 4013 500 3803 
L 500 4441 
Q 881 4594 1212 4672 
Q 1544 4750 1819 4750 
Q 2544 4750 2975 4387 
Q 3406 4025 3406 3419 
Q 3406 3131 3298 2873 
Q 3191 2616 2906 2266 
Q 2828 2175 2409 1742 
Q 1991 1309 1228 531 
z
" transform="scale(0.015625)"/>
       </defs>
       <use xlink:href="#DejaVuSans-32"/>
      </g>
     </g>
    </g>
    <g id="xtick_3">
     <g id="line2d_3">
      <g>
       <use xlink:href="#m98edd54a3c" x="165.648322" y="340.9056" style="stroke: #000000; stroke-width: 0.8"/>
      </g>
     </g>
     <g id="text_3">
      <!-- 3 -->
      <g transform="translate(162.467072 355.504038) scale(0.1 -0.1)">
       <defs>
        <path id="DejaVuSans-33" d="M 2597 2516 
Q 3050 2419 3304 2112 
Q 3559 1806 3559 1356 
Q 3559 666 3084 287 
Q 2609 -91 1734 -91 
Q 1441 -91 1130 -33 
Q 819 25 488 141 
L 488 750 
Q 750 597 1062 519 
Q 1375 441 1716 441 
Q 2309 441 2620 675 
Q 2931 909 2931 1356 
Q 2931 1769 2642 2001 
Q 2353 2234 1838 2234 
L 1294 2234 
L 1294 2753 
L 1863 2753 
Q 2328 2753 2575 2939 
Q 2822 3125 2822 3475 
Q 2822 3834 2567 4026 
Q 2313 4219 1838 4219 
Q 1578 4219 1281 4162 
Q 984 4106 628 3988 
L 628 4550 
Q 988 4650 1302 4700 
Q 1616 4750 1894 4750 
Q 2613 4750 3031 4423 
Q 3450 4097 3450 3541 
Q 3450 3153 3228 2886 
Q 3006 2619 2597 2516 
z
" transform="scale(0.015625)"/>
       </defs>
       <use xlink:href="#DejaVuSans-33"/>
      </g>
     </g>
    </g>
    <g id="xtick_4">
     <g id="line2d_4">
      <g>
       <use xlink:href="#m98edd54a3c" x="193.765354" y="340.9056" style="stroke: #000000; stroke-width: 0.8"/>
      </g>
     </g>
     <g id="text_4">
      <!-- 4 -->
      <g transform="translate(190.584104 355.504038) scale(0.1 -0.1)">
       <defs>
        <path id="DejaVuSans-34" d="M 2419 4116 
L 825 1625 
L 2419 1625 
L 2419 4116 
z
M 2253 4666 
L 3047 4666 
L 3047 1625 
L 3713 1625 
L 3713 1100 
L 3047 1100 
L 3047 0 
L 2419 0 
L 2419 1100 
L 313 1100 
L 313 1709 
L 2253 4666 
z
" transform="scale(0.015625)"/>
       </defs>
       <use xlink:href="#DejaVuSans-34"/>
      </g>
     </g>
    </g>
    <g id="xtick_5">
     <g id="line2d_5">
      <g>
       <use xlink:href="#m98edd54a3c" x="221.882387" y="340.9056" style="stroke: #000000; stroke-width: 0.8"/>
      </g>
     </g>
     <g id="text_5">
      <!-- 5 -->
      <g transform="translate(218.701137 355.504038) scale(0.1 -0.1)">
       <defs>
        <path id="DejaVuSans-35" d="M 691 4666 
L 3169 4666 
L 3169 4134 
L 1269 4134 
L 1269 2991 
Q 1406 3038 1543 3061 
Q 1681 3084 1819 3084 
Q 2600 3084 3056 2656 
Q 3513 2228 3513 1497 
Q 3513 744 3044 326 
Q 2575 -91 1722 -91 
Q 1428 -91 1123 -41 
Q 819 9 494 109 
L 494 744 
Q 775 591 1075 516 
Q 1375 441 1709 441 
Q 2250 441 2565 725 
Q 2881 1009 2881 1497 
Q 2881 1984 2565 2268 
Q 2250 2553 1709 2553 
Q 1456 2553 1204 2497 
Q 953 2441 691 2322 
L 691 4666 
z
" transform="scale(0.015625)"/>
       </defs>
       <use xlink:href="#DejaVuSans-35"/>
      </g>
     </g>
    </g>
    <g id="xtick_6">
     <g id="line2d_6">
      <g>
       <use xlink:href="#m98edd54a3c" x="249.999419" y="340.9056" style="stroke: #000000; stroke-width: 0.8"/>
      </g>
     </g>
     <g id="text_6">
      <!-- 6 -->
      <g transform="translate(246.818169 355.504038) scale(0.1 -0.1)">
       <defs>
        <path id="DejaVuSans-36" d="M 2113 2584 
Q 1688 2584 1439 2293 
Q 1191 2003 1191 1497 
Q 1191 994 1439 701 
Q 1688 409 2113 409 
Q 2538 409 2786 701 
Q 3034 994 3034 1497 
Q 3034 2003 2786 2293 
Q 2538 2584 2113 2584 
z
M 3366 4563 
L 3366 3988 
Q 3128 4100 2886 4159 
Q 2644 4219 2406 4219 
Q 1781 4219 1451 3797 
Q 1122 3375 1075 2522 
Q 1259 2794 1537 2939 
Q 1816 3084 2150 3084 
Q 2853 3084 3261 2657 
Q 3669 2231 3669 1497 
Q 3669 778 3244 343 
Q 2819 -91 2113 -91 
Q 1303 -91 875 529 
Q 447 1150 447 2328 
Q 447 3434 972 4092 
Q 1497 4750 2381 4750 
Q 2619 4750 2861 4703 
Q 3103 4656 3366 4563 
z
" transform="scale(0.015625)"/>
       </defs>
       <use xlink:href="#DejaVuSans-36"/>
      </g>
     </g>
    </g>
    <g id="xtick_7">
     <g id="line2d_7">
      <g>
       <use xlink:href="#m98edd54a3c" x="278.116451" y="340.9056" style="stroke: #000000; stroke-width: 0.8"/>
      </g>
     </g>
     <g id="text_7">
      <!-- 7 -->
      <g transform="translate(274.935201 355.504038) scale(0.1 -0.1)">
       <defs>
        <path id="DejaVuSans-37" d="M 525 4666 
L 3525 4666 
L 3525 4397 
L 1831 0 
L 1172 0 
L 2766 4134 
L 525 4134 
L 525 4666 
z
" transform="scale(0.015625)"/>
       </defs>
       <use xlink:href="#DejaVuSans-37"/>
      </g>
     </g>
    </g>
    <g id="xtick_8">
     <g id="line2d_8">
      <g>
       <use xlink:href="#m98edd54a3c" x="306.233484" y="340.9056" style="stroke: #000000; stroke-width: 0.8"/>
      </g>
     </g>
     <g id="text_8">
      <!-- 8 -->
      <g transform="translate(303.052234 355.504038) scale(0.1 -0.1)">
       <defs>
        <path id="DejaVuSans-38" d="M 2034 2216 
Q 1584 2216 1326 1975 
Q 1069 1734 1069 1313 
Q 1069 891 1326 650 
Q 1584 409 2034 409 
Q 2484 409 2743 651 
Q 3003 894 3003 1313 
Q 3003 1734 2745 1975 
Q 2488 2216 2034 2216 
z
M 1403 2484 
Q 997 2584 770 2862 
Q 544 3141 544 3541 
Q 544 4100 942 4425 
Q 1341 4750 2034 4750 
Q 2731 4750 3128 4425 
Q 3525 4100 3525 3541 
Q 3525 3141 3298 2862 
Q 3072 2584 2669 2484 
Q 3125 2378 3379 2068 
Q 3634 1759 3634 1313 
Q 3634 634 3220 271 
Q 2806 -91 2034 -91 
Q 1263 -91 848 271 
Q 434 634 434 1313 
Q 434 1759 690 2068 
Q 947 2378 1403 2484 
z
M 1172 3481 
Q 1172 3119 1398 2916 
Q 1625 2713 2034 2713 
Q 2441 2713 2670 2916 
Q 2900 3119 2900 3481 
Q 2900 3844 2670 4047 
Q 2441 4250 2034 4250 
Q 1625 4250 1398 4047 
Q 1172 3844 1172 3481 
z
" transform="scale(0.015625)"/>
       </defs>
       <use xlink:href="#DejaVuSans-38"/>
      </g>
     </g>
    </g>
    <g id="xtick_9">
     <g id="line2d_9">
      <g>
       <use xlink:href="#m98edd54a3c" x="334.350516" y="340.9056" style="stroke: #000000; stroke-width: 0.8"/>
      </g>
     </g>
     <g id="text_9">
      <!-- 9 -->
      <g transform="translate(331.169266 355.504038) scale(0.1 -0.1)">
       <defs>
        <path id="DejaVuSans-39" d="M 703 97 
L 703 672 
Q 941 559 1184 500 
Q 1428 441 1663 441 
Q 2288 441 2617 861 
Q 2947 1281 2994 2138 
Q 2813 1869 2534 1725 
Q 2256 1581 1919 1581 
Q 1219 1581 811 2004 
Q 403 2428 403 3163 
Q 403 3881 828 4315 
Q 1253 4750 1959 4750 
Q 2769 4750 3195 4129 
Q 3622 3509 3622 2328 
Q 3622 1225 3098 567 
Q 2575 -91 1691 -91 
Q 1453 -91 1209 -44 
Q 966 3 703 97 
z
M 1959 2075 
Q 2384 2075 2632 2365 
Q 2881 2656 2881 3163 
Q 2881 3666 2632 3958 
Q 2384 4250 1959 4250 
Q 1534 4250 1286 3958 
Q 1038 3666 1038 3163 
Q 1038 2656 1286 2365 
Q 1534 2075 1959 2075 
z
" transform="scale(0.015625)"/>
       </defs>
       <use xlink:href="#DejaVuSans-39"/>
      </g>
     </g>
    </g>
    <g id="xtick_10">
     <g id="line2d_10">
      <g>
       <use xlink:href="#m98edd54a3c" x="362.467549" y="340.9056" style="stroke: #000000; stroke-width: 0.8"/>
      </g>
     </g>
     <g id="text_10">
      <!-- 10 -->
      <g transform="translate(356.105049 355.504038) scale(0.1 -0.1)">
       <defs>
        <path id="DejaVuSans-30" d="M 2034 4250 
Q 1547 4250 1301 3770 
Q 1056 3291 1056 2328 
Q 1056 1369 1301 889 
Q 1547 409 2034 409 
Q 2525 409 2770 889 
Q 3016 1369 3016 2328 
Q 3016 3291 2770 3770 
Q 2525 4250 2034 4250 
z
M 2034 4750 
Q 2819 4750 3233 4129 
Q 3647 3509 3647 2328 
Q 3647 1150 3233 529 
Q 2819 -91 2034 -91 
Q 1250 -91 836 529 
Q 422 1150 422 2328 
Q 422 3509 836 4129 
Q 1250 4750 2034 4750 
z
" transform="scale(0.015625)"/>
       </defs>
       <use xlink:href="#DejaVuSans-31"/>
       <use xlink:href="#DejaVuSans-30" x="63.623047"/>
      </g>
     </g>
    </g>
    <g id="xtick_11">
     <g id="line2d_11">
      <g>
       <use xlink:href="#m98edd54a3c" x="390.584581" y="340.9056" style="stroke: #000000; stroke-width: 0.8"/>
      </g>
     </g>
     <g id="text_11">
      <!-- 11 -->
      <g transform="translate(384.222081 355.504038) scale(0.1 -0.1)">
       <use xlink:href="#DejaVuSans-31"/>
       <use xlink:href="#DejaVuSans-31" x="63.623047"/>
      </g>
     </g>
    </g>
    <g id="xtick_12">
     <g id="line2d_12">
      <g>
       <use xlink:href="#m98edd54a3c" x="418.701613" y="340.9056" style="stroke: #000000; stroke-width: 0.8"/>
      </g>
     </g>
     <g id="text_12">
      <!-- 12 -->
      <g transform="translate(412.339113 355.504038) scale(0.1 -0.1)">
       <use xlink:href="#DejaVuSans-31"/>
       <use xlink:href="#DejaVuSans-32" x="63.623047"/>
      </g>
     </g>
    </g>
    <g id="xtick_13">
     <g id="line2d_13">
      <g>
       <use xlink:href="#m98edd54a3c" x="446.818646" y="340.9056" style="stroke: #000000; stroke-width: 0.8"/>
      </g>
     </g>
     <g id="text_13">
      <!-- 13 -->
      <g transform="translate(440.456146 355.504038) scale(0.1 -0.1)">
       <use xlink:href="#DejaVuSans-31"/>
       <use xlink:href="#DejaVuSans-33" x="63.623047"/>
      </g>
     </g>
    </g>
    <g id="xtick_14">
     <g id="line2d_14">
      <g>
       <use xlink:href="#m98edd54a3c" x="474.935678" y="340.9056" style="stroke: #000000; stroke-width: 0.8"/>
      </g>
     </g>
     <g id="text_14">
      <!-- 14 -->
      <g transform="translate(468.573178 355.504038) scale(0.1 -0.1)">
       <use xlink:href="#DejaVuSans-31"/>
       <use xlink:href="#DejaVuSans-34" x="63.623047"/>
      </g>
     </g>
    </g>
    <g id="xtick_15">
     <g id="line2d_15">
      <g>
       <use xlink:href="#m98edd54a3c" x="503.052711" y="340.9056" style="stroke: #000000; stroke-width: 0.8"/>
      </g>
     </g>
     <g id="text_15">
      <!-- 15 -->
      <g transform="translate(496.690211 355.504038) scale(0.1 -0.1)">
       <use xlink:href="#DejaVuSans-31"/>
       <use xlink:href="#DejaVuSans-35" x="63.623047"/>
      </g>
     </g>
    </g>
    <g id="xtick_16">
     <g id="line2d_16">
      <g>
       <use xlink:href="#m98edd54a3c" x="531.169743" y="340.9056" style="stroke: #000000; stroke-width: 0.8"/>
      </g>
     </g>
     <g id="text_16">
      <!-- 16 -->
      <g transform="translate(524.807243 355.504038) scale(0.1 -0.1)">
       <use xlink:href="#DejaVuSans-31"/>
       <use xlink:href="#DejaVuSans-36" x="63.623047"/>
      </g>
     </g>
    </g>
    <g id="text_17">
     <!-- threads -->
     <g transform="translate(301.300594 369.182163) scale(0.1 -0.1)">
      <defs>
       <path id="DejaVuSans-74" d="M 1172 4494 
L 1172 3500 
L 2356 3500 
L 2356 3053 
L 1172 3053 
L 1172 1153 
Q 1172 725 1289 603 
Q 1406 481 1766 481 
L 2356 481 
L 2356 0 
L 1766 0 
Q 1100 0 847 248 
Q 594 497 594 1153 
L 594 3053 
L 172 3053 
L 172 3500 
L 594 3500 
L 594 4494 
L 1172 4494 
z
" transform="scale(0.015625)"/>
       <path id="DejaVuSans-68" d="M 3513 2113 
L 3513 0 
L 2938 0 
L 2938 2094 
Q 2938 2591 2744 2837 
Q 2550 3084 2163 3084 
Q 1697 3084 1428 2787 
Q 1159 2491 1159 1978 
L 1159 0 
L 581 0 
L 581 4863 
L 1159 4863 
L 1159 2956 
Q 1366 3272 1645 3428 
Q 1925 3584 2291 3584 
Q 2894 3584 3203 3211 
Q 3513 2838 3513 2113 
z
" transform="scale(0.015625)"/>
       <path id="DejaVuSans-72" d="M 2631 2963 
Q 2534 3019 2420 3045 
Q 2306 3072 2169 3072 
Q 1681 3072 1420 2755 
Q 1159 2438 1159 1844 
L 1159 0 
L 581 0 
L 581 3500 
L 1159 3500 
L 1159 2956 
Q 1341 3275 1631 3429 
Q 1922 3584 2338 3584 
Q 2397 3584 2469 3576 
Q 2541 3569 2628 3553 
L 2631 2963 
z
" transform="scale(0.015625)"/>
       <path id="DejaVuSans-65" d="M 3597 1894 
L 3597 1613 
L 953 1613 
Q 991 1019 1311 708 
Q 1631 397 2203 397 
Q 2534 397 2845 478 
Q 3156 559 3463 722 
L 3463 178 
Q 3153 47 2828 -22 
Q 2503 -91 2169 -91 
Q 1331 -91 842 396 
Q 353 884 353 1716 
Q 353 2575 817 3079 
Q 1281 3584 2069 3584 
Q 2775 3584 3186 3129 
Q 3597 2675 3597 1894 
z
M 3022 2063 
Q 3016 2534 2758 2815 
Q 2500 3097 2075 3097 
Q 1594 3097 1305 2825 
Q 1016 2553 972 2059 
L 3022 2063 
z
" transform="scale(0.015625)"/>
       <path id="DejaVuSans-61" d="M 2194 1759 
Q 1497 1759 1228 1600 
Q 959 1441 959 1056 
Q 959 750 1161 570 
Q 1363 391 1709 391 
Q 2188 391 2477 730 
Q 2766 1069 2766 1631 
L 2766 1759 
L 2194 1759 
z
M 3341 1997 
L 3341 0 
L 2766 0 
L 2766 531 
Q 2569 213 2275 61 
Q 1981 -91 1556 -91 
Q 1019 -91 701 211 
Q 384 513 384 1019 
Q 384 1609 779 1909 
Q 1175 2209 1959 2209 
L 2766 2209 
L 2766 2266 
Q 2766 2663 2505 2880 
Q 2244 3097 1772 3097 
Q 1472 3097 1187 3025 
Q 903 2953 641 2809 
L 641 3341 
Q 956 3463 1253 3523 
Q 1550 3584 1831 3584 
Q 2591 3584 2966 3190 
Q 3341 2797 3341 1997 
z
" transform="scale(0.015625)"/>
       <path id="DejaVuSans-64" d="M 2906 2969 
L 2906 4863 
L 3481 4863 
L 3481 0 
L 2906 0 
L 2906 525 
Q 2725 213 2448 61 
Q 2172 -91 1784 -91 
Q 1150 -91 751 415 
Q 353 922 353 1747 
Q 353 2572 751 3078 
Q 1150 3584 1784 3584 
Q 2172 3584 2448 3432 
Q 2725 3281 2906 2969 
z
M 947 1747 
Q 947 1113 1208 752 
Q 1469 391 1925 391 
Q 2381 391 2643 752 
Q 2906 1113 2906 1747 
Q 2906 2381 2643 2742 
Q 2381 3103 1925 3103 
Q 1469 3103 1208 2742 
Q 947 2381 947 1747 
z
" transform="scale(0.015625)"/>
       <path id="DejaVuSans-73" d="M 2834 3397 
L 2834 2853 
Q 2591 2978 2328 3040 
Q 2066 3103 1784 3103 
Q 1356 3103 1142 2972 
Q 928 2841 928 2578 
Q 928 2378 1081 2264 
Q 1234 2150 1697 2047 
L 1894 2003 
Q 2506 1872 2764 1633 
Q 3022 1394 3022 966 
Q 3022 478 2636 193 
Q 2250 -91 1575 -91 
Q 1294 -91 989 -36 
Q 684 19 347 128 
L 347 722 
Q 666 556 975 473 
Q 1284 391 1588 391 
Q 1994 391 2212 530 
Q 2431 669 2431 922 
Q 2431 1156 2273 1281 
Q 2116 1406 1581 1522 
L 1381 1569 
Q 847 1681 609 1914 
Q 372 2147 372 2553 
Q 372 3047 722 3315 
Q 1072 3584 1716 3584 
Q 2034 3584 2315 3537 
Q 2597 3491 2834 3397 
z
" transform="scale(0.015625)"/>
      </defs>
      <use xlink:href="#DejaVuSans-74"/>
      <use xlink:href="#DejaVuSans-68" x="39.208984"/>
      <use xlink:href="#DejaVuSans-72" x="102.587891"/>
      <use xlink:href="#DejaVuSans-65" x="141.451172"/>
      <use xlink:href="#DejaVuSans-61" x="202.974609"/>
      <use xlink:href="#DejaVuSans-64" x="264.253906"/>
      <use xlink:href="#DejaVuSans-73" x="327.730469"/>
     </g>
    </g>
   </g>
   <g id="matplotlib.axis_2">
    <g id="ytick_1">
     <g id="line2d_17">
      <path d="M 78.12 340.9056 
L 562.464 340.9056 
" clip-path="url(#pbb7931a352)" style="fill: none; stroke-dasharray: 2.96,1.28; stroke-dashoffset: 0; stroke: #b0b0b0; stroke-width: 0.8"/>
     </g>
     <g id="line2d_18">
      <defs>
       <path id="m94d6e0a5fe" d="M 0 0 
L -3.5 0 
" style="stroke: #000000; stroke-width: 0.8"/>
      </defs>
      <g>
       <use xlink:href="#m94d6e0a5fe" x="78.12" y="340.9056" style="stroke: #000000; stroke-width: 0.8"/>
      </g>
     </g>
     <g id="text_18">
      <!-- 0 -->
      <g transform="translate(64.7575 344.704819) scale(0.1 -0.1)">
       <use xlink:href="#DejaVuSans-30"/>
      </g>
     </g>
    </g>
    <g id="ytick_2">
     <g id="line2d_19">
      <path d="M 78.12 276.663074 
L 562.464 276.663074 
" clip-path="url(#pbb7931a352)" style="fill: none; stroke-dasharray: 2.96,1.28; stroke-dashoffset: 0; stroke: #b0b0b0; stroke-width: 0.8"/>
     </g>
     <g id="line2d_20">
      <g>
       <use xlink:href="#m94d6e0a5fe" x="78.12" y="276.663074" style="stroke: #000000; stroke-width: 0.8"/>
      </g>
     </g>
     <g id="text_19">
      <!-- 200 -->
      <g transform="translate(52.0325 280.462293) scale(0.1 -0.1)">
       <use xlink:href="#DejaVuSans-32"/>
       <use xlink:href="#DejaVuSans-30" x="63.623047"/>
       <use xlink:href="#DejaVuSans-30" x="127.246094"/>
      </g>
     </g>
    </g>
    <g id="ytick_3">
     <g id="line2d_21">
      <path d="M 78.12 212.420548 
L 562.464 212.420548 
" clip-path="url(#pbb7931a352)" style="fill: none; stroke-dasharray: 2.96,1.28; stroke-dashoffset: 0; stroke: #b0b0b0; stroke-width: 0.8"/>
     </g>
     <g id="line2d_22">
      <g>
       <use xlink:href="#m94d6e0a5fe" x="78.12" y="212.420548" style="stroke: #000000; stroke-width: 0.8"/>
      </g>
     </g>
     <g id="text_20">
      <!-- 400 -->
      <g transform="translate(52.0325 216.219766) scale(0.1 -0.1)">
       <use xlink:href="#DejaVuSans-34"/>
       <use xlink:href="#DejaVuSans-30" x="63.623047"/>
       <use xlink:href="#DejaVuSans-30" x="127.246094"/>
      </g>
     </g>
    </g>
    <g id="ytick_4">
     <g id="line2d_23">
      <path d="M 78.12 148.178021 
L 562.464 148.178021 
" clip-path="url(#pbb7931a352)" style="fill: none; stroke-dasharray: 2.96,1.28; stroke-dashoffset: 0; stroke: #b0b0b0; stroke-width: 0.8"/>
     </g>
     <g id="line2d_24">
      <g>
       <use xlink:href="#m94d6e0a5fe" x="78.12" y="148.178021" style="stroke: #000000; stroke-width: 0.8"/>
      </g>
     </g>
     <g id="text_21">
      <!-- 600 -->
      <g transform="translate(52.0325 151.97724) scale(0.1 -0.1)">
       <use xlink:href="#DejaVuSans-36"/>
       <use xlink:href="#DejaVuSans-30" x="63.623047"/>
       <use xlink:href="#DejaVuSans-30" x="127.246094"/>
      </g>
     </g>
    </g>
    <g id="ytick_5">
     <g id="line2d_25">
      <path d="M 78.12 83.935495 
L 562.464 83.935495 
" clip-path="url(#pbb7931a352)" style="fill: none; stroke-dasharray: 2.96,1.28; stroke-dashoffset: 0; stroke: #b0b0b0; stroke-width: 0.8"/>
     </g>
     <g id="line2d_26">
      <g>
       <use xlink:href="#m94d6e0a5fe" x="78.12" y="83.935495" style="stroke: #000000; stroke-width: 0.8"/>
      </g>
     </g>
     <g id="text_22">
      <!-- 800 -->
      <g transform="translate(52.0325 87.734714) scale(0.1 -0.1)">
       <use xlink:href="#DejaVuSans-38"/>
       <use xlink:href="#DejaVuSans-30" x="63.623047"/>
       <use xlink:href="#DejaVuSans-30" x="127.246094"/>
      </g>
     </g>
    </g>
    <g id="text_23">
     <!-- latency (ms) -->
     <g transform="translate(45.952812 224.768013) rotate(-90) scale(0.1 -0.1)">
      <defs>
       <path id="DejaVuSans-6c" d="M 603 4863 
L 1178 4863 
L 1178 0 
L 603 0 
L 603 4863 
z
" transform="scale(0.015625)"/>
       <path id="DejaVuSans-6e" d="M 3513 2113 
L 3513 0 
L 2938 0 
L 2938 2094 
Q 2938 2591 2744 2837 
Q 2550 3084 2163 3084 
Q 1697 3084 1428 2787 
Q 1159 2491 1159 1978 
L 1159 0 
L 581 0 
L 581 3500 
L 1159 3500 
L 1159 2956 
Q 1366 3272 1645 3428 
Q 1925 3584 2291 3584 
Q 2894 3584 3203 3211 
Q 3513 2838 3513 2113 
z
" transform="scale(0.015625)"/>
       <path id="DejaVuSans-63" d="M 3122 3366 
L 3122 2828 
Q 2878 2963 2633 3030 
Q 2388 3097 2138 3097 
Q 1578 3097 1268 2742 
Q 959 2388 959 1747 
Q 959 1106 1268 751 
Q 1578 397 2138 397 
Q 2388 397 2633 464 
Q 2878 531 3122 666 
L 3122 134 
Q 2881 22 2623 -34 
Q 2366 -91 2075 -91 
Q 1284 -91 818 406 
Q 353 903 353 1747 
Q 353 2603 823 3093 
Q 1294 3584 2113 3584 
Q 2378 3584 2631 3529 
Q 2884 3475 3122 3366 
z
" transform="scale(0.015625)"/>
       <path id="DejaVuSans-79" d="M 2059 -325 
Q 1816 -950 1584 -1140 
Q 1353 -1331 966 -1331 
L 506 -1331 
L 506 -850 
L 844 -850 
Q 1081 -850 1212 -737 
Q 1344 -625 1503 -206 
L 1606 56 
L 191 3500 
L 800 3500 
L 1894 763 
L 2988 3500 
L 3597 3500 
L 2059 -325 
z
" transform="scale(0.015625)"/>
       <path id="DejaVuSans-20" transform="scale(0.015625)"/>
       <path id="DejaVuSans-28" d="M 1984 4856 
Q 1566 4138 1362 3434 
Q 1159 2731 1159 2009 
Q 1159 1288 1364 580 
Q 1569 -128 1984 -844 
L 1484 -844 
Q 1016 -109 783 600 
Q 550 1309 550 2009 
Q 550 2706 781 3412 
Q 1013 4119 1484 4856 
L 1984 4856 
z
" transform="scale(0.015625)"/>
       <path id="DejaVuSans-6d" d="M 3328 2828 
Q 3544 3216 3844 3400 
Q 4144 3584 4550 3584 
Q 5097 3584 5394 3201 
Q 5691 2819 5691 2113 
L 5691 0 
L 5113 0 
L 5113 2094 
Q 5113 2597 4934 2840 
Q 4756 3084 4391 3084 
Q 3944 3084 3684 2787 
Q 3425 2491 3425 1978 
L 3425 0 
L 2847 0 
L 2847 2094 
Q 2847 2600 2669 2842 
Q 2491 3084 2119 3084 
Q 1678 3084 1418 2786 
Q 1159 2488 1159 1978 
L 1159 0 
L 581 0 
L 581 3500 
L 1159 3500 
L 1159 2956 
Q 1356 3278 1631 3431 
Q 1906 3584 2284 3584 
Q 2666 3584 2933 3390 
Q 3200 3197 3328 2828 
z
" transform="scale(0.015625)"/>
       <path id="DejaVuSans-29" d="M 513 4856 
L 1013 4856 
Q 1481 4119 1714 3412 
Q 1947 2706 1947 2009 
Q 1947 1309 1714 600 
Q 1481 -109 1013 -844 
L 513 -844 
Q 928 -128 1133 580 
Q 1338 1288 1338 2009 
Q 1338 2731 1133 3434 
Q 928 4138 513 4856 
z
" transform="scale(0.015625)"/>
      </defs>
      <use xlink:href="#DejaVuSans-6c"/>
      <use xlink:href="#DejaVuSans-61" x="27.783203"/>
      <use xlink:href="#DejaVuSans-74" x="89.0625"/>
      <use xlink:href="#DejaVuSans-65" x="128.271484"/>
      <use xlink:href="#DejaVuSans-6e" x="189.794922"/>
      <use xlink:href="#DejaVuSans-63" x="253.173828"/>
      <use xlink:href="#DejaVuSans-79" x="308.154297"/>
      <use xlink:href="#DejaVuSans-20" x="367.333984"/>
      <use xlink:href="#DejaVuSans-28" x="399.121094"/>
      <use xlink:href="#DejaVuSans-6d" x="438.134766"/>
      <use xlink:href="#DejaVuSans-73" x="535.546875"/>
      <use xlink:href="#DejaVuSans-29" x="587.646484"/>
     </g>
    </g>
   </g>
   <g id="line2d_27">
    <path d="M 104.774947 78.807513 
L 132.891979 213.000488 
L 161.009011 255.392352 
L 189.126044 271.06178 
L 217.243076 289.989342 
L 245.360109 298.06909 
L 273.477141 304.336588 
L 301.594173 308.999715 
L 329.711206 312.502114 
L 357.828238 315.281996 
L 385.945271 317.502478 
L 414.062303 319.56625 
L 442.179335 321.184398 
L 470.296368 322.625953 
L 498.4134 323.843 
L 526.530433 323.3496 
" clip-path="url(#pbb7931a352)" style="fill: none; stroke-dasharray: 7.4,3.2; stroke-dashoffset: 0; stroke: #f08080; stroke-width: 2"/>
    <defs>
     <path id="mfa598a45d7" d="M -3 3 
L 3 -3 
M -3 -3 
L 3 3 
" style="stroke: #f08080"/>
    </defs>
    <g clip-path="url(#pbb7931a352)">
     <use xlink:href="#mfa598a45d7" x="104.774947" y="78.807513" style="fill: #f08080; stroke: #f08080"/>
     <use xlink:href="#mfa598a45d7" x="132.891979" y="213.000488" style="fill: #f08080; stroke: #f08080"/>
     <use xlink:href="#mfa598a45d7" x="161.009011" y="255.392352" style="fill: #f08080; stroke: #f08080"/>
     <use xlink:href="#mfa598a45d7" x="189.126044" y="271.06178" style="fill: #f08080; stroke: #f08080"/>
     <use xlink:href="#mfa598a45d7" x="217.243076" y="289.989342" style="fill: #f08080; stroke: #f08080"/>
     <use xlink:href="#mfa598a45d7" x="245.360109" y="298.06909" style="fill: #f08080; stroke: #f08080"/>
     <use xlink:href="#mfa598a45d7" x="273.477141" y="304.336588" style="fill: #f08080; stroke: #f08080"/>
     <use xlink:href="#mfa598a45d7" x="301.594173" y="308.999715" style="fill: #f08080; stroke: #f08080"/>
     <use xlink:href="#mfa598a45d7" x="329.711206" y="312.502114" style="fill: #f08080; stroke: #f08080"/>
     <use xlink:href="#mfa598a45d7" x="357.828238" y="315.281996" style="fill: #f08080; stroke: #f08080"/>
     <use xlink:href="#mfa598a45d7" x="385.945271" y="317.502478" style="fill: #f08080; stroke: #f08080"/>
     <use xlink:href="#mfa598a45d7" x="414.062303" y="319.56625" style="fill: #f08080; stroke: #f08080"/>
     <use xlink:href="#mfa598a45d7" x="442.179335" y="321.184398" style="fill: #f08080; stroke: #f08080"/>
     <use xlink:href="#mfa598a45d7" x="470.296368" y="322.625953" style="fill: #f08080; stroke: #f08080"/>
     <use xlink:href="#mfa598a45d7" x="498.4134" y="323.843" style="fill: #f08080; stroke: #f08080"/>
     <use xlink:href="#mfa598a45d7" x="526.530433" y="323.3496" style="fill: #f08080; stroke: #f08080"/>
    </g>
   </g>
   <g id="line2d_28">
    <path d="M 114.053567 178.140013 
L 142.1706 295.531328 
L 170.287632 319.270484 
L 198.404665 327.75509 
L 226.521697 331.794345 
L 254.638729 334.127078 
L 282.755762 335.26076 
L 310.872794 336.297503 
L 338.989827 336.992094 
L 367.106859 337.498037 
L 395.223891 337.800885 
L 423.340924 337.857741 
L 451.457956 337.932157 
L 479.574989 338.300147 
L 507.692021 338.541868 
L 535.809053 338.65892 
" clip-path="url(#pbb7931a352)" style="fill: none; stroke-dasharray: 7.4,3.2; stroke-dashoffset: 0; stroke: #afeeee; stroke-width: 2"/>
    <defs>
     <path id="med1c45d98b" d="M -3 3 
L 3 -3 
M -3 -3 
L 3 3 
" style="stroke: #afeeee"/>
    </defs>
    <g clip-path="url(#pbb7931a352)">
     <use xlink:href="#med1c45d98b" x="114.053567" y="178.140013" style="fill: #afeeee; stroke: #afeeee"/>
     <use xlink:href="#med1c45d98b" x="142.1706" y="295.531328" style="fill: #afeeee; stroke: #afeeee"/>
     <use xlink:href="#med1c45d98b" x="170.287632" y="319.270484" style="fill: #afeeee; stroke: #afeeee"/>
     <use xlink:href="#med1c45d98b" x="198.404665" y="327.75509" style="fill: #afeeee; stroke: #afeeee"/>
     <use xlink:href="#med1c45d98b" x="226.521697" y="331.794345" style="fill: #afeeee; stroke: #afeeee"/>
     <use xlink:href="#med1c45d98b" x="254.638729" y="334.127078" style="fill: #afeeee; stroke: #afeeee"/>
     <use xlink:href="#med1c45d98b" x="282.755762" y="335.26076" style="fill: #afeeee; stroke: #afeeee"/>
     <use xlink:href="#med1c45d98b" x="310.872794" y="336.297503" style="fill: #afeeee; stroke: #afeeee"/>
     <use xlink:href="#med1c45d98b" x="338.989827" y="336.992094" style="fill: #afeeee; stroke: #afeeee"/>
     <use xlink:href="#med1c45d98b" x="367.106859" y="337.498037" style="fill: #afeeee; stroke: #afeeee"/>
     <use xlink:href="#med1c45d98b" x="395.223891" y="337.800885" style="fill: #afeeee; stroke: #afeeee"/>
     <use xlink:href="#med1c45d98b" x="423.340924" y="337.857741" style="fill: #afeeee; stroke: #afeeee"/>
     <use xlink:href="#med1c45d98b" x="451.457956" y="337.932157" style="fill: #afeeee; stroke: #afeeee"/>
     <use xlink:href="#med1c45d98b" x="479.574989" y="338.300147" style="fill: #afeeee; stroke: #afeeee"/>
     <use xlink:href="#med1c45d98b" x="507.692021" y="338.541868" style="fill: #afeeee; stroke: #afeeee"/>
     <use xlink:href="#med1c45d98b" x="535.809053" y="338.65892" style="fill: #afeeee; stroke: #afeeee"/>
    </g>
   </g>
   <g id="patch_51">
    <path d="M 78.12 340.9056 
L 78.12 45.9648 
" style="fill: none; stroke: #000000; stroke-width: 0.8; stroke-linejoin: miter; stroke-linecap: square"/>
   </g>
   <g id="patch_52">
    <path d="M 562.464 340.9056 
L 562.464 45.9648 
" style="fill: none; stroke: #000000; stroke-width: 0.8; stroke-linejoin: miter; stroke-linecap: square"/>
   </g>
   <g id="patch_53">
    <path d="M 78.12 340.9056 
L 562.464 340.9056 
" style="fill: none; stroke: #000000; stroke-width: 0.8; stroke-linejoin: miter; stroke-linecap: square"/>
   </g>
   <g id="patch_54">
    <path d="M 78.12 45.9648 
L 562.464 45.9648 
" style="fill: none; stroke: #000000; stroke-width: 0.8; stroke-linejoin: miter; stroke-linecap: square"/>
   </g>
   <g id="text_24">
    <!-- 6.32% -->
    <g transform="translate(104.773343 327.14147) rotate(-45) scale(0.1 -0.1)">
     <defs>
      <path id="DejaVuSans-2e" d="M 684 794 
L 1344 794 
L 1344 0 
L 684 0 
L 684 794 
z
" transform="scale(0.015625)"/>
      <path id="DejaVuSans-25" d="M 4653 2053 
Q 4381 2053 4226 1822 
Q 4072 1591 4072 1178 
Q 4072 772 4226 539 
Q 4381 306 4653 306 
Q 4919 306 5073 539 
Q 5228 772 5228 1178 
Q 5228 1588 5073 1820 
Q 4919 2053 4653 2053 
z
M 4653 2450 
Q 5147 2450 5437 2106 
Q 5728 1763 5728 1178 
Q 5728 594 5436 251 
Q 5144 -91 4653 -91 
Q 4153 -91 3862 251 
Q 3572 594 3572 1178 
Q 3572 1766 3864 2108 
Q 4156 2450 4653 2450 
z
M 1428 4353 
Q 1159 4353 1004 4120 
Q 850 3888 850 3481 
Q 850 3069 1003 2837 
Q 1156 2606 1428 2606 
Q 1700 2606 1854 2837 
Q 2009 3069 2009 3481 
Q 2009 3884 1853 4118 
Q 1697 4353 1428 4353 
z
M 4250 4750 
L 4750 4750 
L 1831 -91 
L 1331 -91 
L 4250 4750 
z
M 1428 4750 
Q 1922 4750 2215 4408 
Q 2509 4066 2509 3481 
Q 2509 2891 2217 2550 
Q 1925 2209 1428 2209 
Q 931 2209 642 2551 
Q 353 2894 353 3481 
Q 353 4063 643 4406 
Q 934 4750 1428 4750 
z
" transform="scale(0.015625)"/>
     </defs>
     <use xlink:href="#DejaVuSans-36"/>
     <use xlink:href="#DejaVuSans-2e" x="63.623047"/>
     <use xlink:href="#DejaVuSans-33" x="95.410156"/>
     <use xlink:href="#DejaVuSans-32" x="159.033203"/>
     <use xlink:href="#DejaVuSans-25" x="222.65625"/>
    </g>
   </g>
   <g id="text_25">
    <!-- 5.65% -->
    <g transform="translate(132.890376 332.310588) rotate(-45) scale(0.1 -0.1)">
     <use xlink:href="#DejaVuSans-35"/>
     <use xlink:href="#DejaVuSans-2e" x="63.623047"/>
     <use xlink:href="#DejaVuSans-36" x="95.410156"/>
     <use xlink:href="#DejaVuSans-35" x="159.033203"/>
     <use xlink:href="#DejaVuSans-25" x="222.65625"/>
    </g>
   </g>
   <g id="text_26">
    <!-- 5.25% -->
    <g transform="translate(161.007408 334.027983) rotate(-45) scale(0.1 -0.1)">
     <use xlink:href="#DejaVuSans-35"/>
     <use xlink:href="#DejaVuSans-2e" x="63.623047"/>
     <use xlink:href="#DejaVuSans-32" x="95.410156"/>
     <use xlink:href="#DejaVuSans-35" x="159.033203"/>
     <use xlink:href="#DejaVuSans-25" x="222.65625"/>
    </g>
   </g>
   <g id="text_27">
    <!-- 4.94% -->
    <g transform="translate(189.124441 334.834665) rotate(-45) scale(0.1 -0.1)">
     <use xlink:href="#DejaVuSans-34"/>
     <use xlink:href="#DejaVuSans-2e" x="63.623047"/>
     <use xlink:href="#DejaVuSans-39" x="95.410156"/>
     <use xlink:href="#DejaVuSans-34" x="159.033203"/>
     <use xlink:href="#DejaVuSans-25" x="222.65625"/>
    </g>
   </g>
   <g id="text_28">
    <!-- 4.68% -->
    <g transform="translate(217.241473 335.302007) rotate(-45) scale(0.1 -0.1)">
     <use xlink:href="#DejaVuSans-34"/>
     <use xlink:href="#DejaVuSans-2e" x="63.623047"/>
     <use xlink:href="#DejaVuSans-36" x="95.410156"/>
     <use xlink:href="#DejaVuSans-38" x="159.033203"/>
     <use xlink:href="#DejaVuSans-25" x="222.65625"/>
    </g>
   </g>
   <g id="text_29">
    <!-- 4.29% -->
    <g transform="translate(245.358505 335.690202) rotate(-45) scale(0.1 -0.1)">
     <use xlink:href="#DejaVuSans-34"/>
     <use xlink:href="#DejaVuSans-2e" x="63.623047"/>
     <use xlink:href="#DejaVuSans-32" x="95.410156"/>
     <use xlink:href="#DejaVuSans-39" x="159.033203"/>
     <use xlink:href="#DejaVuSans-25" x="222.65625"/>
    </g>
   </g>
   <g id="text_30">
    <!-- 3.94% -->
    <g transform="translate(273.475538 335.87925) rotate(-45) scale(0.1 -0.1)">
     <use xlink:href="#DejaVuSans-33"/>
     <use xlink:href="#DejaVuSans-2e" x="63.623047"/>
     <use xlink:href="#DejaVuSans-39" x="95.410156"/>
     <use xlink:href="#DejaVuSans-34" x="159.033203"/>
     <use xlink:href="#DejaVuSans-25" x="222.65625"/>
    </g>
   </g>
   <g id="text_31">
    <!-- 3.67% -->
    <g transform="translate(301.59257 336.081462) rotate(-45) scale(0.1 -0.1)">
     <use xlink:href="#DejaVuSans-33"/>
     <use xlink:href="#DejaVuSans-2e" x="63.623047"/>
     <use xlink:href="#DejaVuSans-36" x="95.410156"/>
     <use xlink:href="#DejaVuSans-37" x="159.033203"/>
     <use xlink:href="#DejaVuSans-25" x="222.65625"/>
    </g>
   </g>
   <g id="text_32">
    <!-- 3.35% -->
    <g transform="translate(329.709602 336.253624) rotate(-45) scale(0.1 -0.1)">
     <use xlink:href="#DejaVuSans-33"/>
     <use xlink:href="#DejaVuSans-2e" x="63.623047"/>
     <use xlink:href="#DejaVuSans-33" x="95.410156"/>
     <use xlink:href="#DejaVuSans-35" x="159.033203"/>
     <use xlink:href="#DejaVuSans-25" x="222.65625"/>
    </g>
   </g>
   <g id="text_33">
    <!-- 3.11% -->
    <g transform="translate(357.826635 336.373648) rotate(-45) scale(0.1 -0.1)">
     <use xlink:href="#DejaVuSans-33"/>
     <use xlink:href="#DejaVuSans-2e" x="63.623047"/>
     <use xlink:href="#DejaVuSans-31" x="95.410156"/>
     <use xlink:href="#DejaVuSans-31" x="159.033203"/>
     <use xlink:href="#DejaVuSans-25" x="222.65625"/>
    </g>
   </g>
   <g id="text_34">
    <!-- 2.87% -->
    <g transform="translate(385.943667 336.453469) rotate(-45) scale(0.1 -0.1)">
     <use xlink:href="#DejaVuSans-32"/>
     <use xlink:href="#DejaVuSans-2e" x="63.623047"/>
     <use xlink:href="#DejaVuSans-38" x="95.410156"/>
     <use xlink:href="#DejaVuSans-37" x="159.033203"/>
     <use xlink:href="#DejaVuSans-25" x="222.65625"/>
    </g>
   </g>
   <g id="text_35">
    <!-- 2.49% -->
    <g transform="translate(414.0607 336.525155) rotate(-45) scale(0.1 -0.1)">
     <use xlink:href="#DejaVuSans-32"/>
     <use xlink:href="#DejaVuSans-2e" x="63.623047"/>
     <use xlink:href="#DejaVuSans-34" x="95.410156"/>
     <use xlink:href="#DejaVuSans-39" x="159.033203"/>
     <use xlink:href="#DejaVuSans-25" x="222.65625"/>
    </g>
   </g>
   <g id="text_36">
    <!-- 2.18% -->
    <g transform="translate(442.177732 336.592235) rotate(-45) scale(0.1 -0.1)">
     <use xlink:href="#DejaVuSans-32"/>
     <use xlink:href="#DejaVuSans-2e" x="63.623047"/>
     <use xlink:href="#DejaVuSans-31" x="95.410156"/>
     <use xlink:href="#DejaVuSans-38" x="159.033203"/>
     <use xlink:href="#DejaVuSans-25" x="222.65625"/>
    </g>
   </g>
   <g id="text_37">
    <!-- 2.13% -->
    <g transform="translate(470.294764 336.65696) rotate(-45) scale(0.1 -0.1)">
     <use xlink:href="#DejaVuSans-32"/>
     <use xlink:href="#DejaVuSans-2e" x="63.623047"/>
     <use xlink:href="#DejaVuSans-31" x="95.410156"/>
     <use xlink:href="#DejaVuSans-33" x="159.033203"/>
     <use xlink:href="#DejaVuSans-25" x="222.65625"/>
    </g>
   </g>
   <g id="text_38">
    <!-- 2.17% -->
    <g transform="translate(498.411797 336.665287) rotate(-45) scale(0.1 -0.1)">
     <use xlink:href="#DejaVuSans-32"/>
     <use xlink:href="#DejaVuSans-2e" x="63.623047"/>
     <use xlink:href="#DejaVuSans-31" x="95.410156"/>
     <use xlink:href="#DejaVuSans-37" x="159.033203"/>
     <use xlink:href="#DejaVuSans-25" x="222.65625"/>
    </g>
   </g>
   <g id="text_39">
    <!-- 2.08% -->
    <g transform="translate(526.528829 336.686622) rotate(-45) scale(0.1 -0.1)">
     <use xlink:href="#DejaVuSans-32"/>
     <use xlink:href="#DejaVuSans-2e" x="63.623047"/>
     <use xlink:href="#DejaVuSans-30" x="95.410156"/>
     <use xlink:href="#DejaVuSans-38" x="159.033203"/>
     <use xlink:href="#DejaVuSans-25" x="222.65625"/>
    </g>
   </g>
   <g id="text_40">
    <!-- RLE spark .parquet vs .ignition -->
    <g transform="translate(228.376688 12.7563) scale(0.12 -0.12)">
     <defs>
      <path id="DejaVuSans-52" d="M 2841 2188 
Q 3044 2119 3236 1894 
Q 3428 1669 3622 1275 
L 4263 0 
L 3584 0 
L 2988 1197 
Q 2756 1666 2539 1819 
Q 2322 1972 1947 1972 
L 1259 1972 
L 1259 0 
L 628 0 
L 628 4666 
L 2053 4666 
Q 2853 4666 3247 4331 
Q 3641 3997 3641 3322 
Q 3641 2881 3436 2590 
Q 3231 2300 2841 2188 
z
M 1259 4147 
L 1259 2491 
L 2053 2491 
Q 2509 2491 2742 2702 
Q 2975 2913 2975 3322 
Q 2975 3731 2742 3939 
Q 2509 4147 2053 4147 
L 1259 4147 
z
" transform="scale(0.015625)"/>
      <path id="DejaVuSans-4c" d="M 628 4666 
L 1259 4666 
L 1259 531 
L 3531 531 
L 3531 0 
L 628 0 
L 628 4666 
z
" transform="scale(0.015625)"/>
      <path id="DejaVuSans-45" d="M 628 4666 
L 3578 4666 
L 3578 4134 
L 1259 4134 
L 1259 2753 
L 3481 2753 
L 3481 2222 
L 1259 2222 
L 1259 531 
L 3634 531 
L 3634 0 
L 628 0 
L 628 4666 
z
" transform="scale(0.015625)"/>
      <path id="DejaVuSans-70" d="M 1159 525 
L 1159 -1331 
L 581 -1331 
L 581 3500 
L 1159 3500 
L 1159 2969 
Q 1341 3281 1617 3432 
Q 1894 3584 2278 3584 
Q 2916 3584 3314 3078 
Q 3713 2572 3713 1747 
Q 3713 922 3314 415 
Q 2916 -91 2278 -91 
Q 1894 -91 1617 61 
Q 1341 213 1159 525 
z
M 3116 1747 
Q 3116 2381 2855 2742 
Q 2594 3103 2138 3103 
Q 1681 3103 1420 2742 
Q 1159 2381 1159 1747 
Q 1159 1113 1420 752 
Q 1681 391 2138 391 
Q 2594 391 2855 752 
Q 3116 1113 3116 1747 
z
" transform="scale(0.015625)"/>
      <path id="DejaVuSans-6b" d="M 581 4863 
L 1159 4863 
L 1159 1991 
L 2875 3500 
L 3609 3500 
L 1753 1863 
L 3688 0 
L 2938 0 
L 1159 1709 
L 1159 0 
L 581 0 
L 581 4863 
z
" transform="scale(0.015625)"/>
      <path id="DejaVuSans-71" d="M 947 1747 
Q 947 1113 1208 752 
Q 1469 391 1925 391 
Q 2381 391 2643 752 
Q 2906 1113 2906 1747 
Q 2906 2381 2643 2742 
Q 2381 3103 1925 3103 
Q 1469 3103 1208 2742 
Q 947 2381 947 1747 
z
M 2906 525 
Q 2725 213 2448 61 
Q 2172 -91 1784 -91 
Q 1150 -91 751 415 
Q 353 922 353 1747 
Q 353 2572 751 3078 
Q 1150 3584 1784 3584 
Q 2172 3584 2448 3432 
Q 2725 3281 2906 2969 
L 2906 3500 
L 3481 3500 
L 3481 -1331 
L 2906 -1331 
L 2906 525 
z
" transform="scale(0.015625)"/>
      <path id="DejaVuSans-75" d="M 544 1381 
L 544 3500 
L 1119 3500 
L 1119 1403 
Q 1119 906 1312 657 
Q 1506 409 1894 409 
Q 2359 409 2629 706 
Q 2900 1003 2900 1516 
L 2900 3500 
L 3475 3500 
L 3475 0 
L 2900 0 
L 2900 538 
Q 2691 219 2414 64 
Q 2138 -91 1772 -91 
Q 1169 -91 856 284 
Q 544 659 544 1381 
z
M 1991 3584 
L 1991 3584 
z
" transform="scale(0.015625)"/>
      <path id="DejaVuSans-76" d="M 191 3500 
L 800 3500 
L 1894 563 
L 2988 3500 
L 3597 3500 
L 2284 0 
L 1503 0 
L 191 3500 
z
" transform="scale(0.015625)"/>
      <path id="DejaVuSans-69" d="M 603 3500 
L 1178 3500 
L 1178 0 
L 603 0 
L 603 3500 
z
M 603 4863 
L 1178 4863 
L 1178 4134 
L 603 4134 
L 603 4863 
z
" transform="scale(0.015625)"/>
      <path id="DejaVuSans-67" d="M 2906 1791 
Q 2906 2416 2648 2759 
Q 2391 3103 1925 3103 
Q 1463 3103 1205 2759 
Q 947 2416 947 1791 
Q 947 1169 1205 825 
Q 1463 481 1925 481 
Q 2391 481 2648 825 
Q 2906 1169 2906 1791 
z
M 3481 434 
Q 3481 -459 3084 -895 
Q 2688 -1331 1869 -1331 
Q 1566 -1331 1297 -1286 
Q 1028 -1241 775 -1147 
L 775 -588 
Q 1028 -725 1275 -790 
Q 1522 -856 1778 -856 
Q 2344 -856 2625 -561 
Q 2906 -266 2906 331 
L 2906 616 
Q 2728 306 2450 153 
Q 2172 0 1784 0 
Q 1141 0 747 490 
Q 353 981 353 1791 
Q 353 2603 747 3093 
Q 1141 3584 1784 3584 
Q 2172 3584 2450 3431 
Q 2728 3278 2906 2969 
L 2906 3500 
L 3481 3500 
L 3481 434 
z
" transform="scale(0.015625)"/>
      <path id="DejaVuSans-6f" d="M 1959 3097 
Q 1497 3097 1228 2736 
Q 959 2375 959 1747 
Q 959 1119 1226 758 
Q 1494 397 1959 397 
Q 2419 397 2687 759 
Q 2956 1122 2956 1747 
Q 2956 2369 2687 2733 
Q 2419 3097 1959 3097 
z
M 1959 3584 
Q 2709 3584 3137 3096 
Q 3566 2609 3566 1747 
Q 3566 888 3137 398 
Q 2709 -91 1959 -91 
Q 1206 -91 779 398 
Q 353 888 353 1747 
Q 353 2609 779 3096 
Q 1206 3584 1959 3584 
z
" transform="scale(0.015625)"/>
     </defs>
     <use xlink:href="#DejaVuSans-52"/>
     <use xlink:href="#DejaVuSans-4c" x="69.482422"/>
     <use xlink:href="#DejaVuSans-45" x="125.195312"/>
     <use xlink:href="#DejaVuSans-20" x="188.378906"/>
     <use xlink:href="#DejaVuSans-73" x="220.166016"/>
     <use xlink:href="#DejaVuSans-70" x="272.265625"/>
     <use xlink:href="#DejaVuSans-61" x="335.742188"/>
     <use xlink:href="#DejaVuSans-72" x="397.021484"/>
     <use xlink:href="#DejaVuSans-6b" x="438.134766"/>
     <use xlink:href="#DejaVuSans-20" x="496.044922"/>
     <use xlink:href="#DejaVuSans-2e" x="527.832031"/>
     <use xlink:href="#DejaVuSans-70" x="559.619141"/>
     <use xlink:href="#DejaVuSans-61" x="623.095703"/>
     <use xlink:href="#DejaVuSans-72" x="684.375"/>
     <use xlink:href="#DejaVuSans-71" x="723.738281"/>
     <use xlink:href="#DejaVuSans-75" x="787.214844"/>
     <use xlink:href="#DejaVuSans-65" x="850.59375"/>
     <use xlink:href="#DejaVuSans-74" x="912.117188"/>
     <use xlink:href="#DejaVuSans-20" x="951.326172"/>
     <use xlink:href="#DejaVuSans-76" x="983.113281"/>
     <use xlink:href="#DejaVuSans-73" x="1042.292969"/>
     <use xlink:href="#DejaVuSans-20" x="1094.392578"/>
     <use xlink:href="#DejaVuSans-2e" x="1126.179688"/>
     <use xlink:href="#DejaVuSans-69" x="1157.966797"/>
     <use xlink:href="#DejaVuSans-67" x="1185.75"/>
     <use xlink:href="#DejaVuSans-6e" x="1249.226562"/>
     <use xlink:href="#DejaVuSans-69" x="1312.605469"/>
     <use xlink:href="#DejaVuSans-74" x="1340.388672"/>
     <use xlink:href="#DejaVuSans-69" x="1379.597656"/>
     <use xlink:href="#DejaVuSans-6f" x="1407.380859"/>
     <use xlink:href="#DejaVuSans-6e" x="1468.5625"/>
    </g>
    <!-- query: SELECT col1, COUNT(col1) FROM 1_Agencia_ID GROUP BY col1 ORDER BY COUNT(col1) DESC -->
    <g transform="translate(19.795125 26.193675) scale(0.12 -0.12)">
     <defs>
      <path id="DejaVuSans-3a" d="M 750 794 
L 1409 794 
L 1409 0 
L 750 0 
L 750 794 
z
M 750 3309 
L 1409 3309 
L 1409 2516 
L 750 2516 
L 750 3309 
z
" transform="scale(0.015625)"/>
      <path id="DejaVuSans-53" d="M 3425 4513 
L 3425 3897 
Q 3066 4069 2747 4153 
Q 2428 4238 2131 4238 
Q 1616 4238 1336 4038 
Q 1056 3838 1056 3469 
Q 1056 3159 1242 3001 
Q 1428 2844 1947 2747 
L 2328 2669 
Q 3034 2534 3370 2195 
Q 3706 1856 3706 1288 
Q 3706 609 3251 259 
Q 2797 -91 1919 -91 
Q 1588 -91 1214 -16 
Q 841 59 441 206 
L 441 856 
Q 825 641 1194 531 
Q 1563 422 1919 422 
Q 2459 422 2753 634 
Q 3047 847 3047 1241 
Q 3047 1584 2836 1778 
Q 2625 1972 2144 2069 
L 1759 2144 
Q 1053 2284 737 2584 
Q 422 2884 422 3419 
Q 422 4038 858 4394 
Q 1294 4750 2059 4750 
Q 2388 4750 2728 4690 
Q 3069 4631 3425 4513 
z
" transform="scale(0.015625)"/>
      <path id="DejaVuSans-43" d="M 4122 4306 
L 4122 3641 
Q 3803 3938 3442 4084 
Q 3081 4231 2675 4231 
Q 1875 4231 1450 3742 
Q 1025 3253 1025 2328 
Q 1025 1406 1450 917 
Q 1875 428 2675 428 
Q 3081 428 3442 575 
Q 3803 722 4122 1019 
L 4122 359 
Q 3791 134 3420 21 
Q 3050 -91 2638 -91 
Q 1578 -91 968 557 
Q 359 1206 359 2328 
Q 359 3453 968 4101 
Q 1578 4750 2638 4750 
Q 3056 4750 3426 4639 
Q 3797 4528 4122 4306 
z
" transform="scale(0.015625)"/>
      <path id="DejaVuSans-54" d="M -19 4666 
L 3928 4666 
L 3928 4134 
L 2272 4134 
L 2272 0 
L 1638 0 
L 1638 4134 
L -19 4134 
L -19 4666 
z
" transform="scale(0.015625)"/>
      <path id="DejaVuSans-2c" d="M 750 794 
L 1409 794 
L 1409 256 
L 897 -744 
L 494 -744 
L 750 256 
L 750 794 
z
" transform="scale(0.015625)"/>
      <path id="DejaVuSans-4f" d="M 2522 4238 
Q 1834 4238 1429 3725 
Q 1025 3213 1025 2328 
Q 1025 1447 1429 934 
Q 1834 422 2522 422 
Q 3209 422 3611 934 
Q 4013 1447 4013 2328 
Q 4013 3213 3611 3725 
Q 3209 4238 2522 4238 
z
M 2522 4750 
Q 3503 4750 4090 4092 
Q 4678 3434 4678 2328 
Q 4678 1225 4090 567 
Q 3503 -91 2522 -91 
Q 1538 -91 948 565 
Q 359 1222 359 2328 
Q 359 3434 948 4092 
Q 1538 4750 2522 4750 
z
" transform="scale(0.015625)"/>
      <path id="DejaVuSans-55" d="M 556 4666 
L 1191 4666 
L 1191 1831 
Q 1191 1081 1462 751 
Q 1734 422 2344 422 
Q 2950 422 3222 751 
Q 3494 1081 3494 1831 
L 3494 4666 
L 4128 4666 
L 4128 1753 
Q 4128 841 3676 375 
Q 3225 -91 2344 -91 
Q 1459 -91 1007 375 
Q 556 841 556 1753 
L 556 4666 
z
" transform="scale(0.015625)"/>
      <path id="DejaVuSans-4e" d="M 628 4666 
L 1478 4666 
L 3547 763 
L 3547 4666 
L 4159 4666 
L 4159 0 
L 3309 0 
L 1241 3903 
L 1241 0 
L 628 0 
L 628 4666 
z
" transform="scale(0.015625)"/>
      <path id="DejaVuSans-46" d="M 628 4666 
L 3309 4666 
L 3309 4134 
L 1259 4134 
L 1259 2759 
L 3109 2759 
L 3109 2228 
L 1259 2228 
L 1259 0 
L 628 0 
L 628 4666 
z
" transform="scale(0.015625)"/>
      <path id="DejaVuSans-4d" d="M 628 4666 
L 1569 4666 
L 2759 1491 
L 3956 4666 
L 4897 4666 
L 4897 0 
L 4281 0 
L 4281 4097 
L 3078 897 
L 2444 897 
L 1241 4097 
L 1241 0 
L 628 0 
L 628 4666 
z
" transform="scale(0.015625)"/>
      <path id="DejaVuSans-5f" d="M 3263 -1063 
L 3263 -1509 
L -63 -1509 
L -63 -1063 
L 3263 -1063 
z
" transform="scale(0.015625)"/>
      <path id="DejaVuSans-41" d="M 2188 4044 
L 1331 1722 
L 3047 1722 
L 2188 4044 
z
M 1831 4666 
L 2547 4666 
L 4325 0 
L 3669 0 
L 3244 1197 
L 1141 1197 
L 716 0 
L 50 0 
L 1831 4666 
z
" transform="scale(0.015625)"/>
      <path id="DejaVuSans-49" d="M 628 4666 
L 1259 4666 
L 1259 0 
L 628 0 
L 628 4666 
z
" transform="scale(0.015625)"/>
      <path id="DejaVuSans-44" d="M 1259 4147 
L 1259 519 
L 2022 519 
Q 2988 519 3436 956 
Q 3884 1394 3884 2338 
Q 3884 3275 3436 3711 
Q 2988 4147 2022 4147 
L 1259 4147 
z
M 628 4666 
L 1925 4666 
Q 3281 4666 3915 4102 
Q 4550 3538 4550 2338 
Q 4550 1131 3912 565 
Q 3275 0 1925 0 
L 628 0 
L 628 4666 
z
" transform="scale(0.015625)"/>
      <path id="DejaVuSans-47" d="M 3809 666 
L 3809 1919 
L 2778 1919 
L 2778 2438 
L 4434 2438 
L 4434 434 
Q 4069 175 3628 42 
Q 3188 -91 2688 -91 
Q 1594 -91 976 548 
Q 359 1188 359 2328 
Q 359 3472 976 4111 
Q 1594 4750 2688 4750 
Q 3144 4750 3555 4637 
Q 3966 4525 4313 4306 
L 4313 3634 
Q 3963 3931 3569 4081 
Q 3175 4231 2741 4231 
Q 1884 4231 1454 3753 
Q 1025 3275 1025 2328 
Q 1025 1384 1454 906 
Q 1884 428 2741 428 
Q 3075 428 3337 486 
Q 3600 544 3809 666 
z
" transform="scale(0.015625)"/>
      <path id="DejaVuSans-50" d="M 1259 4147 
L 1259 2394 
L 2053 2394 
Q 2494 2394 2734 2622 
Q 2975 2850 2975 3272 
Q 2975 3691 2734 3919 
Q 2494 4147 2053 4147 
L 1259 4147 
z
M 628 4666 
L 2053 4666 
Q 2838 4666 3239 4311 
Q 3641 3956 3641 3272 
Q 3641 2581 3239 2228 
Q 2838 1875 2053 1875 
L 1259 1875 
L 1259 0 
L 628 0 
L 628 4666 
z
" transform="scale(0.015625)"/>
      <path id="DejaVuSans-42" d="M 1259 2228 
L 1259 519 
L 2272 519 
Q 2781 519 3026 730 
Q 3272 941 3272 1375 
Q 3272 1813 3026 2020 
Q 2781 2228 2272 2228 
L 1259 2228 
z
M 1259 4147 
L 1259 2741 
L 2194 2741 
Q 2656 2741 2882 2914 
Q 3109 3088 3109 3444 
Q 3109 3797 2882 3972 
Q 2656 4147 2194 4147 
L 1259 4147 
z
M 628 4666 
L 2241 4666 
Q 2963 4666 3353 4366 
Q 3744 4066 3744 3513 
Q 3744 3084 3544 2831 
Q 3344 2578 2956 2516 
Q 3422 2416 3680 2098 
Q 3938 1781 3938 1306 
Q 3938 681 3513 340 
Q 3088 0 2303 0 
L 628 0 
L 628 4666 
z
" transform="scale(0.015625)"/>
      <path id="DejaVuSans-59" d="M -13 4666 
L 666 4666 
L 1959 2747 
L 3244 4666 
L 3922 4666 
L 2272 2222 
L 2272 0 
L 1638 0 
L 1638 2222 
L -13 4666 
z
" transform="scale(0.015625)"/>
     </defs>
     <use xlink:href="#DejaVuSans-71"/>
     <use xlink:href="#DejaVuSans-75" x="63.476562"/>
     <use xlink:href="#DejaVuSans-65" x="126.855469"/>
     <use xlink:href="#DejaVuSans-72" x="188.378906"/>
     <use xlink:href="#DejaVuSans-79" x="229.492188"/>
     <use xlink:href="#DejaVuSans-3a" x="281.421875"/>
     <use xlink:href="#DejaVuSans-20" x="315.113281"/>
     <use xlink:href="#DejaVuSans-53" x="346.900391"/>
     <use xlink:href="#DejaVuSans-45" x="410.376953"/>
     <use xlink:href="#DejaVuSans-4c" x="473.560547"/>
     <use xlink:href="#DejaVuSans-45" x="529.273438"/>
     <use xlink:href="#DejaVuSans-43" x="592.457031"/>
     <use xlink:href="#DejaVuSans-54" x="662.28125"/>
     <use xlink:href="#DejaVuSans-20" x="723.365234"/>
     <use xlink:href="#DejaVuSans-63" x="755.152344"/>
     <use xlink:href="#DejaVuSans-6f" x="810.132812"/>
     <use xlink:href="#DejaVuSans-6c" x="871.314453"/>
     <use xlink:href="#DejaVuSans-31" x="899.097656"/>
     <use xlink:href="#DejaVuSans-2c" x="962.720703"/>
     <use xlink:href="#DejaVuSans-20" x="994.507812"/>
     <use xlink:href="#DejaVuSans-43" x="1026.294922"/>
     <use xlink:href="#DejaVuSans-4f" x="1096.119141"/>
     <use xlink:href="#DejaVuSans-55" x="1174.830078"/>
     <use xlink:href="#DejaVuSans-4e" x="1248.023438"/>
     <use xlink:href="#DejaVuSans-54" x="1322.828125"/>
     <use xlink:href="#DejaVuSans-28" x="1383.912109"/>
     <use xlink:href="#DejaVuSans-63" x="1422.925781"/>
     <use xlink:href="#DejaVuSans-6f" x="1477.90625"/>
     <use xlink:href="#DejaVuSans-6c" x="1539.087891"/>
     <use xlink:href="#DejaVuSans-31" x="1566.871094"/>
     <use xlink:href="#DejaVuSans-29" x="1630.494141"/>
     <use xlink:href="#DejaVuSans-20" x="1669.507812"/>
     <use xlink:href="#DejaVuSans-46" x="1701.294922"/>
     <use xlink:href="#DejaVuSans-52" x="1758.814453"/>
     <use xlink:href="#DejaVuSans-4f" x="1828.296875"/>
     <use xlink:href="#DejaVuSans-4d" x="1907.007812"/>
     <use xlink:href="#DejaVuSans-20" x="1993.287109"/>
     <use xlink:href="#DejaVuSans-31" x="2025.074219"/>
     <use xlink:href="#DejaVuSans-5f" x="2088.697266"/>
     <use xlink:href="#DejaVuSans-41" x="2138.697266"/>
     <use xlink:href="#DejaVuSans-67" x="2207.105469"/>
     <use xlink:href="#DejaVuSans-65" x="2270.582031"/>
     <use xlink:href="#DejaVuSans-6e" x="2332.105469"/>
     <use xlink:href="#DejaVuSans-63" x="2395.484375"/>
     <use xlink:href="#DejaVuSans-69" x="2450.464844"/>
     <use xlink:href="#DejaVuSans-61" x="2478.248047"/>
     <use xlink:href="#DejaVuSans-5f" x="2539.527344"/>
     <use xlink:href="#DejaVuSans-49" x="2589.527344"/>
     <use xlink:href="#DejaVuSans-44" x="2619.019531"/>
     <use xlink:href="#DejaVuSans-20" x="2696.021484"/>
     <use xlink:href="#DejaVuSans-47" x="2727.808594"/>
     <use xlink:href="#DejaVuSans-52" x="2805.298828"/>
     <use xlink:href="#DejaVuSans-4f" x="2874.78125"/>
     <use xlink:href="#DejaVuSans-55" x="2953.492188"/>
     <use xlink:href="#DejaVuSans-50" x="3026.685547"/>
     <use xlink:href="#DejaVuSans-20" x="3086.988281"/>
     <use xlink:href="#DejaVuSans-42" x="3118.775391"/>
     <use xlink:href="#DejaVuSans-59" x="3181.878906"/>
     <use xlink:href="#DejaVuSans-20" x="3242.962891"/>
     <use xlink:href="#DejaVuSans-63" x="3274.75"/>
     <use xlink:href="#DejaVuSans-6f" x="3329.730469"/>
     <use xlink:href="#DejaVuSans-6c" x="3390.912109"/>
     <use xlink:href="#DejaVuSans-31" x="3418.695312"/>
     <use xlink:href="#DejaVuSans-20" x="3482.318359"/>
     <use xlink:href="#DejaVuSans-4f" x="3514.105469"/>
     <use xlink:href="#DejaVuSans-52" x="3592.816406"/>
     <use xlink:href="#DejaVuSans-44" x="3662.298828"/>
     <use xlink:href="#DejaVuSans-45" x="3739.300781"/>
     <use xlink:href="#DejaVuSans-52" x="3802.484375"/>
     <use xlink:href="#DejaVuSans-20" x="3871.966797"/>
     <use xlink:href="#DejaVuSans-42" x="3903.753906"/>
     <use xlink:href="#DejaVuSans-59" x="3966.857422"/>
     <use xlink:href="#DejaVuSans-20" x="4027.941406"/>
     <use xlink:href="#DejaVuSans-43" x="4059.728516"/>
     <use xlink:href="#DejaVuSans-4f" x="4129.552734"/>
     <use xlink:href="#DejaVuSans-55" x="4208.263672"/>
     <use xlink:href="#DejaVuSans-4e" x="4281.457031"/>
     <use xlink:href="#DejaVuSans-54" x="4356.261719"/>
     <use xlink:href="#DejaVuSans-28" x="4417.345703"/>
     <use xlink:href="#DejaVuSans-63" x="4456.359375"/>
     <use xlink:href="#DejaVuSans-6f" x="4511.339844"/>
     <use xlink:href="#DejaVuSans-6c" x="4572.521484"/>
     <use xlink:href="#DejaVuSans-31" x="4600.304688"/>
     <use xlink:href="#DejaVuSans-29" x="4663.927734"/>
     <use xlink:href="#DejaVuSans-20" x="4702.941406"/>
     <use xlink:href="#DejaVuSans-44" x="4734.728516"/>
     <use xlink:href="#DejaVuSans-45" x="4811.730469"/>
     <use xlink:href="#DejaVuSans-53" x="4874.914062"/>
     <use xlink:href="#DejaVuSans-43" x="4938.390625"/>
    </g>
    <!--  -->
    <g transform="translate(320.292 39.9648) scale(0.12 -0.12)"/>
   </g>
   <g id="legend_1">
    <g id="patch_55">
     <path d="M 443.510875 142.03355 
L 555.464 142.03355 
Q 557.464 142.03355 557.464 140.03355 
L 557.464 52.9648 
Q 557.464 50.9648 555.464 50.9648 
L 443.510875 50.9648 
Q 441.510875 50.9648 441.510875 52.9648 
L 441.510875 140.03355 
Q 441.510875 142.03355 443.510875 142.03355 
z
" style="fill: #ffffff; opacity: 0.8; stroke: #cccccc; stroke-linejoin: miter"/>
    </g>
    <g id="text_41">
     <!-- Legend -->
     <g transform="translate(481.118688 62.563238) scale(0.1 -0.1)">
      <use xlink:href="#DejaVuSans-4c"/>
      <use xlink:href="#DejaVuSans-65" x="53.962891"/>
      <use xlink:href="#DejaVuSans-67" x="115.486328"/>
      <use xlink:href="#DejaVuSans-65" x="178.962891"/>
      <use xlink:href="#DejaVuSans-6e" x="240.486328"/>
      <use xlink:href="#DejaVuSans-64" x="303.865234"/>
     </g>
    </g>
    <g id="patch_56">
     <path d="M 445.510875 77.241363 
L 465.510875 77.241363 
L 465.510875 70.241363 
L 445.510875 70.241363 
z
" style="fill: #ff0000"/>
    </g>
    <g id="text_42">
     <!-- spark -->
     <g transform="translate(473.510875 77.241363) scale(0.1 -0.1)">
      <use xlink:href="#DejaVuSans-73"/>
      <use xlink:href="#DejaVuSans-70" x="52.099609"/>
      <use xlink:href="#DejaVuSans-61" x="115.576172"/>
      <use xlink:href="#DejaVuSans-72" x="176.855469"/>
      <use xlink:href="#DejaVuSans-6b" x="217.96875"/>
     </g>
    </g>
    <g id="patch_57">
     <path d="M 445.510875 91.919488 
L 465.510875 91.919488 
L 465.510875 84.919488 
L 445.510875 84.919488 
z
" style="fill: #ffa500"/>
    </g>
    <g id="text_43">
     <!-- ignition runtime -->
     <g transform="translate(473.510875 91.919488) scale(0.1 -0.1)">
      <use xlink:href="#DejaVuSans-69"/>
      <use xlink:href="#DejaVuSans-67" x="27.783203"/>
      <use xlink:href="#DejaVuSans-6e" x="91.259766"/>
      <use xlink:href="#DejaVuSans-69" x="154.638672"/>
      <use xlink:href="#DejaVuSans-74" x="182.421875"/>
      <use xlink:href="#DejaVuSans-69" x="221.630859"/>
      <use xlink:href="#DejaVuSans-6f" x="249.414062"/>
      <use xlink:href="#DejaVuSans-6e" x="310.595703"/>
      <use xlink:href="#DejaVuSans-20" x="373.974609"/>
      <use xlink:href="#DejaVuSans-72" x="405.761719"/>
      <use xlink:href="#DejaVuSans-75" x="446.875"/>
      <use xlink:href="#DejaVuSans-6e" x="510.253906"/>
      <use xlink:href="#DejaVuSans-74" x="573.632812"/>
      <use xlink:href="#DejaVuSans-69" x="612.841797"/>
      <use xlink:href="#DejaVuSans-6d" x="640.625"/>
      <use xlink:href="#DejaVuSans-65" x="738.037109"/>
     </g>
    </g>
    <g id="patch_58">
     <path d="M 445.510875 106.597613 
L 465.510875 106.597613 
L 465.510875 99.597613 
L 445.510875 99.597613 
z
" style="fill: #1e90ff"/>
    </g>
    <g id="text_44">
     <!-- ignition-spark -->
     <g transform="translate(473.510875 106.597613) scale(0.1 -0.1)">
      <defs>
       <path id="DejaVuSans-2d" d="M 313 2009 
L 1997 2009 
L 1997 1497 
L 313 1497 
L 313 2009 
z
" transform="scale(0.015625)"/>
      </defs>
      <use xlink:href="#DejaVuSans-69"/>
      <use xlink:href="#DejaVuSans-67" x="27.783203"/>
      <use xlink:href="#DejaVuSans-6e" x="91.259766"/>
      <use xlink:href="#DejaVuSans-69" x="154.638672"/>
      <use xlink:href="#DejaVuSans-74" x="182.421875"/>
      <use xlink:href="#DejaVuSans-69" x="221.630859"/>
      <use xlink:href="#DejaVuSans-6f" x="249.414062"/>
      <use xlink:href="#DejaVuSans-6e" x="310.595703"/>
      <use xlink:href="#DejaVuSans-2d" x="373.974609"/>
      <use xlink:href="#DejaVuSans-73" x="410.058594"/>
      <use xlink:href="#DejaVuSans-70" x="462.158203"/>
      <use xlink:href="#DejaVuSans-61" x="525.634766"/>
      <use xlink:href="#DejaVuSans-72" x="586.914062"/>
      <use xlink:href="#DejaVuSans-6b" x="628.027344"/>
     </g>
    </g>
    <g id="line2d_29">
     <path d="M 445.510875 117.775738 
L 455.510875 117.775738 
L 465.510875 117.775738 
" style="fill: none; stroke-dasharray: 7.4,3.2; stroke-dashoffset: 0; stroke: #f08080; stroke-width: 2"/>
     <g>
      <use xlink:href="#mfa598a45d7" x="455.510875" y="117.775738" style="fill: #f08080; stroke: #f08080"/>
     </g>
    </g>
    <g id="text_45">
     <!-- ideal (spark) -->
     <g transform="translate(473.510875 121.275738) scale(0.1 -0.1)">
      <use xlink:href="#DejaVuSans-69"/>
      <use xlink:href="#DejaVuSans-64" x="27.783203"/>
      <use xlink:href="#DejaVuSans-65" x="91.259766"/>
      <use xlink:href="#DejaVuSans-61" x="152.783203"/>
      <use xlink:href="#DejaVuSans-6c" x="214.0625"/>
      <use xlink:href="#DejaVuSans-20" x="241.845703"/>
      <use xlink:href="#DejaVuSans-28" x="273.632812"/>
      <use xlink:href="#DejaVuSans-73" x="312.646484"/>
      <use xlink:href="#DejaVuSans-70" x="364.746094"/>
      <use xlink:href="#DejaVuSans-61" x="428.222656"/>
      <use xlink:href="#DejaVuSans-72" x="489.501953"/>
      <use xlink:href="#DejaVuSans-6b" x="530.615234"/>
      <use xlink:href="#DejaVuSans-29" x="588.525391"/>
     </g>
    </g>
    <g id="line2d_30">
     <path d="M 445.510875 132.453863 
L 455.510875 132.453863 
L 465.510875 132.453863 
" style="fill: none; stroke-dasharray: 7.4,3.2; stroke-dashoffset: 0; stroke: #afeeee; stroke-width: 2"/>
     <g>
      <use xlink:href="#med1c45d98b" x="455.510875" y="132.453863" style="fill: #afeeee; stroke: #afeeee"/>
     </g>
    </g>
    <g id="text_46">
     <!-- ideal (ignition) -->
     <g transform="translate(473.510875 135.953863) scale(0.1 -0.1)">
      <use xlink:href="#DejaVuSans-69"/>
      <use xlink:href="#DejaVuSans-64" x="27.783203"/>
      <use xlink:href="#DejaVuSans-65" x="91.259766"/>
      <use xlink:href="#DejaVuSans-61" x="152.783203"/>
      <use xlink:href="#DejaVuSans-6c" x="214.0625"/>
      <use xlink:href="#DejaVuSans-20" x="241.845703"/>
      <use xlink:href="#DejaVuSans-28" x="273.632812"/>
      <use xlink:href="#DejaVuSans-69" x="312.646484"/>
      <use xlink:href="#DejaVuSans-67" x="340.429688"/>
      <use xlink:href="#DejaVuSans-6e" x="403.90625"/>
      <use xlink:href="#DejaVuSans-69" x="467.285156"/>
      <use xlink:href="#DejaVuSans-74" x="495.068359"/>
      <use xlink:href="#DejaVuSans-69" x="534.277344"/>
      <use xlink:href="#DejaVuSans-6f" x="562.060547"/>
      <use xlink:href="#DejaVuSans-6e" x="623.242188"/>
      <use xlink:href="#DejaVuSans-29" x="686.621094"/>
     </g>
    </g>
   </g>
  </g>
 </g>
 <defs>
  <clipPath id="pbb7931a352">
   <rect x="78.12" y="45.9648" width="484.344" height="294.9408"/>
  </clipPath>
 </defs>
</svg>
