<?xml version="1.0" encoding="utf-8" standalone="no"?>
<!DOCTYPE svg PUBLIC "-//W3C//DTD SVG 1.1//EN"
  "http://www.w3.org/Graphics/SVG/1.1/DTD/svg11.dtd">
<svg xmlns:xlink="http://www.w3.org/1999/xlink" width="552.96pt" height="311.04pt" viewBox="0 0 552.96 311.04" xmlns="http://www.w3.org/2000/svg" version="1.1">
 <metadata>
  <rdf:RDF xmlns:dc="http://purl.org/dc/elements/1.1/" xmlns:cc="http://creativecommons.org/ns#" xmlns:rdf="http://www.w3.org/1999/02/22-rdf-syntax-ns#">
   <cc:Work>
    <dc:type rdf:resource="http://purl.org/dc/dcmitype/StillImage"/>
    <dc:date>2025-01-29T00:02:26.756263</dc:date>
    <dc:format>image/svg+xml</dc:format>
    <dc:creator>
     <cc:Agent>
      <dc:title>Matplotlib v3.6.3, https://matplotlib.org/</dc:title>
     </cc:Agent>
    </dc:creator>
   </cc:Work>
  </rdf:RDF>
 </metadata>
 <defs>
  <style type="text/css">*{stroke-linejoin: round; stroke-linecap: butt}</style>
 </defs>
 <g id="figure_1">
  <g id="patch_1">
   <path d="M 0 311.04 
L 552.96 311.04 
L 552.96 0 
L 0 0 
z
" style="fill: #ffffff"/>
  </g>
  <g id="axes_1">
   <g id="patch_2">
    <path d="M 69.12 276.8256 
L 497.664 276.8256 
L 497.664 37.3248 
L 69.12 37.3248 
z
" style="fill: #ffffff"/>
   </g>
   <g id="patch_3">
    <path d="M 88.599273 276.8256 
L 96.316151 276.8256 
L 96.316151 271.956589 
L 88.599273 271.956589 
z
" clip-path="url(#pc1070832d5)" style="fill: #cc1100"/>
   </g>
   <g id="patch_4">
    <path d="M 111.983754 276.8256 
L 119.700633 276.8256 
L 119.700633 274.055703 
L 111.983754 274.055703 
z
" clip-path="url(#pc1070832d5)" style="fill: #cc1100"/>
   </g>
   <g id="patch_5">
    <path d="M 135.368235 276.8256 
L 143.085114 276.8256 
L 143.085114 275.318843 
L 135.368235 275.318843 
z
" clip-path="url(#pc1070832d5)" style="fill: #cc1100"/>
   </g>
   <g id="patch_6">
    <path d="M 158.752716 276.8256 
L 166.469595 276.8256 
L 166.469595 272.744174 
L 158.752716 272.744174 
z
" clip-path="url(#pc1070832d5)" style="fill: #cc1100"/>
   </g>
   <g id="patch_7">
    <path d="M 182.137197 276.8256 
L 189.854076 276.8256 
L 189.854076 274.708131 
L 182.137197 274.708131 
z
" clip-path="url(#pc1070832d5)" style="fill: #cc1100"/>
   </g>
   <g id="patch_8">
    <path d="M 205.521678 276.8256 
L 213.238557 276.8256 
L 213.238557 274.085738 
L 205.521678 274.085738 
z
" clip-path="url(#pc1070832d5)" style="fill: #cc1100"/>
   </g>
   <g id="patch_9">
    <path d="M 228.906159 276.8256 
L 236.623038 276.8256 
L 236.623038 271.098922 
L 228.906159 271.098922 
z
" clip-path="url(#pc1070832d5)" style="fill: #cc1100"/>
   </g>
   <g id="patch_10">
    <path d="M 252.29064 276.8256 
L 260.007519 276.8256 
L 260.007519 269.358559 
L 252.29064 269.358559 
z
" clip-path="url(#pc1070832d5)" style="fill: #cc1100"/>
   </g>
   <g id="patch_11">
    <path d="M 275.675121 276.8256 
L 283.392 276.8256 
L 283.392 274.377745 
L 275.675121 274.377745 
z
" clip-path="url(#pc1070832d5)" style="fill: #cc1100"/>
   </g>
   <g id="patch_12">
    <path d="M 299.059602 276.8256 
L 306.776481 276.8256 
L 306.776481 274.207547 
L 299.059602 274.207547 
z
" clip-path="url(#pc1070832d5)" style="fill: #cc1100"/>
   </g>
   <g id="patch_13">
    <path d="M 322.444083 276.8256 
L 330.160962 276.8256 
L 330.160962 275.101923 
L 322.444083 275.101923 
z
" clip-path="url(#pc1070832d5)" style="fill: #cc1100"/>
   </g>
   <g id="patch_14">
    <path d="M 345.828564 276.8256 
L 353.545443 276.8256 
L 353.545443 273.371572 
L 345.828564 273.371572 
z
" clip-path="url(#pc1070832d5)" style="fill: #cc1100"/>
   </g>
   <g id="patch_15">
    <path d="M 369.213046 276.8256 
L 376.929924 276.8256 
L 376.929924 269.518746 
L 369.213046 269.518746 
z
" clip-path="url(#pc1070832d5)" style="fill: #cc1100"/>
   </g>
   <g id="patch_16">
    <path d="M 392.597527 276.8256 
L 400.314405 276.8256 
L 400.314405 270.074394 
L 392.597527 270.074394 
z
" clip-path="url(#pc1070832d5)" style="fill: #cc1100"/>
   </g>
   <g id="patch_17">
    <path d="M 415.982008 276.8256 
L 423.698886 276.8256 
L 423.698886 272.221898 
L 415.982008 272.221898 
z
" clip-path="url(#pc1070832d5)" style="fill: #cc1100"/>
   </g>
   <g id="patch_18">
    <path d="M 439.366489 276.8256 
L 447.083367 276.8256 
L 447.083367 275.180348 
L 439.366489 275.180348 
z
" clip-path="url(#pc1070832d5)" style="fill: #cc1100"/>
   </g>
   <g id="patch_19">
    <path d="M 462.75097 276.8256 
L 470.467849 276.8256 
L 470.467849 271.3659 
L 462.75097 271.3659 
z
" clip-path="url(#pc1070832d5)" style="fill: #cc1100"/>
   </g>
   <g id="patch_20">
    <path d="M 88.599273 271.956589 
L 96.316151 271.956589 
L 96.316151 253.616868 
L 88.599273 253.616868 
z
" clip-path="url(#pc1070832d5)" style="fill: #ff4400"/>
   </g>
   <g id="patch_21">
    <path d="M 111.983754 274.055703 
L 119.700633 274.055703 
L 119.700633 213.997331 
L 111.983754 213.997331 
z
" clip-path="url(#pc1070832d5)" style="fill: #ff4400"/>
   </g>
   <g id="patch_22">
    <path d="M 135.368235 275.318843 
L 143.085114 275.318843 
L 143.085114 228.787913 
L 135.368235 228.787913 
z
" clip-path="url(#pc1070832d5)" style="fill: #ff4400"/>
   </g>
   <g id="patch_23">
    <path d="M 158.752716 272.744174 
L 166.469595 272.744174 
L 166.469595 167.611571 
L 158.752716 167.611571 
z
" clip-path="url(#pc1070832d5)" style="fill: #ff4400"/>
   </g>
   <g id="patch_24">
    <path d="M 182.137197 274.708131 
L 189.854076 274.708131 
L 189.854076 272.221898 
L 182.137197 272.221898 
z
" clip-path="url(#pc1070832d5)" style="fill: #ff4400"/>
   </g>
   <g id="patch_25">
    <path d="M 205.521678 274.085738 
L 213.238557 274.085738 
L 213.238557 179.752396 
L 205.521678 179.752396 
z
" clip-path="url(#pc1070832d5)" style="fill: #ff4400"/>
   </g>
   <g id="patch_26">
    <path d="M 228.906159 271.098922 
L 236.623038 271.098922 
L 236.623038 165.902911 
L 228.906159 165.902911 
z
" clip-path="url(#pc1070832d5)" style="fill: #ff4400"/>
   </g>
   <g id="patch_27">
    <path d="M 252.29064 269.358559 
L 260.007519 269.358559 
L 260.007519 95.505816 
L 252.29064 95.505816 
z
" clip-path="url(#pc1070832d5)" style="fill: #ff4400"/>
   </g>
   <g id="patch_28">
    <path d="M 275.675121 274.377745 
L 283.392 274.377745 
L 283.392 224.839976 
L 275.675121 224.839976 
z
" clip-path="url(#pc1070832d5)" style="fill: #ff4400"/>
   </g>
   <g id="patch_29">
    <path d="M 299.059602 274.207547 
L 306.776481 274.207547 
L 306.776481 243.363244 
L 299.059602 243.363244 
z
" clip-path="url(#pc1070832d5)" style="fill: #ff4400"/>
   </g>
   <g id="patch_30">
    <path d="M 322.444083 275.101923 
L 330.160962 275.101923 
L 330.160962 267.186025 
L 322.444083 267.186025 
z
" clip-path="url(#pc1070832d5)" style="fill: #ff4400"/>
   </g>
   <g id="patch_31">
    <path d="M 345.828564 273.371572 
L 353.545443 273.371572 
L 353.545443 266.705465 
L 345.828564 266.705465 
z
" clip-path="url(#pc1070832d5)" style="fill: #ff4400"/>
   </g>
   <g id="patch_32">
    <path d="M 369.213046 269.518746 
L 376.929924 269.518746 
L 376.929924 135.701024 
L 369.213046 135.701024 
z
" clip-path="url(#pc1070832d5)" style="fill: #ff4400"/>
   </g>
   <g id="patch_33">
    <path d="M 392.597527 270.074394 
L 400.314405 270.074394 
L 400.314405 112.822677 
L 392.597527 112.822677 
z
" clip-path="url(#pc1070832d5)" style="fill: #ff4400"/>
   </g>
   <g id="patch_34">
    <path d="M 415.982008 272.221898 
L 423.698886 272.221898 
L 423.698886 264.311006 
L 415.982008 264.311006 
z
" clip-path="url(#pc1070832d5)" style="fill: #ff4400"/>
   </g>
   <g id="patch_35">
    <path d="M 439.366489 275.180348 
L 447.083367 275.180348 
L 447.083367 250.850308 
L 439.366489 250.850308 
z
" clip-path="url(#pc1070832d5)" style="fill: #ff4400"/>
   </g>
   <g id="patch_36">
    <path d="M 462.75097 271.3659 
L 470.467849 271.3659 
L 470.467849 66.441922 
L 462.75097 66.441922 
z
" clip-path="url(#pc1070832d5)" style="fill: #ff4400"/>
   </g>
   <g id="patch_37">
    <path d="M 96.316151 276.8256 
L 104.03303 276.8256 
L 104.03303 265.510738 
L 96.316151 265.510738 
z
" clip-path="url(#pc1070832d5)" style="fill: #0067c0"/>
   </g>
   <g id="patch_38">
    <path d="M 119.700633 276.8256 
L 127.417511 276.8256 
L 127.417511 268.140472 
L 119.700633 268.140472 
z
" clip-path="url(#pc1070832d5)" style="fill: #0067c0"/>
   </g>
   <g id="patch_39">
    <path d="M 143.085114 276.8256 
L 150.801992 276.8256 
L 150.801992 270.578315 
L 143.085114 270.578315 
z
" clip-path="url(#pc1070832d5)" style="fill: #0067c0"/>
   </g>
   <g id="patch_40">
    <path d="M 166.469595 276.8256 
L 174.186473 276.8256 
L 174.186473 270.116109 
L 166.469595 270.116109 
z
" clip-path="url(#pc1070832d5)" style="fill: #0067c0"/>
   </g>
   <g id="patch_41">
    <path d="M 189.854076 276.8256 
L 197.570954 276.8256 
L 197.570954 267.880168 
L 189.854076 267.880168 
z
" clip-path="url(#pc1070832d5)" style="fill: #0067c0"/>
   </g>
   <g id="patch_42">
    <path d="M 213.238557 276.8256 
L 220.955436 276.8256 
L 220.955436 268.090413 
L 213.238557 268.090413 
z
" clip-path="url(#pc1070832d5)" style="fill: #0067c0"/>
   </g>
   <g id="patch_43">
    <path d="M 236.623038 276.8256 
L 244.339917 276.8256 
L 244.339917 269.787392 
L 236.623038 269.787392 
z
" clip-path="url(#pc1070832d5)" style="fill: #0067c0"/>
   </g>
   <g id="patch_44">
    <path d="M 260.007519 276.8256 
L 267.724398 276.8256 
L 267.724398 267.766702 
L 260.007519 267.766702 
z
" clip-path="url(#pc1070832d5)" style="fill: #0067c0"/>
   </g>
   <g id="patch_45">
    <path d="M 283.392 276.8256 
L 291.108879 276.8256 
L 291.108879 270.104429 
L 283.392 270.104429 
z
" clip-path="url(#pc1070832d5)" style="fill: #0067c0"/>
   </g>
   <g id="patch_46">
    <path d="M 306.776481 276.8256 
L 314.49336 276.8256 
L 314.49336 267.823435 
L 306.776481 267.823435 
z
" clip-path="url(#pc1070832d5)" style="fill: #0067c0"/>
   </g>
   <g id="patch_47">
    <path d="M 330.160962 276.8256 
L 337.877841 276.8256 
L 337.877841 269.351884 
L 330.160962 269.351884 
z
" clip-path="url(#pc1070832d5)" style="fill: #0067c0"/>
   </g>
   <g id="patch_48">
    <path d="M 353.545443 276.8256 
L 361.262322 276.8256 
L 361.262322 263.448333 
L 353.545443 263.448333 
z
" clip-path="url(#pc1070832d5)" style="fill: #0067c0"/>
   </g>
   <g id="patch_49">
    <path d="M 376.929924 276.8256 
L 384.646803 276.8256 
L 384.646803 267.437986 
L 376.929924 267.437986 
z
" clip-path="url(#pc1070832d5)" style="fill: #0067c0"/>
   </g>
   <g id="patch_50">
    <path d="M 400.314405 276.8256 
L 408.031284 276.8256 
L 408.031284 263.737003 
L 400.314405 263.737003 
z
" clip-path="url(#pc1070832d5)" style="fill: #0067c0"/>
   </g>
   <g id="patch_51">
    <path d="M 423.698886 276.8256 
L 431.415765 276.8256 
L 431.415765 267.915209 
L 423.698886 267.915209 
z
" clip-path="url(#pc1070832d5)" style="fill: #0067c0"/>
   </g>
   <g id="patch_52">
    <path d="M 447.083367 276.8256 
L 454.800246 276.8256 
L 454.800246 272.085072 
L 447.083367 272.085072 
z
" clip-path="url(#pc1070832d5)" style="fill: #0067c0"/>
   </g>
   <g id="patch_53">
    <path d="M 470.467849 276.8256 
L 478.184727 276.8256 
L 478.184727 261.898192 
L 470.467849 261.898192 
z
" clip-path="url(#pc1070832d5)" style="fill: #0067c0"/>
   </g>
   <g id="patch_54">
    <path d="M 96.316151 265.510738 
L 104.03303 265.510738 
L 104.03303 236.977463 
L 96.316151 236.977463 
z
" clip-path="url(#pc1070832d5)" style="fill: #069af3"/>
   </g>
   <g id="patch_55">
    <path d="M 119.700633 268.140472 
L 127.417511 268.140472 
L 127.417511 205.654268 
L 119.700633 205.654268 
z
" clip-path="url(#pc1070832d5)" style="fill: #069af3"/>
   </g>
   <g id="patch_56">
    <path d="M 143.085114 270.578315 
L 150.801992 270.578315 
L 150.801992 222.604035 
L 143.085114 222.604035 
z
" clip-path="url(#pc1070832d5)" style="fill: #069af3"/>
   </g>
   <g id="patch_57">
    <path d="M 166.469595 270.116109 
L 174.186473 270.116109 
L 174.186473 160.209605 
L 166.469595 160.209605 
z
" clip-path="url(#pc1070832d5)" style="fill: #069af3"/>
   </g>
   <g id="patch_58">
    <path d="M 189.854076 267.880168 
L 197.570954 267.880168 
L 197.570954 264.562966 
L 189.854076 264.562966 
z
" clip-path="url(#pc1070832d5)" style="fill: #069af3"/>
   </g>
   <g id="patch_59">
    <path d="M 213.238557 268.090413 
L 220.955436 268.090413 
L 220.955436 167.105981 
L 213.238557 167.105981 
z
" clip-path="url(#pc1070832d5)" style="fill: #069af3"/>
   </g>
   <g id="patch_60">
    <path d="M 236.623038 269.787392 
L 244.339917 269.787392 
L 244.339917 164.673144 
L 236.623038 164.673144 
z
" clip-path="url(#pc1070832d5)" style="fill: #069af3"/>
   </g>
   <g id="patch_61">
    <path d="M 260.007519 267.766702 
L 267.724398 267.766702 
L 267.724398 88.510992 
L 260.007519 88.510992 
z
" clip-path="url(#pc1070832d5)" style="fill: #069af3"/>
   </g>
   <g id="patch_62">
    <path d="M 283.392 270.104429 
L 291.108879 270.104429 
L 291.108879 212.335393 
L 283.392 212.335393 
z
" clip-path="url(#pc1070832d5)" style="fill: #069af3"/>
   </g>
   <g id="patch_63">
    <path d="M 306.776481 267.823435 
L 314.49336 267.823435 
L 314.49336 229.034868 
L 306.776481 229.034868 
z
" clip-path="url(#pc1070832d5)" style="fill: #069af3"/>
   </g>
   <g id="patch_64">
    <path d="M 330.160962 269.351884 
L 337.877841 269.351884 
L 337.877841 257.760033 
L 330.160962 257.760033 
z
" clip-path="url(#pc1070832d5)" style="fill: #069af3"/>
   </g>
   <g id="patch_65">
    <path d="M 353.545443 263.448333 
L 361.262322 263.448333 
L 361.262322 245.644237 
L 353.545443 245.644237 
z
" clip-path="url(#pc1070832d5)" style="fill: #069af3"/>
   </g>
   <g id="patch_66">
    <path d="M 376.929924 267.437986 
L 384.646803 267.437986 
L 384.646803 84.130884 
L 376.929924 84.130884 
z
" clip-path="url(#pc1070832d5)" style="fill: #069af3"/>
   </g>
   <g id="patch_67">
    <path d="M 400.314405 263.737003 
L 408.031284 263.737003 
L 408.031284 106.810666 
L 400.314405 106.810666 
z
" clip-path="url(#pc1070832d5)" style="fill: #069af3"/>
   </g>
   <g id="patch_68">
    <path d="M 423.698886 267.915209 
L 431.415765 267.915209 
L 431.415765 248.988137 
L 423.698886 248.988137 
z
" clip-path="url(#pc1070832d5)" style="fill: #069af3"/>
   </g>
   <g id="patch_69">
    <path d="M 447.083367 272.085072 
L 454.800246 272.085072 
L 454.800246 244.870001 
L 447.083367 244.870001 
z
" clip-path="url(#pc1070832d5)" style="fill: #069af3"/>
   </g>
   <g id="patch_70">
    <path d="M 470.467849 261.898192 
L 478.184727 261.898192 
L 478.184727 48.7296 
L 470.467849 48.7296 
z
" clip-path="url(#pc1070832d5)" style="fill: #069af3"/>
   </g>
   <g id="matplotlib.axis_1">
    <g id="xtick_1">
     <g id="line2d_1">
      <defs>
       <path id="m4a1f9b5ff8" d="M 0 0 
L 0 3.5 
" style="stroke: #000000; stroke-width: 0.8"/>
      </defs>
      <g>
       <use xlink:href="#m4a1f9b5ff8" x="96.316151" y="276.8256" style="stroke: #000000; stroke-width: 0.8"/>
      </g>
     </g>
     <g id="text_1">
      <!-- q1 -->
      <g transform="translate(89.960683 291.424038) scale(0.1 -0.1)">
       <defs>
        <path id="DejaVuSans-71" d="M 947 1747 
Q 947 1113 1208 752 
Q 1469 391 1925 391 
Q 2381 391 2643 752 
Q 2906 1113 2906 1747 
Q 2906 2381 2643 2742 
Q 2381 3103 1925 3103 
Q 1469 3103 1208 2742 
Q 947 2381 947 1747 
z
M 2906 525 
Q 2725 213 2448 61 
Q 2172 -91 1784 -91 
Q 1150 -91 751 415 
Q 353 922 353 1747 
Q 353 2572 751 3078 
Q 1150 3584 1784 3584 
Q 2172 3584 2448 3432 
Q 2725 3281 2906 2969 
L 2906 3500 
L 3481 3500 
L 3481 -1331 
L 2906 -1331 
L 2906 525 
z
" transform="scale(0.015625)"/>
        <path id="DejaVuSans-31" d="M 794 531 
L 1825 531 
L 1825 4091 
L 703 3866 
L 703 4441 
L 1819 4666 
L 2450 4666 
L 2450 531 
L 3481 531 
L 3481 0 
L 794 0 
L 794 531 
z
" transform="scale(0.015625)"/>
       </defs>
       <use xlink:href="#DejaVuSans-71"/>
       <use xlink:href="#DejaVuSans-31" x="63.476562"/>
      </g>
     </g>
    </g>
    <g id="xtick_2">
     <g id="line2d_2">
      <g>
       <use xlink:href="#m4a1f9b5ff8" x="119.700633" y="276.8256" style="stroke: #000000; stroke-width: 0.8"/>
      </g>
     </g>
     <g id="text_2">
      <!-- q3 -->
      <g transform="translate(113.345164 291.424038) scale(0.1 -0.1)">
       <defs>
        <path id="DejaVuSans-33" d="M 2597 2516 
Q 3050 2419 3304 2112 
Q 3559 1806 3559 1356 
Q 3559 666 3084 287 
Q 2609 -91 1734 -91 
Q 1441 -91 1130 -33 
Q 819 25 488 141 
L 488 750 
Q 750 597 1062 519 
Q 1375 441 1716 441 
Q 2309 441 2620 675 
Q 2931 909 2931 1356 
Q 2931 1769 2642 2001 
Q 2353 2234 1838 2234 
L 1294 2234 
L 1294 2753 
L 1863 2753 
Q 2328 2753 2575 2939 
Q 2822 3125 2822 3475 
Q 2822 3834 2567 4026 
Q 2313 4219 1838 4219 
Q 1578 4219 1281 4162 
Q 984 4106 628 3988 
L 628 4550 
Q 988 4650 1302 4700 
Q 1616 4750 1894 4750 
Q 2613 4750 3031 4423 
Q 3450 4097 3450 3541 
Q 3450 3153 3228 2886 
Q 3006 2619 2597 2516 
z
" transform="scale(0.015625)"/>
       </defs>
       <use xlink:href="#DejaVuSans-71"/>
       <use xlink:href="#DejaVuSans-33" x="63.476562"/>
      </g>
     </g>
    </g>
    <g id="xtick_3">
     <g id="line2d_3">
      <g>
       <use xlink:href="#m4a1f9b5ff8" x="143.085114" y="276.8256" style="stroke: #000000; stroke-width: 0.8"/>
      </g>
     </g>
     <g id="text_3">
      <!-- q4 -->
      <g transform="translate(136.729645 291.424038) scale(0.1 -0.1)">
       <defs>
        <path id="DejaVuSans-34" d="M 2419 4116 
L 825 1625 
L 2419 1625 
L 2419 4116 
z
M 2253 4666 
L 3047 4666 
L 3047 1625 
L 3713 1625 
L 3713 1100 
L 3047 1100 
L 3047 0 
L 2419 0 
L 2419 1100 
L 313 1100 
L 313 1709 
L 2253 4666 
z
" transform="scale(0.015625)"/>
       </defs>
       <use xlink:href="#DejaVuSans-71"/>
       <use xlink:href="#DejaVuSans-34" x="63.476562"/>
      </g>
     </g>
    </g>
    <g id="xtick_4">
     <g id="line2d_4">
      <g>
       <use xlink:href="#m4a1f9b5ff8" x="166.469595" y="276.8256" style="stroke: #000000; stroke-width: 0.8"/>
      </g>
     </g>
     <g id="text_4">
      <!-- q5 -->
      <g transform="translate(160.114126 291.424038) scale(0.1 -0.1)">
       <defs>
        <path id="DejaVuSans-35" d="M 691 4666 
L 3169 4666 
L 3169 4134 
L 1269 4134 
L 1269 2991 
Q 1406 3038 1543 3061 
Q 1681 3084 1819 3084 
Q 2600 3084 3056 2656 
Q 3513 2228 3513 1497 
Q 3513 744 3044 326 
Q 2575 -91 1722 -91 
Q 1428 -91 1123 -41 
Q 819 9 494 109 
L 494 744 
Q 775 591 1075 516 
Q 1375 441 1709 441 
Q 2250 441 2565 725 
Q 2881 1009 2881 1497 
Q 2881 1984 2565 2268 
Q 2250 2553 1709 2553 
Q 1456 2553 1204 2497 
Q 953 2441 691 2322 
L 691 4666 
z
" transform="scale(0.015625)"/>
       </defs>
       <use xlink:href="#DejaVuSans-71"/>
       <use xlink:href="#DejaVuSans-35" x="63.476562"/>
      </g>
     </g>
    </g>
    <g id="xtick_5">
     <g id="line2d_5">
      <g>
       <use xlink:href="#m4a1f9b5ff8" x="189.854076" y="276.8256" style="stroke: #000000; stroke-width: 0.8"/>
      </g>
     </g>
     <g id="text_5">
      <!-- q6 -->
      <g transform="translate(183.498607 291.424038) scale(0.1 -0.1)">
       <defs>
        <path id="DejaVuSans-36" d="M 2113 2584 
Q 1688 2584 1439 2293 
Q 1191 2003 1191 1497 
Q 1191 994 1439 701 
Q 1688 409 2113 409 
Q 2538 409 2786 701 
Q 3034 994 3034 1497 
Q 3034 2003 2786 2293 
Q 2538 2584 2113 2584 
z
M 3366 4563 
L 3366 3988 
Q 3128 4100 2886 4159 
Q 2644 4219 2406 4219 
Q 1781 4219 1451 3797 
Q 1122 3375 1075 2522 
Q 1259 2794 1537 2939 
Q 1816 3084 2150 3084 
Q 2853 3084 3261 2657 
Q 3669 2231 3669 1497 
Q 3669 778 3244 343 
Q 2819 -91 2113 -91 
Q 1303 -91 875 529 
Q 447 1150 447 2328 
Q 447 3434 972 4092 
Q 1497 4750 2381 4750 
Q 2619 4750 2861 4703 
Q 3103 4656 3366 4563 
z
" transform="scale(0.015625)"/>
       </defs>
       <use xlink:href="#DejaVuSans-71"/>
       <use xlink:href="#DejaVuSans-36" x="63.476562"/>
      </g>
     </g>
    </g>
    <g id="xtick_6">
     <g id="line2d_6">
      <g>
       <use xlink:href="#m4a1f9b5ff8" x="213.238557" y="276.8256" style="stroke: #000000; stroke-width: 0.8"/>
      </g>
     </g>
     <g id="text_6">
      <!-- q7 -->
      <g transform="translate(206.883088 291.424038) scale(0.1 -0.1)">
       <defs>
        <path id="DejaVuSans-37" d="M 525 4666 
L 3525 4666 
L 3525 4397 
L 1831 0 
L 1172 0 
L 2766 4134 
L 525 4134 
L 525 4666 
z
" transform="scale(0.015625)"/>
       </defs>
       <use xlink:href="#DejaVuSans-71"/>
       <use xlink:href="#DejaVuSans-37" x="63.476562"/>
      </g>
     </g>
    </g>
    <g id="xtick_7">
     <g id="line2d_7">
      <g>
       <use xlink:href="#m4a1f9b5ff8" x="236.623038" y="276.8256" style="stroke: #000000; stroke-width: 0.8"/>
      </g>
     </g>
     <g id="text_7">
      <!-- q8 -->
      <g transform="translate(230.267569 291.424038) scale(0.1 -0.1)">
       <defs>
        <path id="DejaVuSans-38" d="M 2034 2216 
Q 1584 2216 1326 1975 
Q 1069 1734 1069 1313 
Q 1069 891 1326 650 
Q 1584 409 2034 409 
Q 2484 409 2743 651 
Q 3003 894 3003 1313 
Q 3003 1734 2745 1975 
Q 2488 2216 2034 2216 
z
M 1403 2484 
Q 997 2584 770 2862 
Q 544 3141 544 3541 
Q 544 4100 942 4425 
Q 1341 4750 2034 4750 
Q 2731 4750 3128 4425 
Q 3525 4100 3525 3541 
Q 3525 3141 3298 2862 
Q 3072 2584 2669 2484 
Q 3125 2378 3379 2068 
Q 3634 1759 3634 1313 
Q 3634 634 3220 271 
Q 2806 -91 2034 -91 
Q 1263 -91 848 271 
Q 434 634 434 1313 
Q 434 1759 690 2068 
Q 947 2378 1403 2484 
z
M 1172 3481 
Q 1172 3119 1398 2916 
Q 1625 2713 2034 2713 
Q 2441 2713 2670 2916 
Q 2900 3119 2900 3481 
Q 2900 3844 2670 4047 
Q 2441 4250 2034 4250 
Q 1625 4250 1398 4047 
Q 1172 3844 1172 3481 
z
" transform="scale(0.015625)"/>
       </defs>
       <use xlink:href="#DejaVuSans-71"/>
       <use xlink:href="#DejaVuSans-38" x="63.476562"/>
      </g>
     </g>
    </g>
    <g id="xtick_8">
     <g id="line2d_8">
      <g>
       <use xlink:href="#m4a1f9b5ff8" x="260.007519" y="276.8256" style="stroke: #000000; stroke-width: 0.8"/>
      </g>
     </g>
     <g id="text_8">
      <!-- q9 -->
      <g transform="translate(253.65205 291.424038) scale(0.1 -0.1)">
       <defs>
        <path id="DejaVuSans-39" d="M 703 97 
L 703 672 
Q 941 559 1184 500 
Q 1428 441 1663 441 
Q 2288 441 2617 861 
Q 2947 1281 2994 2138 
Q 2813 1869 2534 1725 
Q 2256 1581 1919 1581 
Q 1219 1581 811 2004 
Q 403 2428 403 3163 
Q 403 3881 828 4315 
Q 1253 4750 1959 4750 
Q 2769 4750 3195 4129 
Q 3622 3509 3622 2328 
Q 3622 1225 3098 567 
Q 2575 -91 1691 -91 
Q 1453 -91 1209 -44 
Q 966 3 703 97 
z
M 1959 2075 
Q 2384 2075 2632 2365 
Q 2881 2656 2881 3163 
Q 2881 3666 2632 3958 
Q 2384 4250 1959 4250 
Q 1534 4250 1286 3958 
Q 1038 3666 1038 3163 
Q 1038 2656 1286 2365 
Q 1534 2075 1959 2075 
z
" transform="scale(0.015625)"/>
       </defs>
       <use xlink:href="#DejaVuSans-71"/>
       <use xlink:href="#DejaVuSans-39" x="63.476562"/>
      </g>
     </g>
    </g>
    <g id="xtick_9">
     <g id="line2d_9">
      <g>
       <use xlink:href="#m4a1f9b5ff8" x="283.392" y="276.8256" style="stroke: #000000; stroke-width: 0.8"/>
      </g>
     </g>
     <g id="text_9">
      <!-- q10 -->
      <g transform="translate(273.855281 291.424038) scale(0.1 -0.1)">
       <defs>
        <path id="DejaVuSans-30" d="M 2034 4250 
Q 1547 4250 1301 3770 
Q 1056 3291 1056 2328 
Q 1056 1369 1301 889 
Q 1547 409 2034 409 
Q 2525 409 2770 889 
Q 3016 1369 3016 2328 
Q 3016 3291 2770 3770 
Q 2525 4250 2034 4250 
z
M 2034 4750 
Q 2819 4750 3233 4129 
Q 3647 3509 3647 2328 
Q 3647 1150 3233 529 
Q 2819 -91 2034 -91 
Q 1250 -91 836 529 
Q 422 1150 422 2328 
Q 422 3509 836 4129 
Q 1250 4750 2034 4750 
z
" transform="scale(0.015625)"/>
       </defs>
       <use xlink:href="#DejaVuSans-71"/>
       <use xlink:href="#DejaVuSans-31" x="63.476562"/>
       <use xlink:href="#DejaVuSans-30" x="127.099609"/>
      </g>
     </g>
    </g>
    <g id="xtick_10">
     <g id="line2d_10">
      <g>
       <use xlink:href="#m4a1f9b5ff8" x="306.776481" y="276.8256" style="stroke: #000000; stroke-width: 0.8"/>
      </g>
     </g>
     <g id="text_10">
      <!-- q12 -->
      <g transform="translate(297.239762 291.424038) scale(0.1 -0.1)">
       <defs>
        <path id="DejaVuSans-32" d="M 1228 531 
L 3431 531 
L 3431 0 
L 469 0 
L 469 531 
Q 828 903 1448 1529 
Q 2069 2156 2228 2338 
Q 2531 2678 2651 2914 
Q 2772 3150 2772 3378 
Q 2772 3750 2511 3984 
Q 2250 4219 1831 4219 
Q 1534 4219 1204 4116 
Q 875 4013 500 3803 
L 500 4441 
Q 881 4594 1212 4672 
Q 1544 4750 1819 4750 
Q 2544 4750 2975 4387 
Q 3406 4025 3406 3419 
Q 3406 3131 3298 2873 
Q 3191 2616 2906 2266 
Q 2828 2175 2409 1742 
Q 1991 1309 1228 531 
z
" transform="scale(0.015625)"/>
       </defs>
       <use xlink:href="#DejaVuSans-71"/>
       <use xlink:href="#DejaVuSans-31" x="63.476562"/>
       <use xlink:href="#DejaVuSans-32" x="127.099609"/>
      </g>
     </g>
    </g>
    <g id="xtick_11">
     <g id="line2d_11">
      <g>
       <use xlink:href="#m4a1f9b5ff8" x="330.160962" y="276.8256" style="stroke: #000000; stroke-width: 0.8"/>
      </g>
     </g>
     <g id="text_11">
      <!-- q14 -->
      <g transform="translate(320.624243 291.424038) scale(0.1 -0.1)">
       <use xlink:href="#DejaVuSans-71"/>
       <use xlink:href="#DejaVuSans-31" x="63.476562"/>
       <use xlink:href="#DejaVuSans-34" x="127.099609"/>
      </g>
     </g>
    </g>
    <g id="xtick_12">
     <g id="line2d_12">
      <g>
       <use xlink:href="#m4a1f9b5ff8" x="353.545443" y="276.8256" style="stroke: #000000; stroke-width: 0.8"/>
      </g>
     </g>
     <g id="text_12">
      <!-- q15 -->
      <g transform="translate(344.008724 291.424038) scale(0.1 -0.1)">
       <use xlink:href="#DejaVuSans-71"/>
       <use xlink:href="#DejaVuSans-31" x="63.476562"/>
       <use xlink:href="#DejaVuSans-35" x="127.099609"/>
      </g>
     </g>
    </g>
    <g id="xtick_13">
     <g id="line2d_13">
      <g>
       <use xlink:href="#m4a1f9b5ff8" x="376.929924" y="276.8256" style="stroke: #000000; stroke-width: 0.8"/>
      </g>
     </g>
     <g id="text_13">
      <!-- q17 -->
      <g transform="translate(367.393206 291.424038) scale(0.1 -0.1)">
       <use xlink:href="#DejaVuSans-71"/>
       <use xlink:href="#DejaVuSans-31" x="63.476562"/>
       <use xlink:href="#DejaVuSans-37" x="127.099609"/>
      </g>
     </g>
    </g>
    <g id="xtick_14">
     <g id="line2d_14">
      <g>
       <use xlink:href="#m4a1f9b5ff8" x="400.314405" y="276.8256" style="stroke: #000000; stroke-width: 0.8"/>
      </g>
     </g>
     <g id="text_14">
      <!-- q18 -->
      <g transform="translate(390.777687 291.424038) scale(0.1 -0.1)">
       <use xlink:href="#DejaVuSans-71"/>
       <use xlink:href="#DejaVuSans-31" x="63.476562"/>
       <use xlink:href="#DejaVuSans-38" x="127.099609"/>
      </g>
     </g>
    </g>
    <g id="xtick_15">
     <g id="line2d_15">
      <g>
       <use xlink:href="#m4a1f9b5ff8" x="423.698886" y="276.8256" style="stroke: #000000; stroke-width: 0.8"/>
      </g>
     </g>
     <g id="text_15">
      <!-- q19 -->
      <g transform="translate(414.162168 291.424038) scale(0.1 -0.1)">
       <use xlink:href="#DejaVuSans-71"/>
       <use xlink:href="#DejaVuSans-31" x="63.476562"/>
       <use xlink:href="#DejaVuSans-39" x="127.099609"/>
      </g>
     </g>
    </g>
    <g id="xtick_16">
     <g id="line2d_16">
      <g>
       <use xlink:href="#m4a1f9b5ff8" x="447.083367" y="276.8256" style="stroke: #000000; stroke-width: 0.8"/>
      </g>
     </g>
     <g id="text_16">
      <!-- q20 -->
      <g transform="translate(437.546649 291.424038) scale(0.1 -0.1)">
       <use xlink:href="#DejaVuSans-71"/>
       <use xlink:href="#DejaVuSans-32" x="63.476562"/>
       <use xlink:href="#DejaVuSans-30" x="127.099609"/>
      </g>
     </g>
    </g>
    <g id="xtick_17">
     <g id="line2d_17">
      <g>
       <use xlink:href="#m4a1f9b5ff8" x="470.467849" y="276.8256" style="stroke: #000000; stroke-width: 0.8"/>
      </g>
     </g>
     <g id="text_17">
      <!-- q21 -->
      <g transform="translate(460.93113 291.424038) scale(0.1 -0.1)">
       <use xlink:href="#DejaVuSans-71"/>
       <use xlink:href="#DejaVuSans-32" x="63.476562"/>
       <use xlink:href="#DejaVuSans-31" x="127.099609"/>
      </g>
     </g>
    </g>
   </g>
   <g id="matplotlib.axis_2">
    <g id="ytick_1">
     <g id="line2d_18">
      <path d="M 69.12 276.8256 
L 497.664 276.8256 
" clip-path="url(#pc1070832d5)" style="fill: none; stroke-dasharray: 2.96,1.28; stroke-dashoffset: 0; stroke: #b0b0b0; stroke-width: 0.8"/>
     </g>
     <g id="line2d_19">
      <defs>
       <path id="me8de096751" d="M 0 0 
L -3.5 0 
" style="stroke: #000000; stroke-width: 0.8"/>
      </defs>
      <g>
       <use xlink:href="#me8de096751" x="69.12" y="276.8256" style="stroke: #000000; stroke-width: 0.8"/>
      </g>
     </g>
     <g id="text_18">
      <!-- 0 -->
      <g transform="translate(55.7575 280.624819) scale(0.1 -0.1)">
       <use xlink:href="#DejaVuSans-30"/>
      </g>
     </g>
    </g>
    <g id="ytick_2">
     <g id="line2d_20">
      <path d="M 69.12 243.453349 
L 497.664 243.453349 
" clip-path="url(#pc1070832d5)" style="fill: none; stroke-dasharray: 2.96,1.28; stroke-dashoffset: 0; stroke: #b0b0b0; stroke-width: 0.8"/>
     </g>
     <g id="line2d_21">
      <g>
       <use xlink:href="#me8de096751" x="69.12" y="243.453349" style="stroke: #000000; stroke-width: 0.8"/>
      </g>
     </g>
     <g id="text_19">
      <!-- 20 -->
      <g transform="translate(49.395 247.252568) scale(0.1 -0.1)">
       <use xlink:href="#DejaVuSans-32"/>
       <use xlink:href="#DejaVuSans-30" x="63.623047"/>
      </g>
     </g>
    </g>
    <g id="ytick_3">
     <g id="line2d_22">
      <path d="M 69.12 210.081098 
L 497.664 210.081098 
" clip-path="url(#pc1070832d5)" style="fill: none; stroke-dasharray: 2.96,1.28; stroke-dashoffset: 0; stroke: #b0b0b0; stroke-width: 0.8"/>
     </g>
     <g id="line2d_23">
      <g>
       <use xlink:href="#me8de096751" x="69.12" y="210.081098" style="stroke: #000000; stroke-width: 0.8"/>
      </g>
     </g>
     <g id="text_20">
      <!-- 40 -->
      <g transform="translate(49.395 213.880316) scale(0.1 -0.1)">
       <use xlink:href="#DejaVuSans-34"/>
       <use xlink:href="#DejaVuSans-30" x="63.623047"/>
      </g>
     </g>
    </g>
    <g id="ytick_4">
     <g id="line2d_24">
      <path d="M 69.12 176.708846 
L 497.664 176.708846 
" clip-path="url(#pc1070832d5)" style="fill: none; stroke-dasharray: 2.96,1.28; stroke-dashoffset: 0; stroke: #b0b0b0; stroke-width: 0.8"/>
     </g>
     <g id="line2d_25">
      <g>
       <use xlink:href="#me8de096751" x="69.12" y="176.708846" style="stroke: #000000; stroke-width: 0.8"/>
      </g>
     </g>
     <g id="text_21">
      <!-- 60 -->
      <g transform="translate(49.395 180.508065) scale(0.1 -0.1)">
       <use xlink:href="#DejaVuSans-36"/>
       <use xlink:href="#DejaVuSans-30" x="63.623047"/>
      </g>
     </g>
    </g>
    <g id="ytick_5">
     <g id="line2d_26">
      <path d="M 69.12 143.336595 
L 497.664 143.336595 
" clip-path="url(#pc1070832d5)" style="fill: none; stroke-dasharray: 2.96,1.28; stroke-dashoffset: 0; stroke: #b0b0b0; stroke-width: 0.8"/>
     </g>
     <g id="line2d_27">
      <g>
       <use xlink:href="#me8de096751" x="69.12" y="143.336595" style="stroke: #000000; stroke-width: 0.8"/>
      </g>
     </g>
     <g id="text_22">
      <!-- 80 -->
      <g transform="translate(49.395 147.135814) scale(0.1 -0.1)">
       <use xlink:href="#DejaVuSans-38"/>
       <use xlink:href="#DejaVuSans-30" x="63.623047"/>
      </g>
     </g>
    </g>
    <g id="ytick_6">
     <g id="line2d_28">
      <path d="M 69.12 109.964344 
L 497.664 109.964344 
" clip-path="url(#pc1070832d5)" style="fill: none; stroke-dasharray: 2.96,1.28; stroke-dashoffset: 0; stroke: #b0b0b0; stroke-width: 0.8"/>
     </g>
     <g id="line2d_29">
      <g>
       <use xlink:href="#me8de096751" x="69.12" y="109.964344" style="stroke: #000000; stroke-width: 0.8"/>
      </g>
     </g>
     <g id="text_23">
      <!-- 100 -->
      <g transform="translate(43.0325 113.763563) scale(0.1 -0.1)">
       <use xlink:href="#DejaVuSans-31"/>
       <use xlink:href="#DejaVuSans-30" x="63.623047"/>
       <use xlink:href="#DejaVuSans-30" x="127.246094"/>
      </g>
     </g>
    </g>
    <g id="ytick_7">
     <g id="line2d_30">
      <path d="M 69.12 76.592093 
L 497.664 76.592093 
" clip-path="url(#pc1070832d5)" style="fill: none; stroke-dasharray: 2.96,1.28; stroke-dashoffset: 0; stroke: #b0b0b0; stroke-width: 0.8"/>
     </g>
     <g id="line2d_31">
      <g>
       <use xlink:href="#me8de096751" x="69.12" y="76.592093" style="stroke: #000000; stroke-width: 0.8"/>
      </g>
     </g>
     <g id="text_24">
      <!-- 120 -->
      <g transform="translate(43.0325 80.391311) scale(0.1 -0.1)">
       <use xlink:href="#DejaVuSans-31"/>
       <use xlink:href="#DejaVuSans-32" x="63.623047"/>
       <use xlink:href="#DejaVuSans-30" x="127.246094"/>
      </g>
     </g>
    </g>
    <g id="ytick_8">
     <g id="line2d_32">
      <path d="M 69.12 43.219841 
L 497.664 43.219841 
" clip-path="url(#pc1070832d5)" style="fill: none; stroke-dasharray: 2.96,1.28; stroke-dashoffset: 0; stroke: #b0b0b0; stroke-width: 0.8"/>
     </g>
     <g id="line2d_33">
      <g>
       <use xlink:href="#me8de096751" x="69.12" y="43.219841" style="stroke: #000000; stroke-width: 0.8"/>
      </g>
     </g>
     <g id="text_25">
      <!-- 140 -->
      <g transform="translate(43.0325 47.01906) scale(0.1 -0.1)">
       <use xlink:href="#DejaVuSans-31"/>
       <use xlink:href="#DejaVuSans-34" x="63.623047"/>
       <use xlink:href="#DejaVuSans-30" x="127.246094"/>
      </g>
     </g>
    </g>
    <g id="text_26">
     <!-- latency (s) -->
     <g transform="translate(36.952812 183.5377) rotate(-90) scale(0.1 -0.1)">
      <defs>
       <path id="DejaVuSans-6c" d="M 603 4863 
L 1178 4863 
L 1178 0 
L 603 0 
L 603 4863 
z
" transform="scale(0.015625)"/>
       <path id="DejaVuSans-61" d="M 2194 1759 
Q 1497 1759 1228 1600 
Q 959 1441 959 1056 
Q 959 750 1161 570 
Q 1363 391 1709 391 
Q 2188 391 2477 730 
Q 2766 1069 2766 1631 
L 2766 1759 
L 2194 1759 
z
M 3341 1997 
L 3341 0 
L 2766 0 
L 2766 531 
Q 2569 213 2275 61 
Q 1981 -91 1556 -91 
Q 1019 -91 701 211 
Q 384 513 384 1019 
Q 384 1609 779 1909 
Q 1175 2209 1959 2209 
L 2766 2209 
L 2766 2266 
Q 2766 2663 2505 2880 
Q 2244 3097 1772 3097 
Q 1472 3097 1187 3025 
Q 903 2953 641 2809 
L 641 3341 
Q 956 3463 1253 3523 
Q 1550 3584 1831 3584 
Q 2591 3584 2966 3190 
Q 3341 2797 3341 1997 
z
" transform="scale(0.015625)"/>
       <path id="DejaVuSans-74" d="M 1172 4494 
L 1172 3500 
L 2356 3500 
L 2356 3053 
L 1172 3053 
L 1172 1153 
Q 1172 725 1289 603 
Q 1406 481 1766 481 
L 2356 481 
L 2356 0 
L 1766 0 
Q 1100 0 847 248 
Q 594 497 594 1153 
L 594 3053 
L 172 3053 
L 172 3500 
L 594 3500 
L 594 4494 
L 1172 4494 
z
" transform="scale(0.015625)"/>
       <path id="DejaVuSans-65" d="M 3597 1894 
L 3597 1613 
L 953 1613 
Q 991 1019 1311 708 
Q 1631 397 2203 397 
Q 2534 397 2845 478 
Q 3156 559 3463 722 
L 3463 178 
Q 3153 47 2828 -22 
Q 2503 -91 2169 -91 
Q 1331 -91 842 396 
Q 353 884 353 1716 
Q 353 2575 817 3079 
Q 1281 3584 2069 3584 
Q 2775 3584 3186 3129 
Q 3597 2675 3597 1894 
z
M 3022 2063 
Q 3016 2534 2758 2815 
Q 2500 3097 2075 3097 
Q 1594 3097 1305 2825 
Q 1016 2553 972 2059 
L 3022 2063 
z
" transform="scale(0.015625)"/>
       <path id="DejaVuSans-6e" d="M 3513 2113 
L 3513 0 
L 2938 0 
L 2938 2094 
Q 2938 2591 2744 2837 
Q 2550 3084 2163 3084 
Q 1697 3084 1428 2787 
Q 1159 2491 1159 1978 
L 1159 0 
L 581 0 
L 581 3500 
L 1159 3500 
L 1159 2956 
Q 1366 3272 1645 3428 
Q 1925 3584 2291 3584 
Q 2894 3584 3203 3211 
Q 3513 2838 3513 2113 
z
" transform="scale(0.015625)"/>
       <path id="DejaVuSans-63" d="M 3122 3366 
L 3122 2828 
Q 2878 2963 2633 3030 
Q 2388 3097 2138 3097 
Q 1578 3097 1268 2742 
Q 959 2388 959 1747 
Q 959 1106 1268 751 
Q 1578 397 2138 397 
Q 2388 397 2633 464 
Q 2878 531 3122 666 
L 3122 134 
Q 2881 22 2623 -34 
Q 2366 -91 2075 -91 
Q 1284 -91 818 406 
Q 353 903 353 1747 
Q 353 2603 823 3093 
Q 1294 3584 2113 3584 
Q 2378 3584 2631 3529 
Q 2884 3475 3122 3366 
z
" transform="scale(0.015625)"/>
       <path id="DejaVuSans-79" d="M 2059 -325 
Q 1816 -950 1584 -1140 
Q 1353 -1331 966 -1331 
L 506 -1331 
L 506 -850 
L 844 -850 
Q 1081 -850 1212 -737 
Q 1344 -625 1503 -206 
L 1606 56 
L 191 3500 
L 800 3500 
L 1894 763 
L 2988 3500 
L 3597 3500 
L 2059 -325 
z
" transform="scale(0.015625)"/>
       <path id="DejaVuSans-20" transform="scale(0.015625)"/>
       <path id="DejaVuSans-28" d="M 1984 4856 
Q 1566 4138 1362 3434 
Q 1159 2731 1159 2009 
Q 1159 1288 1364 580 
Q 1569 -128 1984 -844 
L 1484 -844 
Q 1016 -109 783 600 
Q 550 1309 550 2009 
Q 550 2706 781 3412 
Q 1013 4119 1484 4856 
L 1984 4856 
z
" transform="scale(0.015625)"/>
       <path id="DejaVuSans-73" d="M 2834 3397 
L 2834 2853 
Q 2591 2978 2328 3040 
Q 2066 3103 1784 3103 
Q 1356 3103 1142 2972 
Q 928 2841 928 2578 
Q 928 2378 1081 2264 
Q 1234 2150 1697 2047 
L 1894 2003 
Q 2506 1872 2764 1633 
Q 3022 1394 3022 966 
Q 3022 478 2636 193 
Q 2250 -91 1575 -91 
Q 1294 -91 989 -36 
Q 684 19 347 128 
L 347 722 
Q 666 556 975 473 
Q 1284 391 1588 391 
Q 1994 391 2212 530 
Q 2431 669 2431 922 
Q 2431 1156 2273 1281 
Q 2116 1406 1581 1522 
L 1381 1569 
Q 847 1681 609 1914 
Q 372 2147 372 2553 
Q 372 3047 722 3315 
Q 1072 3584 1716 3584 
Q 2034 3584 2315 3537 
Q 2597 3491 2834 3397 
z
" transform="scale(0.015625)"/>
       <path id="DejaVuSans-29" d="M 513 4856 
L 1013 4856 
Q 1481 4119 1714 3412 
Q 1947 2706 1947 2009 
Q 1947 1309 1714 600 
Q 1481 -109 1013 -844 
L 513 -844 
Q 928 -128 1133 580 
Q 1338 1288 1338 2009 
Q 1338 2731 1133 3434 
Q 928 4138 513 4856 
z
" transform="scale(0.015625)"/>
      </defs>
      <use xlink:href="#DejaVuSans-6c"/>
      <use xlink:href="#DejaVuSans-61" x="27.783203"/>
      <use xlink:href="#DejaVuSans-74" x="89.0625"/>
      <use xlink:href="#DejaVuSans-65" x="128.271484"/>
      <use xlink:href="#DejaVuSans-6e" x="189.794922"/>
      <use xlink:href="#DejaVuSans-63" x="253.173828"/>
      <use xlink:href="#DejaVuSans-79" x="308.154297"/>
      <use xlink:href="#DejaVuSans-20" x="367.333984"/>
      <use xlink:href="#DejaVuSans-28" x="399.121094"/>
      <use xlink:href="#DejaVuSans-73" x="438.134766"/>
      <use xlink:href="#DejaVuSans-29" x="490.234375"/>
     </g>
    </g>
   </g>
   <g id="patch_71">
    <path d="M 69.12 276.8256 
L 69.12 37.3248 
" style="fill: none; stroke: #000000; stroke-width: 0.8; stroke-linejoin: miter; stroke-linecap: square"/>
   </g>
   <g id="patch_72">
    <path d="M 497.664 276.8256 
L 497.664 37.3248 
" style="fill: none; stroke: #000000; stroke-width: 0.8; stroke-linejoin: miter; stroke-linecap: square"/>
   </g>
   <g id="patch_73">
    <path d="M 69.12 276.8256 
L 497.664 276.8256 
" style="fill: none; stroke: #000000; stroke-width: 0.8; stroke-linejoin: miter; stroke-linecap: square"/>
   </g>
   <g id="patch_74">
    <path d="M 69.12 37.3248 
L 497.664 37.3248 
" style="fill: none; stroke: #000000; stroke-width: 0.8; stroke-linejoin: miter; stroke-linecap: square"/>
   </g>
   <g id="text_27">
    <!-- TPC-H (sf=20, t=1) Spark -->
    <g transform="translate(206.5995 31.3248) scale(0.12 -0.12)">
     <defs>
      <path id="DejaVuSans-54" d="M -19 4666 
L 3928 4666 
L 3928 4134 
L 2272 4134 
L 2272 0 
L 1638 0 
L 1638 4134 
L -19 4134 
L -19 4666 
z
" transform="scale(0.015625)"/>
      <path id="DejaVuSans-50" d="M 1259 4147 
L 1259 2394 
L 2053 2394 
Q 2494 2394 2734 2622 
Q 2975 2850 2975 3272 
Q 2975 3691 2734 3919 
Q 2494 4147 2053 4147 
L 1259 4147 
z
M 628 4666 
L 2053 4666 
Q 2838 4666 3239 4311 
Q 3641 3956 3641 3272 
Q 3641 2581 3239 2228 
Q 2838 1875 2053 1875 
L 1259 1875 
L 1259 0 
L 628 0 
L 628 4666 
z
" transform="scale(0.015625)"/>
      <path id="DejaVuSans-43" d="M 4122 4306 
L 4122 3641 
Q 3803 3938 3442 4084 
Q 3081 4231 2675 4231 
Q 1875 4231 1450 3742 
Q 1025 3253 1025 2328 
Q 1025 1406 1450 917 
Q 1875 428 2675 428 
Q 3081 428 3442 575 
Q 3803 722 4122 1019 
L 4122 359 
Q 3791 134 3420 21 
Q 3050 -91 2638 -91 
Q 1578 -91 968 557 
Q 359 1206 359 2328 
Q 359 3453 968 4101 
Q 1578 4750 2638 4750 
Q 3056 4750 3426 4639 
Q 3797 4528 4122 4306 
z
" transform="scale(0.015625)"/>
      <path id="DejaVuSans-2d" d="M 313 2009 
L 1997 2009 
L 1997 1497 
L 313 1497 
L 313 2009 
z
" transform="scale(0.015625)"/>
      <path id="DejaVuSans-48" d="M 628 4666 
L 1259 4666 
L 1259 2753 
L 3553 2753 
L 3553 4666 
L 4184 4666 
L 4184 0 
L 3553 0 
L 3553 2222 
L 1259 2222 
L 1259 0 
L 628 0 
L 628 4666 
z
" transform="scale(0.015625)"/>
      <path id="DejaVuSans-66" d="M 2375 4863 
L 2375 4384 
L 1825 4384 
Q 1516 4384 1395 4259 
Q 1275 4134 1275 3809 
L 1275 3500 
L 2222 3500 
L 2222 3053 
L 1275 3053 
L 1275 0 
L 697 0 
L 697 3053 
L 147 3053 
L 147 3500 
L 697 3500 
L 697 3744 
Q 697 4328 969 4595 
Q 1241 4863 1831 4863 
L 2375 4863 
z
" transform="scale(0.015625)"/>
      <path id="DejaVuSans-3d" d="M 678 2906 
L 4684 2906 
L 4684 2381 
L 678 2381 
L 678 2906 
z
M 678 1631 
L 4684 1631 
L 4684 1100 
L 678 1100 
L 678 1631 
z
" transform="scale(0.015625)"/>
      <path id="DejaVuSans-2c" d="M 750 794 
L 1409 794 
L 1409 256 
L 897 -744 
L 494 -744 
L 750 256 
L 750 794 
z
" transform="scale(0.015625)"/>
      <path id="DejaVuSans-53" d="M 3425 4513 
L 3425 3897 
Q 3066 4069 2747 4153 
Q 2428 4238 2131 4238 
Q 1616 4238 1336 4038 
Q 1056 3838 1056 3469 
Q 1056 3159 1242 3001 
Q 1428 2844 1947 2747 
L 2328 2669 
Q 3034 2534 3370 2195 
Q 3706 1856 3706 1288 
Q 3706 609 3251 259 
Q 2797 -91 1919 -91 
Q 1588 -91 1214 -16 
Q 841 59 441 206 
L 441 856 
Q 825 641 1194 531 
Q 1563 422 1919 422 
Q 2459 422 2753 634 
Q 3047 847 3047 1241 
Q 3047 1584 2836 1778 
Q 2625 1972 2144 2069 
L 1759 2144 
Q 1053 2284 737 2584 
Q 422 2884 422 3419 
Q 422 4038 858 4394 
Q 1294 4750 2059 4750 
Q 2388 4750 2728 4690 
Q 3069 4631 3425 4513 
z
" transform="scale(0.015625)"/>
      <path id="DejaVuSans-70" d="M 1159 525 
L 1159 -1331 
L 581 -1331 
L 581 3500 
L 1159 3500 
L 1159 2969 
Q 1341 3281 1617 3432 
Q 1894 3584 2278 3584 
Q 2916 3584 3314 3078 
Q 3713 2572 3713 1747 
Q 3713 922 3314 415 
Q 2916 -91 2278 -91 
Q 1894 -91 1617 61 
Q 1341 213 1159 525 
z
M 3116 1747 
Q 3116 2381 2855 2742 
Q 2594 3103 2138 3103 
Q 1681 3103 1420 2742 
Q 1159 2381 1159 1747 
Q 1159 1113 1420 752 
Q 1681 391 2138 391 
Q 2594 391 2855 752 
Q 3116 1113 3116 1747 
z
" transform="scale(0.015625)"/>
      <path id="DejaVuSans-72" d="M 2631 2963 
Q 2534 3019 2420 3045 
Q 2306 3072 2169 3072 
Q 1681 3072 1420 2755 
Q 1159 2438 1159 1844 
L 1159 0 
L 581 0 
L 581 3500 
L 1159 3500 
L 1159 2956 
Q 1341 3275 1631 3429 
Q 1922 3584 2338 3584 
Q 2397 3584 2469 3576 
Q 2541 3569 2628 3553 
L 2631 2963 
z
" transform="scale(0.015625)"/>
      <path id="DejaVuSans-6b" d="M 581 4863 
L 1159 4863 
L 1159 1991 
L 2875 3500 
L 3609 3500 
L 1753 1863 
L 3688 0 
L 2938 0 
L 1159 1709 
L 1159 0 
L 581 0 
L 581 4863 
z
" transform="scale(0.015625)"/>
     </defs>
     <use xlink:href="#DejaVuSans-54"/>
     <use xlink:href="#DejaVuSans-50" x="61.083984"/>
     <use xlink:href="#DejaVuSans-43" x="121.386719"/>
     <use xlink:href="#DejaVuSans-2d" x="191.210938"/>
     <use xlink:href="#DejaVuSans-48" x="227.294922"/>
     <use xlink:href="#DejaVuSans-20" x="302.490234"/>
     <use xlink:href="#DejaVuSans-28" x="334.277344"/>
     <use xlink:href="#DejaVuSans-73" x="373.291016"/>
     <use xlink:href="#DejaVuSans-66" x="425.390625"/>
     <use xlink:href="#DejaVuSans-3d" x="460.595703"/>
     <use xlink:href="#DejaVuSans-32" x="544.384766"/>
     <use xlink:href="#DejaVuSans-30" x="608.007812"/>
     <use xlink:href="#DejaVuSans-2c" x="671.630859"/>
     <use xlink:href="#DejaVuSans-20" x="703.417969"/>
     <use xlink:href="#DejaVuSans-74" x="735.205078"/>
     <use xlink:href="#DejaVuSans-3d" x="774.414062"/>
     <use xlink:href="#DejaVuSans-31" x="858.203125"/>
     <use xlink:href="#DejaVuSans-29" x="921.826172"/>
     <use xlink:href="#DejaVuSans-20" x="960.839844"/>
     <use xlink:href="#DejaVuSans-53" x="992.626953"/>
     <use xlink:href="#DejaVuSans-70" x="1056.103516"/>
     <use xlink:href="#DejaVuSans-61" x="1119.580078"/>
     <use xlink:href="#DejaVuSans-72" x="1180.859375"/>
     <use xlink:href="#DejaVuSans-6b" x="1221.972656"/>
    </g>
   </g>
   <g id="legend_1">
    <g id="patch_75">
     <path d="M 74.02 97.201675 
L 146.273125 97.201675 
Q 147.673125 97.201675 147.673125 95.801675 
L 147.673125 42.2248 
Q 147.673125 40.8248 146.273125 40.8248 
L 74.02 40.8248 
Q 72.62 40.8248 72.62 42.2248 
L 72.62 95.801675 
Q 72.62 97.201675 74.02 97.201675 
z
" style="fill: #ffffff; opacity: 0.8; stroke: #cccccc; stroke-linejoin: miter"/>
    </g>
    <g id="text_28">
     <!-- lineitem -->
     <g transform="translate(89.827031 51.223238) scale(0.1 -0.1)">
      <defs>
       <path id="DejaVuSans-69" d="M 603 3500 
L 1178 3500 
L 1178 0 
L 603 0 
L 603 3500 
z
M 603 4863 
L 1178 4863 
L 1178 4134 
L 603 4134 
L 603 4863 
z
" transform="scale(0.015625)"/>
       <path id="DejaVuSans-6d" d="M 3328 2828 
Q 3544 3216 3844 3400 
Q 4144 3584 4550 3584 
Q 5097 3584 5394 3201 
Q 5691 2819 5691 2113 
L 5691 0 
L 5113 0 
L 5113 2094 
Q 5113 2597 4934 2840 
Q 4756 3084 4391 3084 
Q 3944 3084 3684 2787 
Q 3425 2491 3425 1978 
L 3425 0 
L 2847 0 
L 2847 2094 
Q 2847 2600 2669 2842 
Q 2491 3084 2119 3084 
Q 1678 3084 1418 2786 
Q 1159 2488 1159 1978 
L 1159 0 
L 581 0 
L 581 3500 
L 1159 3500 
L 1159 2956 
Q 1356 3278 1631 3431 
Q 1906 3584 2284 3584 
Q 2666 3584 2933 3390 
Q 3200 3197 3328 2828 
z
" transform="scale(0.015625)"/>
      </defs>
      <use xlink:href="#DejaVuSans-6c"/>
      <use xlink:href="#DejaVuSans-69" x="27.783203"/>
      <use xlink:href="#DejaVuSans-6e" x="55.566406"/>
      <use xlink:href="#DejaVuSans-65" x="118.945312"/>
      <use xlink:href="#DejaVuSans-69" x="180.46875"/>
      <use xlink:href="#DejaVuSans-74" x="208.251953"/>
      <use xlink:href="#DejaVuSans-65" x="247.460938"/>
      <use xlink:href="#DejaVuSans-6d" x="308.984375"/>
     </g>
    </g>
    <g id="patch_76">
     <path d="M 75.42 62.121831 
L 89.42 62.121831 
L 89.42 57.221831 
L 75.42 57.221831 
z
" style="fill: #cc1100"/>
    </g>
    <g id="text_29">
     <!-- ignition scan -->
     <g transform="translate(95.02 62.121831) scale(0.07 -0.07)">
      <defs>
       <path id="DejaVuSans-67" d="M 2906 1791 
Q 2906 2416 2648 2759 
Q 2391 3103 1925 3103 
Q 1463 3103 1205 2759 
Q 947 2416 947 1791 
Q 947 1169 1205 825 
Q 1463 481 1925 481 
Q 2391 481 2648 825 
Q 2906 1169 2906 1791 
z
M 3481 434 
Q 3481 -459 3084 -895 
Q 2688 -1331 1869 -1331 
Q 1566 -1331 1297 -1286 
Q 1028 -1241 775 -1147 
L 775 -588 
Q 1028 -725 1275 -790 
Q 1522 -856 1778 -856 
Q 2344 -856 2625 -561 
Q 2906 -266 2906 331 
L 2906 616 
Q 2728 306 2450 153 
Q 2172 0 1784 0 
Q 1141 0 747 490 
Q 353 981 353 1791 
Q 353 2603 747 3093 
Q 1141 3584 1784 3584 
Q 2172 3584 2450 3431 
Q 2728 3278 2906 2969 
L 2906 3500 
L 3481 3500 
L 3481 434 
z
" transform="scale(0.015625)"/>
       <path id="DejaVuSans-6f" d="M 1959 3097 
Q 1497 3097 1228 2736 
Q 959 2375 959 1747 
Q 959 1119 1226 758 
Q 1494 397 1959 397 
Q 2419 397 2687 759 
Q 2956 1122 2956 1747 
Q 2956 2369 2687 2733 
Q 2419 3097 1959 3097 
z
M 1959 3584 
Q 2709 3584 3137 3096 
Q 3566 2609 3566 1747 
Q 3566 888 3137 398 
Q 2709 -91 1959 -91 
Q 1206 -91 779 398 
Q 353 888 353 1747 
Q 353 2609 779 3096 
Q 1206 3584 1959 3584 
z
" transform="scale(0.015625)"/>
      </defs>
      <use xlink:href="#DejaVuSans-69"/>
      <use xlink:href="#DejaVuSans-67" x="27.783203"/>
      <use xlink:href="#DejaVuSans-6e" x="91.259766"/>
      <use xlink:href="#DejaVuSans-69" x="154.638672"/>
      <use xlink:href="#DejaVuSans-74" x="182.421875"/>
      <use xlink:href="#DejaVuSans-69" x="221.630859"/>
      <use xlink:href="#DejaVuSans-6f" x="249.414062"/>
      <use xlink:href="#DejaVuSans-6e" x="310.595703"/>
      <use xlink:href="#DejaVuSans-20" x="373.974609"/>
      <use xlink:href="#DejaVuSans-73" x="405.761719"/>
      <use xlink:href="#DejaVuSans-63" x="457.861328"/>
      <use xlink:href="#DejaVuSans-61" x="512.841797"/>
      <use xlink:href="#DejaVuSans-6e" x="574.121094"/>
     </g>
    </g>
    <g id="patch_77">
     <path d="M 75.42 72.396519 
L 89.42 72.396519 
L 89.42 67.496519 
L 75.42 67.496519 
z
" style="fill: #ff4400"/>
    </g>
    <g id="text_30">
     <!-- ignition query -->
     <g transform="translate(95.02 72.396519) scale(0.07 -0.07)">
      <defs>
       <path id="DejaVuSans-75" d="M 544 1381 
L 544 3500 
L 1119 3500 
L 1119 1403 
Q 1119 906 1312 657 
Q 1506 409 1894 409 
Q 2359 409 2629 706 
Q 2900 1003 2900 1516 
L 2900 3500 
L 3475 3500 
L 3475 0 
L 2900 0 
L 2900 538 
Q 2691 219 2414 64 
Q 2138 -91 1772 -91 
Q 1169 -91 856 284 
Q 544 659 544 1381 
z
M 1991 3584 
L 1991 3584 
z
" transform="scale(0.015625)"/>
      </defs>
      <use xlink:href="#DejaVuSans-69"/>
      <use xlink:href="#DejaVuSans-67" x="27.783203"/>
      <use xlink:href="#DejaVuSans-6e" x="91.259766"/>
      <use xlink:href="#DejaVuSans-69" x="154.638672"/>
      <use xlink:href="#DejaVuSans-74" x="182.421875"/>
      <use xlink:href="#DejaVuSans-69" x="221.630859"/>
      <use xlink:href="#DejaVuSans-6f" x="249.414062"/>
      <use xlink:href="#DejaVuSans-6e" x="310.595703"/>
      <use xlink:href="#DejaVuSans-20" x="373.974609"/>
      <use xlink:href="#DejaVuSans-71" x="405.761719"/>
      <use xlink:href="#DejaVuSans-75" x="469.238281"/>
      <use xlink:href="#DejaVuSans-65" x="532.617188"/>
      <use xlink:href="#DejaVuSans-72" x="594.140625"/>
      <use xlink:href="#DejaVuSans-79" x="635.253906"/>
     </g>
    </g>
    <g id="patch_78">
     <path d="M 75.42 82.671206 
L 89.42 82.671206 
L 89.42 77.771206 
L 75.42 77.771206 
z
" style="fill: #0067c0"/>
    </g>
    <g id="text_31">
     <!-- parquet scan -->
     <g transform="translate(95.02 82.671206) scale(0.07 -0.07)">
      <use xlink:href="#DejaVuSans-70"/>
      <use xlink:href="#DejaVuSans-61" x="63.476562"/>
      <use xlink:href="#DejaVuSans-72" x="124.755859"/>
      <use xlink:href="#DejaVuSans-71" x="164.119141"/>
      <use xlink:href="#DejaVuSans-75" x="227.595703"/>
      <use xlink:href="#DejaVuSans-65" x="290.974609"/>
      <use xlink:href="#DejaVuSans-74" x="352.498047"/>
      <use xlink:href="#DejaVuSans-20" x="391.707031"/>
      <use xlink:href="#DejaVuSans-73" x="423.494141"/>
      <use xlink:href="#DejaVuSans-63" x="475.59375"/>
      <use xlink:href="#DejaVuSans-61" x="530.574219"/>
      <use xlink:href="#DejaVuSans-6e" x="591.853516"/>
     </g>
    </g>
    <g id="patch_79">
     <path d="M 75.42 92.945894 
L 89.42 92.945894 
L 89.42 88.045894 
L 75.42 88.045894 
z
" style="fill: #069af3"/>
    </g>
    <g id="text_32">
     <!-- parquet query -->
     <g transform="translate(95.02 92.945894) scale(0.07 -0.07)">
      <use xlink:href="#DejaVuSans-70"/>
      <use xlink:href="#DejaVuSans-61" x="63.476562"/>
      <use xlink:href="#DejaVuSans-72" x="124.755859"/>
      <use xlink:href="#DejaVuSans-71" x="164.119141"/>
      <use xlink:href="#DejaVuSans-75" x="227.595703"/>
      <use xlink:href="#DejaVuSans-65" x="290.974609"/>
      <use xlink:href="#DejaVuSans-74" x="352.498047"/>
      <use xlink:href="#DejaVuSans-20" x="391.707031"/>
      <use xlink:href="#DejaVuSans-71" x="423.494141"/>
      <use xlink:href="#DejaVuSans-75" x="486.970703"/>
      <use xlink:href="#DejaVuSans-65" x="550.349609"/>
      <use xlink:href="#DejaVuSans-72" x="611.873047"/>
      <use xlink:href="#DejaVuSans-79" x="652.986328"/>
     </g>
    </g>
   </g>
  </g>
 </g>
 <defs>
  <clipPath id="pc1070832d5">
   <rect x="69.12" y="37.3248" width="428.544" height="239.5008"/>
  </clipPath>
 </defs>
</svg>
